<?xml version="1.0" encoding="utf-8"?>
<svg xmlns="http://www.w3.org/2000/svg" viewBox="0 0 213 46">
  <g fill="#fff" fill-rule="nonzero">
    <path d="M11.444 24.628h-1.85c-.22 0-.397 0-.441-.264-.088-.309.22-.397.22-.397-.044 0-.088.176-.044.309s.176.132.353.132h2.026c.044.176-.264.22-.264.22M10.959 32.558h-.881c-.132 0-.309-.044-.353-.176-.088-.22.177-.265.177-.265s-.044.089 0 .177.132.088.264.088h1.057c-.044.176-.264.176-.264.176"/>
    <path d="M11.708 24.804H9.241c-.22 0-.44-.22-.44-.485 0-.308.22-.484.44-.484h2.467c.22 0 .44.22.44.484s-.176.485-.44.485m-.573.617H9.858a.628.628 0 01-.53-.265h2.336a.628.628 0 01-.529.265m-.881.396c.264 0 .617 0 .97-.044l-.265 5.772h-.617l-.088-5.728zm-.529-.044s.088 0 .22.044l.22 5.772H9.99l-.265-5.816zm1.895 6.565c0 .22-.176.44-.44.44H9.857a.441.441 0 010-.88h1.321c.22 0 .44.22.44.44m-.836 3.172c0 .176-.132.264-.265.264-.176 0-.264-.132-.264-.264l-.132-2.38h.132l.088 2.292c0 .176.088.22.088.22l-.044-2.511h.529l-.132 2.379zM8.58 22.6c0-.308.132-.572.264-.836.176-.353.353-.705.265-1.19.176.088.396.176.572.353-.132.132-.264.308-.308.352-.485.617-.705 1.322-.176 2.115h-.088c0 .044-.53-.132-.53-.793m1.807-2.644c.44.353 1.013 1.058 1.013 1.85 0 .706-.616 1.543-.749 1.631a1.305 1.305 0 01-.264-.793c0-.573.264-.925.264-.925s-.44.264-.484.837c-.044.264.044.529.22.925h-.264c-.088-.132-.573-.749-.132-1.41.088-.132.396-.573.44-.66.044-.133.044-.22.044-.22a.822.822 0 01-.132.175c-.088.088-.396.397-.485.529-.572.705 0 1.542 0 1.586h-.22c-.264-.308-.352-.617-.308-1.057-.044-1.014 1.145-1.146 1.057-2.468m1.63.838c-.132.749.088 1.365.132 1.453.22.75-.352 1.102-.484 1.19h-.573c.353-.485.66-1.101.66-1.63 0-.176 0-.309-.043-.485l-.044-.176.352-.352m.132 2.775c.309-.264.573-.749.397-1.41 0 0-.308-.749-.044-1.586l.088-.264-.264.044c-.044 0-.397.044-.793.485-.353-.705-.97-1.19-1.675-1.542.265.793.265 1.057.089 1.41a1.938 1.938 0 00-1.058-.53l-.308-.043.132.308c.22.485.044.793-.132 1.19-.132.264-.309.616-.309 1.013 0 .529.265.837.529 1.057-.176.176-.308.397-.308.661 0 .309.176.617.44.75.088.263.265.484.485.572l.308 5.904a.807.807 0 00.088 1.586l.133 2.379c0 .352.264.616.616.616s.617-.264.617-.616l.088-2.38a.807.807 0 00.088-1.585l.265-5.904c.264-.132.44-.353.528-.617.265-.132.441-.44.441-.749a1.19 1.19 0 00-.44-.749M26.247 24.628h-1.85c-.22 0-.397 0-.441-.264-.088-.309.22-.397.22-.397-.044 0-.088.176-.044.309s.176.132.353.132h2.07c0 .176-.308.22-.308.22M25.762 32.558h-.881c-.132 0-.309-.044-.353-.176-.088-.22.177-.265.177-.265s-.044.089 0 .177.132.088.264.088h1.057c-.088.176-.264.176-.264.176"/>
    <path d="M26.511 24.804h-2.467c-.22 0-.44-.22-.44-.485 0-.308.22-.484.44-.484h2.467c.22 0 .44.22.44.484s-.22.485-.44.485m-.617.617h-1.278a.628.628 0 01-.528-.265h2.335c-.088.177-.309.265-.529.265m-.881.396c.264 0 .617 0 .97-.044l-.265 5.772H25.1l-.088-5.728zm-.485-.044s.088 0 .22.044l.22 5.772h-.175l-.265-5.816zm1.85 6.565c0 .22-.175.44-.44.44h-1.322a.441.441 0 010-.88h1.322c.265 0 .44.22.44.44m-.792 3.172c0 .176-.132.264-.265.264-.176 0-.264-.132-.264-.264l-.132-2.38h.132l.088 2.292c0 .176.088.22.088.22l-.044-2.511h.529l-.132 2.379zM23.383 22.6c0-.308.132-.572.264-.836.176-.353.353-.705.264-1.19.177.088.397.176.573.353-.132.132-.264.308-.308.352-.485.617-.705 1.322-.176 2.115h-.089c0 .044-.528-.132-.528-.793m1.762-2.644c.44.353 1.013 1.058 1.013 1.85 0 .706-.616 1.543-.749 1.631a1.305 1.305 0 01-.264-.793c0-.573.308-.925.308-.925s-.44.264-.484.837c-.044.264.044.529.22.925h-.308c-.088-.132-.573-.749-.132-1.41.088-.132.396-.573.44-.66.044-.133.044-.22.044-.22a.822.822 0 01-.132.175c-.088.088-.396.397-.485.529-.572.705 0 1.542 0 1.586h-.22c-.264-.308-.352-.617-.308-1.057 0-1.014 1.19-1.146 1.057-2.468m1.674.838c-.132.749.088 1.365.132 1.453.22.75-.352 1.102-.484 1.19h-.573c.353-.485.661-1.101.661-1.63 0-.176 0-.309-.044-.485l-.044-.176c.088-.132.22-.264.352-.352m.088 2.775c.309-.264.573-.749.397-1.41 0 0-.308-.749-.044-1.586l.088-.264-.264.044c-.044 0-.397.044-.793.485-.353-.705-.97-1.19-1.675-1.542.265.793.265 1.057.089 1.41a1.938 1.938 0 00-1.058-.53l-.308-.043.132.308c.22.485.044.793-.132 1.19-.132.264-.309.616-.309 1.013 0 .529.265.837.529 1.057-.176.176-.308.397-.308.661 0 .309.176.617.44.75.088.263.265.484.485.572l.308 5.904a.807.807 0 00.088 1.586l.133 2.379c0 .352.264.616.616.616s.617-.264.617-.616l.088-2.38a.807.807 0 00.088-1.585l.265-5.904c.264-.132.44-.353.528-.617.265-.132.441-.44.441-.749-.044-.308-.176-.573-.44-.749M19.638 25.95h-3.26c-.44 0-.793-.352-.793-.749 0-.44.352-.749.749-.793h3.436a.755.755 0 01.573.749c.088.44-.264.793-.705.793m-.66.837h-1.983c-.309 0-.573-.176-.705-.485h3.436c-.088.309-.396.485-.749.485m-.22 8.591h-.97l-.088-8.194H19.11l-.352 8.194zm.88.97c0 .352-.263.66-.616.66h-1.894c-.353 0-.661-.308-.661-.616 0-.353.264-.617.617-.617h1.894a.58.58 0 01.66.573m-1.145 4.361c0 .265-.22.485-.484.485s-.485-.22-.485-.485l-.132-3.348h.308l.133 3.26c0 .22.132.309.132.309l-.044-3.525h.793l-.22 3.304zM17.26 27.183l.352 8.195h-.308l-.397-8.195h.353zm-1.939-4.317c0-.44.177-.793.353-1.19.264-.484.484-1.013.308-1.718.265.088.661.264.97.617a1.916 1.916 0 00-.265.308c-.088.088-.132.176-.22.264-.132.133-1.322 1.366-.309 2.952-.044 0-.088 0-.132.044-.044-.088-.705-.396-.705-1.277m2.38-2.82c.132-.308.088-.66.043-.97.573.441 1.542 1.366 1.542 2.512 0 1.19-.748 2.115-1.057 2.423h-.044c-.176-.22-.352-.617-.352-1.101 0-.793.396-1.278.396-1.278s-.573.396-.66 1.145c-.045.353.043.75.264 1.234h-.353c-.088-.176-.793-1.013-.22-1.983.088-.176.528-.793.573-.925.088-.176.044-.308.044-.308-.044.176-.177.308-.177.308-.132.132-.528.573-.66.75-.794.969-.045 2.07 0 2.202h-.397c-1.101-1.454.044-2.6.132-2.687s.132-.177.22-.22c.309-.353.53-.617.705-1.102m2.556.176c-.22 1.102.132 2.027.176 2.159.264 1.013-.397 1.542-.661 1.674h-1.013c.396-.484.925-1.322.925-2.423 0-.264-.044-.529-.132-.793.264-.308.528-.529.705-.617m-.044 3.965c.396-.308.837-.925.572-1.938 0 0-.44-1.058-.044-2.247l.088-.264h-.352c-.044 0-.529.088-1.101.705-.573-1.19-1.763-1.895-1.85-1.939l-.441-.264.176.484c.088.177.22.793.088 1.19-.044.132-.088.22-.132.352-.617-.617-1.41-.749-1.454-.749l-.309-.044.133.309c.308.705.088 1.19-.22 1.718-.22.396-.397.837-.397 1.366 0 .749.396 1.19.749 1.41-.265.22-.44.528-.44.88 0 .441.264.838.616 1.014.044.396.308.705.66.837l.397 8.327c-.484.088-.837.484-.837 1.013s.397.97.926 1.013l.132 3.349a.837.837 0 101.674 0l.132-3.349c.529 0 .97-.484.97-1.013s-.397-.925-.882-1.013l.397-8.327c.352-.176.616-.485.66-.837.353-.176.617-.573.617-1.013.044-.397-.22-.793-.528-.97"/>
    <path d="M16.202 25.201c-.088-.22.044-.44.044-.485 0 0-.44.088-.352.573.088.397.352.44.705.44h2.951s.353.045.485-.308H16.73c-.265.044-.44 0-.529-.22M16.951 36.391a.376.376 0 01.044-.397s-.352.045-.264.485c.088.309.264.353.572.353h1.63s.265.044.353-.22h-1.894c-.265-.045-.397-.045-.441-.221"/>
    <path d="M31.798 27.932c-2.159 5.243-6.3 12.468-13.702 16.962C10.65 40.4 6.509 33.219 4.35 27.932c-1.983-4.846-2.731-8.944-2.908-10.133.881-.485 1.763-.749 2.776-.749.705 0 1.718.132 2.247.308l.352.089c.309.088.573.176.881.264 1.102.308 2.335.617 3.305.617 1.057 0 2.687-.132 4.538-.793.528-.177 1.145-.397 1.806-.485l.617-.044h.044l.925.088a7.09 7.09 0 011.542.44c1.85.662 3.48.794 4.538.794.617 0 1.454-.132 2.6-.44.484-.133.968-.265 1.409-.397l.529-.133c.572-.176 1.586-.308 2.29-.308 1.014 0 1.94.264 2.776.705-.132 1.19-.837 5.33-2.82 10.177M11.356 13.261a8.41 8.41 0 00-.485 1.806c-.837-.044-1.939-.308-2.952-.617l-1.233-.352c-.617-.176-1.675-.308-2.424-.308a7.964 7.964 0 00-3.216.705 27.514 27.514 0 01-.088-2.027l10.397.793zM.913 10.001L11.75 12.38l-.265.529-10.618-1.41c.044-.485.044-1.014.044-1.498m.397-3.965l11.235 5.198c-.22.265-.397.53-.573.793L1.001 8.943c.044-.925.132-1.894.308-2.907m.309-1.675c.44.089 1.278.265 2.423.397l9.164 5.904c-.132.132-.265.22-.353.352L1.485 4.934c.044-.176.088-.396.133-.572m4.846.484c1.19 0 2.29-.088 3.304-.308l4.626 5.154c-.352.22-.66.441-.97.705l-7.621-5.55h.66m5.905-.97l3.04 5.375c-.22.088-.397.176-.617.264l-3.877-5.198c.484-.133.969-.309 1.454-.441m4.053-1.983l.925 6.873c-.529.044-1.013.176-1.498.309L13.293 3.48a15.79 15.79 0 003.128-1.586M18.007.75c.22.176.44.352.705.528l-.44 7.49h-.529l-.397-7.49c.265-.22.529-.396.661-.528m1.586 1.145c1.102.705 2.159 1.234 3.084 1.586l-2.555 5.552c-.485-.133-.97-.265-1.454-.309l.925-6.829zm4.053 1.983c.661.22 1.146.352 1.454.44l-3.877 5.2c-.22-.089-.396-.177-.616-.265l3.04-5.375zm2.6.66c1.145.177 2.335.31 3.524.31h.441l-7.622 5.55a4.717 4.717 0 00-.97-.66l4.627-5.2zm5.727.177c1.146-.132 2.027-.308 2.467-.397.045.177.089.397.133.573l-11.367 6.08-.353-.352 9.12-5.904zm2.732 1.278c.176 1.013.264 2.026.308 2.996l-10.97 3.084c-.176-.309-.396-.573-.617-.838l11.28-5.242zm.44 5.507l-10.618 1.41a4.806 4.806 0 00-.264-.485l10.838-2.38c.044.486.044.97.044 1.455m-7.534 3.436l-.088-.308c-.66.176-1.586.396-2.335.44a8.408 8.408 0 00-.484-1.806l10.442-.793c0 .705-.045 1.366-.089 1.983-.969-.44-2.07-.705-3.128-.705-.66 0-1.762.132-2.467.308l-1.938.529.088.352zm-9.56-1.145v.044-.044c-.264 0-.485 0-.75.044-.704.088-1.409.308-1.938.485a13.454 13.454 0 01-3.877.748c.441-3.26 3.217-5.683 6.52-5.683s6.08 2.467 6.521 5.683a13.47 13.47 0 01-3.833-.748 7.674 7.674 0 00-1.674-.441v.044-.044c-.308-.088-.66-.088-.97-.088m-7.004 1.894c.749 0 1.762-.088 2.952-.352.528-.132 1.057-.264 1.586-.44s1.145-.397 1.806-.485l.66-.044.926.088a6.434 6.434 0 011.542.44c.66.22 1.322.397 1.939.529 1.013.22 1.938.264 2.599.264.617 0 1.454-.132 2.6-.44l1.938-.529c.573-.176 1.586-.308 2.29-.308a6.78 6.78 0 013.085.749c0 .264-.044.484-.044.705-.925-.485-1.983-.705-3.04-.705-.66 0-1.806.132-2.467.308l-.529.132c-.44.132-.925.265-1.41.397-.705.176-1.718.396-2.467.44-1.013 0-2.555-.132-4.318-.749a3.722 3.722 0 00-.749-.22c-.308-.088-.616-.176-.925-.22-.352-.044-.705-.088-1.013-.088-.264 0-.485 0-.705.044a8.116 8.116 0 00-1.101.22c-.309.088-.617.176-.881.264a13.336 13.336 0 01-4.318.75c-.837 0-2.07-.31-3.128-.618l-1.234-.352c-.617-.176-1.674-.308-2.423-.308a7.157 7.157 0 00-3.04.705c0-.22-.044-.441-.044-.661a7.043 7.043 0 013.172-.793c.705 0 1.718.132 2.247.308l1.234.353.088-.309-.088.309c1.101.308 2.29.616 3.26.616m16.52 1.895l-.087-.309c-1.102.309-1.85.441-2.467.441-1.014 0-2.556-.132-4.318-.749-.485-.176-1.057-.352-1.674-.44s-1.19-.133-1.762-.045c-.75.088-1.41.309-1.939.485a13.336 13.336 0 01-4.318.749c-.88 0-2.07-.308-3.128-.617l-.088.309.088-.309a22.264 22.264 0 01-.88-.264l-.353-.088c-.617-.177-1.674-.309-2.423-.309-1.058 0-1.983.22-2.864.705-.044-.176-.044-.396-.088-.66a6.382 6.382 0 012.952-.75c.705 0 1.674.133 2.247.309l1.233.352.088-.308-.088.308c1.146.353 2.38.617 3.304.617 1.058 0 2.688-.132 4.538-.793.529-.176 1.146-.396 1.807-.485l.616-.044h.044l.926.088a7.09 7.09 0 011.542.441c1.85.66 3.48.793 4.538.793.616 0 1.453-.132 2.599-.44.485-.133.97-.265 1.41-.397l.528-.132c.573-.176 1.587-.309 2.291-.309 1.058 0 2.071.265 2.996.75-.044.264-.044.484-.088.616a6.544 6.544 0 00-2.908-.66c-.66 0-1.762.132-2.467.308l-.528.132c-.441.132-.926.264-1.41.396l.132.309zm8.152-7.666l-.045-1.058c-.088-.969-.176-2.026-.352-3.084l-.132-.705c-.088-.396-.132-.748-.22-1.145l-.089-.308-.308.088s-.529.132-1.366.308l-2.07.22c-.397.044-.838.044-1.322.044-1.234 0-2.423-.088-3.569-.308l-.749-.132h-.044s-.617-.132-1.498-.44l-.969-.353c-.97-.397-2.115-.97-3.26-1.718l-.97-.705c-.176-.132-.352-.309-.528-.44L18.007 0l-.22.176s-.177.176-.485.44l-.97.706c-.793.528-1.894 1.145-3.304 1.718l-.97.352c-.484.177-.968.309-1.497.44h-.044l-.837.177c-1.013.176-2.07.264-3.216.264-.573 0-1.102 0-1.586-.044l-2.071-.308c-.837-.132-1.322-.264-1.366-.264l-.308-.088-.088.352c-.089.308-.133.617-.177.925l-.176.925C.516 6.83.428 7.842.34 8.811L.296 9.87C.25 10.397.25 10.882.25 11.367v1.057c.045 2.908.397 4.934.441 5.11.044.265.66 4.98 2.996 10.663 2.203 5.33 6.432 12.644 14.01 17.27l.308.22.309-.22c7.578-4.626 11.763-11.94 13.966-17.27 2.335-5.684 2.952-10.397 2.952-10.662.044-.177.352-2.16.44-5.067v-1.013a6.083 6.083 0 00.044-1.542M42.283 5.683c0-.793-.176-1.145-.793-1.145h-1.057c-.133 0-.177-.044-.177-.22v-.53c0-.131.044-.175.22-.175.221 0 1.367.088 3.57.088 1.938 0 3.04-.088 3.348-.088.132 0 .176.044.176.176v.573c0 .132-.044.176-.176.176h-.97c-.705 0-1.101.396-1.145.88-.044.265-.088 1.675-.088 2.997v2.864c0 1.145.044 2.82.088 3.524.088 1.058.264 2.115.793 2.864.793 1.057 2.026 1.454 3.172 1.454 1.057 0 2.38-.44 3.084-1.102.881-.88 1.366-2.247 1.366-3.92V9.912c0-1.85-.176-3.877-.265-4.406-.088-.617-.44-1.013-.969-1.013h-.837c-.132 0-.176-.088-.176-.176v-.573c0-.132.044-.176.176-.176.22 0 1.278.088 2.82.088 1.454 0 2.159-.088 2.379-.088s.22.088.22.176v.529c0 .132-.044.22-.132.22h-.837c-.837 0-.925.66-.97.881-.043.264-.043 3.525-.043 3.833s-.044 4.362-.133 5.287c-.132 1.894-.704 3.348-1.938 4.45-.97.88-2.467 1.454-4.23 1.454-1.1 0-2.467-.177-3.348-.573-1.366-.573-2.29-1.63-2.731-3.084-.309-1.013-.397-2.555-.397-5.595V5.683zM57.747 14.89c.088 0 .132.045.132.177.044.75.22 1.63.881 2.644a3.628 3.628 0 003.04 1.674c1.234 0 2.996-.793 2.996-2.732 0-2.114-.97-2.82-3.436-3.745-.75-.264-2.291-.925-3.393-1.938-.793-.75-1.145-1.895-1.145-3.304 0-1.278.528-2.38 1.63-3.26.925-.794 1.938-1.102 3.304-1.102 1.542 0 2.467.352 2.908.573.22.088.352.044.485-.088l.308-.309c.088-.088.176-.132.308-.132s.177.132.177.352c0 .353.352 3.613.352 3.833 0 .089-.044.133-.132.177l-.353.132c-.088 0-.176 0-.22-.132a6.483 6.483 0 00-1.454-2.468c-.617-.66-1.321-.969-2.423-.969-1.85 0-2.6 1.498-2.6 2.335 0 .793.089 1.498.662 2.07.616.618 1.894 1.146 2.82 1.455 1.321.396 2.466.881 3.348 1.806.749.793 1.145 1.762 1.145 3.304 0 2.82-1.85 5.155-4.934 5.155-1.895 0-2.996-.396-3.921-1.101-.265-.177-.397-.265-.573-.265-.132 0-.22.177-.353.397s-.22.264-.396.264-.264-.132-.264-.352c.044-.265.352-4.054.396-4.318.044-.132.044-.176.132-.176l.573.044zM83.477 16.257c.088.088.088.132.044.22-1.41 1.983-3.613 3.877-6.917 3.877-2.952 0-4.626-.881-6.08-2.159-1.718-1.542-2.511-4.23-2.511-6.256 0-2.29.749-4.45 2.379-6.212 1.234-1.322 3.26-2.467 6.036-2.467 2.114 0 3.833.66 4.67 1.101.308.177.396.177.484 0l.177-.616c.044-.133.088-.133.352-.133s.309.044.309.353c0 .396.484 4.141.572 4.802.044.132 0 .22-.088.22l-.44.133c-.133.044-.177-.045-.265-.22-.264-.838-.837-1.983-1.806-2.997-1.013-.969-2.247-1.718-4.053-1.718-3.701 0-5.243 3.348-5.243 6.697 0 1.454.396 4.185 2.115 6.036 1.542 1.63 2.863 1.806 3.965 1.806 2.555 0 4.582-1.278 5.55-2.688.133-.176.221-.22.265-.176l.485.397zM90.702 19.914c-1.586-.617-2.38-1.63-2.776-3.128-.264-1.058-.352-2.6-.352-5.64V5.683c0-.793-.176-1.19-.881-1.19H85.59c-.132 0-.176-.043-.176-.22v-.528c0-.132.044-.176.22-.176.22 0 1.366.088 3.173.088s2.907-.088 3.172-.088c.176 0 .22.044.22.132v.617c0 .132-.044.176-.176.176h-1.146c-.66 0-1.057.44-1.101.97-.044.22-.044 1.85-.044 2.995v1.542c0 1.234.088 4.185.132 4.934.044 1.058.22 2.16.749 2.952.837 1.234 2.335 1.674 3.7 1.674 1.322 0 2.644-.44 3.481-1.277.925-.97 1.19-2.38 1.19-4.098V9.208c0-1.762-.044-3.128-.132-3.7-.089-.618-.441-1.014-1.058-1.014h-1.013c-.132 0-.176-.088-.176-.176v-.573c0-.132.044-.176.176-.176.22 0 1.278.088 2.864.088s2.335-.088 2.555-.088.22.088.22.176v.529c0 .132-.044.22-.132.22h-.97c-.836 0-.925.66-1.013.925-.044.22-.044 3.525-.044 3.833s-.044 4.362-.132 5.287c-.132 1.894-.66 3.348-1.938 4.494-.926.837-2.335 1.41-4.362 1.41-1.19-.044-2.38-.22-3.128-.53M110.616 18.812c0 .352.22.485.529.485h.749c.22 0 .264.088.264.22v.352c0 .177-.044.265-.176.265-.176 0-.881-.088-2.203-.088-1.19 0-1.939.088-2.07.088s-.177-.088-.177-.265v-.352c0-.176.088-.22.308-.22h.661c.265 0 .44-.133.485-.53.044-.616.044-1.365.044-1.938v-3.04c0-.925 0-1.586-.661-2.07-.573-.397-1.101-.397-1.674-.397-.353 0-1.19.176-1.895.925-.44.53-.528 1.146-.528 1.587v4.802c0 .617.088.749.572.749h.573c.176 0 .22.088.22.22v.396c0 .133-.044.22-.176.22-.176 0-.793-.087-2.026-.087-1.19 0-1.939.088-2.071.088s-.176-.088-.176-.22v-.397c0-.132.044-.22.22-.22h.66c.31 0 .485-.088.485-.485v-5.507c0-.705-.352-1.102-.969-1.366l-.176-.088c-.176-.088-.176-.132-.176-.22v-.133c0-.132.088-.176.22-.22l1.983-1.101c.176-.088.308-.176.396-.176.132 0 .176.088.176.264l.177 1.41h.044c.66-.837 2.026-1.674 3.172-1.674.705 0 1.41.132 1.982.528.705.485 1.278 1.63 1.278 2.203v5.992h-.044zM114.449 13.305c0-.793-.132-1.19-1.278-1.41-.176-.044-.22-.088-.22-.176v-.22c0-.089.044-.133.176-.177.75-.264 1.63-.66 2.512-1.145.176-.088.308-.132.44-.132s.132.132.132.264c-.044.397-.044 1.85-.044 3.789v2.6c0 .925 0 1.718.044 1.982.044.44.132.617.353.617h1.057c.176 0 .22.088.22.22v.397c0 .176-.044.22-.22.22s-1.233-.088-2.247-.088c-1.366 0-2.247.088-2.511.088-.132 0-.176-.044-.176-.176v-.485c0-.132.088-.176.22-.176h1.145c.265 0 .353-.088.353-.485.044-.705.044-1.41.044-2.115v-3.392zm-1.013-7.05c0-.572.484-1.189 1.41-1.189.793 0 1.189.617 1.189 1.146 0 .617-.397 1.277-1.366 1.277-.484-.044-1.233-.484-1.233-1.233M122.732 17.93h.088c.353-.924 1.983-4.845 2.247-5.77.176-.617 0-1.014-.396-1.014h-.485c-.088 0-.088-.132-.088-.22v-.397c0-.132.044-.176.132-.176.308 0 .837.088 1.85.088.926 0 1.454-.088 1.675-.088.176 0 .22.044.22.22v.397c0 .176 0 .22-.132.22h-.44c-.265 0-.53.044-.706.265-.352.308-1.498 2.863-1.85 3.7-.265.705-1.983 4.582-2.07 4.759-.177.308-.31.528-.574.528-.22 0-.352-.22-.484-.484-.044-.133-1.719-4.538-1.807-4.715s-1.013-2.82-1.19-3.216c-.308-.66-.528-.837-.968-.837h-.485c-.132 0-.132-.088-.132-.22v-.397c0-.176.044-.176.264-.176.265 0 .661.088 1.939.088 1.233 0 1.85-.088 2.07-.088.177 0 .22.044.22.176v.397c0 .132-.043.22-.176.22h-.484c-.22 0-.397.132-.397.44 0 .397.617 2.336.75 2.732s1.145 3.084 1.41 3.569M128.988 13.878c-.044.22-.088.573-.088 1.101 0 2.291 1.454 3.965 3.304 3.965 1.41 0 2.423-.793 2.82-1.586a.242.242 0 01.22-.132l.309.176c.088.044.132.088 0 .353-.397.925-1.63 2.511-3.701 2.511-1.322 0-2.776-.396-3.657-1.63-.793-1.19-1.013-2.027-1.013-3.657 0-.925.22-2.467 1.454-3.7 1.013-1.014 2.158-1.234 3.304-1.234 2.643 0 3.392 2.511 3.392 3.392 0 .309-.264.353-.66.353h-5.684v.088zm3.7-.705c.441 0 .618-.132.618-.308 0-.53-.265-2.071-1.807-2.071-1.013 0-1.982.66-2.423 2.379h3.613zM137.535 13.878c0-1.19-.176-1.41-.837-1.762l-.44-.22c-.133-.045-.177-.089-.177-.177v-.132c0-.088.044-.132.176-.22l2.291-1.19c.133-.088.22-.088.309-.088.132 0 .176.132.176.264l.132 1.586h.088c.705-1.057 1.763-2.026 2.776-2.026.793 0 1.19.484 1.19 1.013 0 .661-.573 1.146-.97 1.146a1.46 1.46 0 01-.66-.177c-.177-.132-.485-.176-.75-.176-.352 0-.969.22-1.366.97-.132.264-.22.66-.22.748v4.847c0 .705.176.969.661.969h1.101c.133 0 .177.088.177.22v.397c0 .132-.044.22-.133.22-.132 0-1.189-.088-2.467-.088-1.454 0-2.423.088-2.555.088-.088 0-.132-.044-.132-.22v-.397c0-.176.044-.22.264-.22h.925c.353 0 .53-.132.53-.44.043-.75.043-1.587.043-2.776v-2.159h-.132zM143.79 19.65c-.132-.088-.132-.22-.132-.308l-.397-2.203c0-.133.044-.177.132-.177l.309-.088c.088-.044.176.044.22.132l.573 1.146c.485.837.793 1.454 2.027 1.454.793 0 1.85-.485 1.85-1.586 0-1.058-.529-1.63-2.247-2.115-1.366-.396-2.731-1.101-2.731-2.952 0-1.586 1.497-2.82 3.26-2.82 1.101 0 1.718.265 2.114.485.353.176.397.264.397.397l.352 1.63c0 .088-.044.176-.176.22l-.264.088c-.088.044-.132 0-.22-.132l-.793-1.057c-.265-.441-.705-.926-1.63-.926-.882 0-1.763.53-1.763 1.542 0 1.322 1.102 1.586 2.203 1.939 1.674.485 2.776 1.19 2.776 2.952-.044 1.894-1.542 3.04-3.525 3.04-1.145 0-2.07-.441-2.335-.661M151.94 13.305c0-.793-.132-1.19-1.278-1.41-.176-.044-.22-.088-.22-.176v-.22c0-.089.044-.133.176-.177.75-.264 1.63-.66 2.512-1.145.176-.088.308-.132.44-.132s.132.132.132.264c-.044.397-.044 1.85-.044 3.789v2.6c0 .925 0 1.718.044 1.982.044.44.132.617.353.617h1.057c.176 0 .22.088.22.22v.397c0 .176-.044.22-.22.22s-1.233-.088-2.247-.088c-1.366 0-2.247.088-2.511.088-.132 0-.176-.044-.176-.176v-.485c0-.132.088-.176.22-.176h1.145c.265 0 .353-.088.353-.485.044-.705.044-1.41.044-2.115v-3.392zm-1.013-7.05c0-.572.484-1.189 1.41-1.189.793 0 1.189.617 1.189 1.146 0 .617-.397 1.277-1.366 1.277-.484-.044-1.233-.484-1.233-1.233M158.33 17.138c0 1.718.793 2.027 1.19 2.027.528 0 1.189-.089 1.541-.309.133-.088.22-.044.265.044l.132.22c.088.089.044.177-.044.265-.22.22-1.19.925-2.555.925-1.146 0-2.247-1.101-2.247-1.983 0-.969.088-2.996.088-3.304v-.529c0-.396.044-1.982.044-2.951h-1.454c-.22 0-.352-.089-.352-.265s.132-.264.396-.396c.573-.309 2.335-2.115 2.643-2.908.089-.176.177-.22.309-.22.176 0 .22.176.22.352l-.132 2.291h3.216c.132 0 .22.132.176.22l-.22.793c-.044.133-.088.177-.22.177h-2.952a78.39 78.39 0 00-.088 3.26v2.29h.044zM162.25 25.157c0-.485.529-.925 1.057-.925.441 0 .837.22 1.058.264.176.044.352 0 .484-.132.353-.397 1.542-3.04 1.85-3.965-.131-.573-2.554-7.798-2.775-8.283-.264-.573-.484-.97-1.101-.97h-.617c-.176 0-.176-.087-.176-.22v-.484c0-.088.044-.176.176-.176.22 0 .749.088 2.115.088 1.19 0 1.894-.088 2.159-.088.176 0 .22.088.22.176v.528c0 .133-.044.177-.132.177h-.44c-.265 0-.353.176-.31.528.089.53 1.63 5.596 1.895 6.124h.088c.22-.352 2.247-5.154 2.38-5.727.132-.573-.045-.881-.397-.881h-.353c-.132 0-.176-.088-.176-.176v-.485c0-.132 0-.176.132-.176.309 0 .793.088 1.895.088.617 0 1.145-.088 1.41-.088.132 0 .132.088.132.176v.44c0 .133 0 .22-.132.22h-.22c-.265 0-.573.133-.794.441-.528.617-2.026 4.142-3.656 7.799-1.146 2.555-2.027 4.714-2.468 5.507-.308.617-.749 1.498-1.982 1.498-.881-.088-1.322-.573-1.322-1.278M177.67 18.724c-1.057-1.278-1.278-2.115-1.278-3.789 0-1.19.617-2.688 1.983-3.745 1.19-.925 2.335-1.101 3.084-1.101 1.278 0 2.555.66 3.26 1.321 1.058 1.058 1.586 2.291 1.586 3.79 0 2.51-2.29 5.11-5.11 5.11-1.146 0-2.556-.397-3.525-1.586m6.697-3.701c0-2.555-1.895-4.185-3.04-4.185-.617 0-1.234.132-1.807.749-.925.925-1.233 1.894-1.233 3.656 0 1.278.132 2.16.881 3.26.529.75 1.19 1.19 2.291 1.19 1.762-.044 2.908-2.203 2.908-4.67M188.69 11.499h-1.586c-.132 0-.176-.044-.132-.264l.088-.705c.044-.133.088-.177.264-.177h1.366v-.44c0-2.291.66-3.79 1.542-4.802 1.234-1.366 2.511-1.85 3.789-1.85 1.101 0 2.115.396 2.115 1.277 0 .573-.617 1.013-.97 1.013-.22 0-.484-.044-.66-.132a2.256 2.256 0 01-.573-.529c-.309-.352-.617-.528-1.058-.528-.616 0-1.233.176-1.718.793-.837 1.101-.793 3.084-.793 4.714v.484h2.82c.176 0 .176.133.176.22l-.132.75c-.044.088-.132.132-.309.132h-2.555v2.07c0 2.732 0 4.847.044 5.111.044.397.132.617.617.617h1.322c.22 0 .264.044.264.176v.353c0 .176-.044.264-.176.264s-1.013-.088-2.776-.088c-1.277 0-2.467.088-2.643.088-.132 0-.176-.044-.176-.176v-.529c0-.132.044-.176.22-.176h1.101c.44 0 .529-.264.573-.793v-6.873h-.044zM43.649 40.929c-.264-.22-.397-.264-.529-.264s-.22.176-.352.396c-.132.264-.265.264-.397.264s-.264-.132-.22-.352c.088-.573.308-3.525.396-4.185.045-.133.089-.133.177-.133l.352.044c.088 0 .132.044.132.177.044.749.088 1.498.837 2.687.705 1.102 1.983 1.718 3.26 1.718 1.41 0 3.173-.837 3.173-2.951 0-2.38-1.718-3.26-3.569-3.922-.705-.264-2.379-.837-3.392-1.894-.75-.749-1.146-1.85-1.146-3.392 0-1.146.705-2.291 1.454-2.952.837-.793 1.983-1.102 3.26-1.102a6.85 6.85 0 012.732.573c.22.132.308.088.44-.044l.309-.264c.132-.088.176-.132.308-.132s.176.176.176.396c0 .793.309 3.172.309 3.7 0 .133-.044.177-.132.177l-.265.088c-.088.044-.132 0-.132-.088-.176-.66-.485-1.586-1.454-2.555-.617-.661-1.454-1.014-2.511-1.014-2.07 0-2.82 1.542-2.82 2.732 0 .66.132 1.41.705 2.027.661.66 1.983 1.19 2.644 1.41 1.586.528 2.907.88 3.744 1.938.617.705 1.014 1.63 1.014 3.172 0 2.731-1.674 5.067-4.714 5.067-1.763-.089-2.864-.573-3.79-1.322M54.311 40.489c-1.057-1.278-1.278-2.115-1.278-3.789 0-1.19.617-2.643 1.983-3.745 1.19-.925 2.335-1.101 3.084-1.101 1.278 0 2.555.66 3.26 1.366 1.057 1.057 1.586 2.29 1.586 3.788 0 2.512-2.29 5.111-5.11 5.111-1.102-.044-2.556-.485-3.525-1.63m6.697-3.745c0-2.555-1.895-4.185-3.04-4.185-.617 0-1.234.132-1.807.749-.925.925-1.233 1.894-1.233 3.656 0 1.278.132 2.16.881 3.26.529.75 1.19 1.19 2.291 1.19 1.762-.044 2.908-2.203 2.908-4.67M72.55 37.096c0 1.101 0 2.247.044 2.731.088.705.308.793.617.793.132 0 .484 0 .749-.088.176-.044.264 0 .264.088l.088.309c.044.132-.044.176-.132.22l-2.423.793a1.36 1.36 0 01-.485.088c-.088 0-.176-.044-.22-.264l-.176-1.366h-.044c-.661.925-1.983 1.63-3.172 1.63-.661 0-1.41-.088-2.16-1.057-.968-1.234-.924-1.983-.924-4.538v-2.688c-.044-.66-.353-.793-.881-.88-.397 0-.53-.045-.53-.177v-.396c0-.133.045-.177.265-.177h2.07c.133 0 .221-.044.31-.044s.176-.044.264-.044c.176 0 .264.132.264.265-.044.22-.088 1.277-.088 2.643v1.63c0 .925-.22 2.423.529 3.48.572.838 1.233.882 1.85.882s1.542-.617 1.983-1.146c.088-.132.22-.396.22-.617V33.66c-.044-.66-.397-.749-1.013-.793-.397 0-.53-.044-.53-.176v-.397c0-.176.045-.22.265-.22h2.159c.176 0 .264-.044.397-.044s.22-.044.264-.044c.132 0 .22.132.22.22-.044.22-.132.793-.132 3.084v1.807h.088zM77.617 38.903c0 1.718.793 2.027 1.19 2.027.528 0 1.189-.089 1.541-.309.133-.088.22-.044.265.044l.132.22c.088.089.044.177-.044.265-.22.22-1.19.925-2.555.925-1.146 0-2.247-1.101-2.247-1.983 0-.969.088-2.996.088-3.304v-.529c0-.396.044-1.982.044-2.951h-1.41c-.22 0-.352-.089-.352-.265s.132-.264.396-.396c.573-.309 2.335-2.115 2.644-2.908.088-.176.176-.22.308-.22.176 0 .22.176.22.352l-.088 2.247h3.216c.133 0 .22.132.177.22l-.22.793c-.045.133-.089.177-.221.177h-2.996a78.39 78.39 0 00-.088 3.26v2.335zM82.948 29.166c0-1.41-.264-1.674-1.101-1.939l-.397-.132c-.132-.044-.176-.088-.176-.132v-.22c0-.088.088-.132.264-.22l2.423-1.278c.177-.088.353-.176.529-.176.132 0 .22.176.176.572s-.088 5.11-.088 6.256v1.498h.132c.793-.969 2.16-1.498 3.172-1.498.97 0 1.63.309 2.291.926 1.058.969 1.014 2.158 1.014 3.392v1.322c0 1.277.044 2.731.044 3.172 0 .264.352.352.837.352h.396c.177 0 .265.044.265.22v.353c0 .176-.044.264-.177.264-.176 0-.925-.088-2.246-.088-1.146 0-1.983.088-2.16.088s-.22-.088-.22-.264v-.397c0-.132.045-.176.177-.176h.528c.397 0 .837-.044.882-.44.044-.309 0-1.542 0-2.291v-1.895c0-1.278-.089-2.203-.75-2.864-.484-.44-.969-.66-1.541-.66-.661 0-1.498.22-2.16.969-.22.264-.484.705-.484 1.145v5.067c0 .749.088.97.529.97h.705c.176 0 .264.043.264.175v.397c0 .176-.044.264-.176.264-.176 0-1.146-.088-2.203-.088-1.146 0-2.027.088-2.247.088-.088 0-.176-.088-.176-.22v-.396c0-.177.088-.177.352-.177h.485c.352 0 .705-.088.749-.352.088-.44.088-2.996.088-4.494v-7.093zM94.711 35.642c-.044.22-.088.573-.088 1.101 0 2.291 1.454 3.965 3.304 3.965 1.41 0 2.423-.793 2.82-1.586a.242.242 0 01.22-.132l.309.176c.088.044.132.088 0 .353-.397.925-1.63 2.511-3.701 2.511-1.322 0-2.776-.396-3.657-1.63-.793-1.19-1.013-2.027-1.013-3.657 0-.925.22-2.467 1.454-3.7 1.013-1.014 2.158-1.234 3.304-1.234 2.643 0 3.392 2.511 3.392 3.392 0 .309-.264.353-.66.353H94.71v.088zm3.7-.705c.441 0 .618-.132.618-.308 0-.53-.265-2.071-1.807-2.071-1.013 0-1.982.66-2.423 2.379h3.613zM103.435 35.642c0-1.19-.176-1.41-.837-1.762l-.44-.22c-.133-.045-.177-.089-.177-.177v-.132c0-.088.044-.132.176-.22l2.291-1.19c.133-.088.22-.088.309-.088.132 0 .176.132.176.264l.132 1.586h.088c.705-1.057 1.807-2.026 2.776-2.026.793 0 1.19.484 1.19 1.013 0 .661-.573 1.146-.97 1.146a1.46 1.46 0 01-.66-.177c-.177-.132-.485-.176-.75-.176-.352 0-.969.22-1.366.97-.132.264-.22.66-.22.748v4.89c0 .706.176.97.661.97h1.101c.133 0 .177.088.177.22v.397c0 .132-.044.22-.133.22-.132 0-1.189-.088-2.467-.088-1.454 0-2.423.088-2.555.088-.088 0-.132-.044-.132-.22v-.397c0-.176.044-.22.264-.22h.925c.353 0 .53-.132.53-.44.043-.75.043-1.587.043-2.776v-2.203h-.132zM119.031 40.533c0 .352.22.485.529.485h.749c.22 0 .264.088.264.22v.352c0 .177-.044.265-.176.265-.176 0-.881-.088-2.203-.088-1.19 0-1.939.088-2.07.088s-.177-.088-.177-.265v-.352c0-.176.088-.22.308-.22h.661c.265 0 .44-.133.485-.53.044-.616.044-1.365.044-1.938v-3.04c0-.925 0-1.586-.661-2.07-.573-.397-1.101-.397-1.674-.397-.353 0-1.19.176-1.895.881-.484.53-.528 1.146-.528 1.586v4.803c0 .616.088.749.572.749h.573c.176 0 .22.088.22.22v.396c0 .133-.044.22-.176.22-.176 0-.793-.087-2.026-.087-1.19 0-1.939.088-2.071.088s-.176-.088-.176-.22v-.397c0-.132.044-.22.22-.22h.66c.31 0 .485-.088.485-.485v-5.419c0-.705-.352-1.101-.969-1.366l-.176-.088c-.176-.088-.176-.132-.176-.22v-.132c0-.133.088-.177.22-.22l1.983-1.102c.176-.088.308-.176.396-.176.132 0 .176.088.176.264l.177 1.41h.044c.66-.837 2.026-1.674 3.172-1.674.705 0 1.41.132 1.982.528.705.485 1.278 1.63 1.278 2.203v5.948h-.044zM127.886 40.004c-1.674-1.586-2.467-4.274-2.467-6.476 0-2.16.705-4.362 2.379-6.124 1.19-1.234 3.26-2.335 5.815-2.335 2.115 0 3.833.793 4.67 1.277.309.176.397.176.485 0l.176-.66c.045-.133.089-.133.309-.133s.264.044.264.353c0 .44.485 3.833.573 4.493.044.133 0 .22-.088.22l-.353.089c-.132.044-.176 0-.22-.176-.308-.75-.837-1.895-1.806-2.864-.97-1.013-2.203-1.762-4.054-1.762-4.14 0-5.815 3.7-5.771 7.049 0 1.322.396 3.965 2.203 5.948 1.586 1.762 2.908 1.938 4.45 1.938 2.6 0 4.67-1.454 5.727-2.952.088-.132.132-.132.176-.088l.309.22c.088.044.132.088.044.22-1.41 2.027-3.657 3.878-6.917 3.878-2.776.044-4.494-.837-5.904-2.115M148.15 39.035c0 1.322.264 1.718.705 1.718.352 0 .705-.176.793-.352.088-.133.132-.177.22-.088l.22.176c.089.088.133.176-.044.396-.176.353-.616 1.146-1.806 1.146-.837 0-1.454-.617-1.63-1.542h-.044c-.485.573-1.234 1.057-2.291 1.41-.44.132-.837.132-1.366.132-.573 0-1.41-.485-1.41-1.939 0-1.057.485-1.982 2.335-2.82 1.058-.484 2.247-1.013 2.6-1.321v-1.498c-.044-.397-.088-1.013-.309-1.278-.264-.308-.705-.528-1.41-.528-.44 0-1.189.176-1.497.484-.309.309-.132.661-.132 1.058 0 .793-.265 1.321-1.234 1.321-.353 0-.573-.22-.573-.749 0-.749.661-1.63 1.586-2.158.97-.573 1.763-.794 2.82-.794 1.101 0 1.542.309 1.85.617.485.485.53 1.014.53 1.63v4.979h.087zm-1.718-2.335c-.837.617-3.084 1.101-3.084 2.996 0 .88.528 1.278 1.19 1.278s1.894-.794 1.894-1.454V36.7zM153.97 34.893c0 1.19 0 4.714.044 5.419.044.396.132.705.617.705h1.057c.22 0 .265.088.265.22v.397c0 .132-.044.22-.133.22-.176 0-1.19-.088-2.599-.088-1.498 0-2.423.088-2.6.088-.132 0-.176-.088-.176-.22v-.397c0-.176.044-.22.309-.22h1.101c.265 0 .485-.176.529-.573.044-.705.044-4.714.044-6.036v-1.454c0-1.63-.044-3.745-.088-4.361-.044-.793-.397-1.146-1.146-1.41l-.484-.176c-.132-.044-.132-.088-.132-.133v-.176c0-.088.088-.132.22-.176.793-.352 1.85-.793 2.731-1.366.22-.132.353-.176.485-.176.176 0 .22.132.176.397-.044 1.277-.088 6.08-.088 7.357v2.159h-.132zM158.2 35.07c0-.793-.132-1.19-1.278-1.41-.176-.044-.22-.088-.22-.176v-.22c0-.089.044-.133.176-.177.75-.264 1.63-.66 2.512-1.145.176-.088.308-.132.44-.132s.132.132.132.264c-.044.397-.044 1.85-.044 3.789v4.494c.044.44.132.617.353.617h1.057c.176 0 .22.088.22.22v.396c0 .177-.044.22-.22.22s-1.234-.087-2.247-.087c-1.366 0-2.247.088-2.511.088-.132 0-.176-.044-.176-.177v-.484c0-.132.088-.176.22-.176h1.145c.265 0 .353-.088.353-.44.044-.706.044-1.41.044-2.116V35.07h.044zm-1.013-7.093c0-.573.484-1.19 1.41-1.19.793 0 1.189.617 1.189 1.146 0 .617-.397 1.277-1.366 1.277-.484 0-1.233-.484-1.233-1.233M164.06 33.263h-1.586c-.132 0-.176-.044-.132-.264l.088-.705c0-.133.088-.177.264-.177h1.366v-.44c0-2.291.66-3.79 1.542-4.802 1.234-1.322 2.511-1.85 3.789-1.85 1.101 0 2.115.396 2.115 1.277 0 .573-.617 1.013-.97 1.013-.22 0-.484-.044-.66-.132a2.256 2.256 0 01-.573-.529c-.309-.352-.617-.528-1.058-.528-.616 0-1.233.176-1.718.793-.837 1.101-.793 3.084-.793 4.714v.484h2.82c.176 0 .176.133.176.22l-.132.75c-.044.088-.132.132-.309.132h-2.555v2.07c0 2.732 0 4.847.044 5.111.044.397.132.617.617.617h1.322c.22 0 .264.044.264.176v.353c0 .176-.044.264-.176.264s-1.013-.088-2.776-.088c-1.277 0-2.467.088-2.643.088-.132 0-.176-.044-.176-.176v-.529c0-.132.044-.176.22-.176h1.101c.44 0 .529-.264.573-.793v-6.873h-.044z"/>
    <path d="M169.56 40.489c-1.057-1.278-1.278-2.115-1.278-3.789 0-1.19.617-2.643 1.983-3.745 1.19-.925 2.335-1.101 3.084-1.101 1.278 0 2.555.66 3.26 1.366 1.057 1.057 1.586 2.29 1.586 3.788 0 2.512-2.29 5.111-5.11 5.111-1.102-.044-2.556-.485-3.525-1.63m6.697-3.745c0-2.555-1.895-4.185-3.04-4.185-.617 0-1.234.132-1.807.749-.925.925-1.233 1.894-1.233 3.656 0 1.278.132 2.16.881 3.26.529.75 1.19 1.19 2.291 1.19 1.762-.044 2.908-2.203 2.908-4.67M180.05 35.642c0-1.19-.176-1.41-.837-1.762l-.44-.22c-.133-.045-.177-.089-.177-.177v-.132c0-.088.044-.132.176-.22l2.291-1.19c.133-.088.22-.088.309-.088.132 0 .176.132.176.264l.132 1.586h.088c.705-1.057 1.807-2.026 2.776-2.026.793 0 1.19.484 1.19 1.013 0 .661-.573 1.146-.97 1.146a1.46 1.46 0 01-.66-.177c-.177-.132-.485-.176-.75-.176-.352 0-.969.22-1.366.97-.132.264-.22.66-.22.748v4.89c0 .706.176.97.661.97h1.101c.133 0 .177.088.177.22v.397c0 .132-.044.22-.133.22-.132 0-1.189-.088-2.467-.088-1.454 0-2.423.088-2.555.088-.088 0-.132-.044-.132-.22v-.397c0-.176.044-.22.264-.22h.925c.353 0 .53-.132.53-.44.043-.75.043-1.587.043-2.776v-2.203h-.132zM195.6 40.533c0 .352.22.485.529.485h.749c.22 0 .264.088.264.22v.352c0 .177-.044.265-.176.265-.176 0-.881-.088-2.203-.088-1.19 0-1.939.088-2.07.088-.133 0-.177-.088-.177-.265v-.352c0-.176.088-.22.308-.22h.661c.265 0 .44-.133.485-.53.044-.616.044-1.365.044-1.938v-3.04c0-.925 0-1.586-.661-2.07-.573-.397-1.101-.397-1.674-.397-.353 0-1.19.176-1.895.881-.484.53-.528 1.146-.528 1.586v4.803c0 .616.088.749.572.749h.573c.176 0 .22.088.22.22v.396c0 .133-.044.22-.176.22-.176 0-.793-.087-2.026-.087-1.19 0-1.939.088-2.071.088s-.176-.088-.176-.22v-.397c0-.132.044-.22.22-.22h.66c.31 0 .485-.088.485-.485v-5.419c0-.705-.352-1.101-.969-1.366l-.176-.088c-.176-.088-.176-.132-.176-.22v-.132c0-.133.088-.177.22-.22l1.983-1.102c.176-.088.308-.176.44-.176s.176.088.176.264l.177 1.41h.044c.66-.837 2.026-1.674 3.172-1.674.705 0 1.41.132 1.982.528.705.485 1.278 1.63 1.278 2.203v5.948h-.088zM199.44 35.07c0-.793-.132-1.19-1.278-1.41-.176-.044-.22-.088-.22-.176v-.22c0-.089.044-.133.176-.177.75-.264 1.63-.66 2.512-1.145.176-.088.308-.132.44-.132s.132.132.132.264c-.044.397-.044 1.85-.044 3.789v2.511c0 .925 0 1.718.044 1.983.044.44.132.617.353.617h1.057c.176 0 .22.088.22.22v.396c0 .177-.044.22-.22.22s-1.233-.087-2.247-.087c-1.321 0-2.247.088-2.511.088-.132 0-.176-.044-.176-.177v-.484c0-.132.088-.176.22-.176h1.145c.265 0 .353-.088.353-.44.044-.706.044-1.41.044-2.116V35.07zm-1.013-7.093c0-.573.484-1.19 1.41-1.19.793 0 1.189.617 1.189 1.146 0 .617-.397 1.277-1.366 1.277-.484 0-1.233-.484-1.233-1.233M210.14 39.035c0 1.322.264 1.718.705 1.718.352 0 .705-.176.793-.352.088-.133.132-.177.22-.088l.22.176c.089.088.133.176-.044.396-.176.353-.616 1.146-1.806 1.146-.837 0-1.454-.617-1.63-1.542-.485.573-1.234 1.057-2.29 1.41-.441.132-.838.132-1.367.132-.572 0-1.41-.485-1.41-1.939 0-1.057.485-1.982 2.335-2.82 1.058-.484 2.247-1.013 2.6-1.321v-1.498c-.044-.397-.088-1.013-.309-1.278-.264-.308-.704-.528-1.41-.528-.484 0-1.189.176-1.497.484-.309.309-.132.661-.132 1.058 0 .793-.265 1.321-1.234 1.321-.352 0-.573-.22-.573-.749 0-.749.661-1.63 1.586-2.158.97-.573 1.763-.794 2.82-.794 1.101 0 1.542.309 1.85.617.485.485.53 1.014.53 1.63v4.979h.043zm-1.718-2.335c-.837.617-3.084 1.101-3.084 2.996 0 .88.528 1.278 1.19 1.278s1.894-.794 1.894-1.454V36.7z"/>
  </g>
</svg>