<?xml version="1.0" encoding="utf-8"?>
<svg xmlns="http://www.w3.org/2000/svg" fill="none" height="24" viewBox="0 0 195 24" width="195">
<g clip-path="url(#clip0_414_2)">
<path d="M45.4712 8.86061H29.0408L28.4539 9.33011V23.9413H32.9723V18.4254L33.383 18.0147H45.471C48.5223 18.0147 49.9307 17.1933 49.9307 15.0808V11.7361C49.9308 9.68213 48.5224 8.86061 45.4712 8.86061ZM45.4712 14.2591C45.4712 15.2566 44.8256 15.4326 43.3586 15.4326H33.4418L32.9723 15.0219V11.9119L33.383 11.5012H43.3585C44.7669 11.5012 45.4709 11.6772 45.4709 12.6747L45.4712 14.2591ZM58.2633 11.6185L62.1948 17.3691L61.9601 17.8972H53.2755L51.0457 20.6552H63.9551L64.894 21.1833L66.8892 23.9412H72.1117L60.6692 8.68457M110.077 21.0072V16.8997L110.547 16.4889H119.29V13.907H105.442V23.9412H125.862V21.3593H110.605M105.442 8.86061H126.038V11.6772H105.442V8.86061ZM82.498 11.5599H99.1043C98.8696 9.44742 97.5199 8.86061 94.2339 8.86061H82.322C78.5665 8.86061 77.3929 9.56481 77.3929 12.44V20.4204C77.3929 23.2371 78.5665 24 82.322 24H94.2339C97.5786 24 98.8696 23.3544 98.9869 21.1833H82.498L82.0285 20.7138V11.9119M17.3049 14.7286H5.27558L4.92349 14.3179V11.736L5.27558 11.4426H21.5298L21.7645 10.9145C21.2364 9.50608 19.7694 8.80204 17.1288 8.80204H5.80365C2.0482 8.80204 0.874593 9.50616 0.874593 12.3814V14.0831C0.874593 16.8998 2.0482 17.6627 5.80365 17.6627H17.833L18.185 18.0146V20.7139L17.8917 21.1247H0.522494C0.522494 21.1247 0.111816 21.3593 0.111816 21.4181C0.405179 23.4132 1.75484 23.9412 4.98214 23.9412H17.305C21.0604 23.9412 22.2927 23.2371 22.2927 20.3618V18.308C22.2927 15.4914 21.0604 14.7286 17.3049 14.7286ZM139.006 8.80196H132.2L131.848 9.50607L139.358 15.022C140.767 14.2004 142.351 13.379 143.994 12.5574M145.109 19.1296L151.74 23.9412H158.547L158.84 23.2957L148.982 16.0782C147.691 17.0756 146.341 18.0733 145.109 19.1296Z" fill="#262d3d"/>
<path d="M138.009 23.9413H131.848L131.319 23.1197C135.486 19.0709 154.146 1.81907 194.693 0C194.693 0 160.718 1.17352 138.009 23.9413Z" fill="#262d3d"/>
</g>
<defs>
<clipPath id="clip0_414_2">
<rect fill="white" height="24" width="194.805"/>
</clipPath>
</defs>
</svg>