<?xml version="1.0" encoding="utf-8"?>
<svg xmlns="http://www.w3.org/2000/svg" fill="none" height="41" viewBox="0 0 107 41" width="107">
<path d="M42.7694 30.2745L45.2439 33.7932C43.6094 35.4504 37.8432 40.649 29.2167 40.649C17.0487 40.649 16.2769 31.6593 4.17706 31.6593H0.635639L0 28.0044L13.6889 14.0657H3.06469L3.88194 9.77515H21.2712L20.5221 13.7025L7.24175 27.2552C17.4347 27.2552 19.9318 36.4493 29.9204 36.4493C36.0271 36.4266 41.0214 32.1814 42.7694 30.2745Z" fill="#B6BCD0"/>
<path d="M33.6657 9.27515C26.1969 9.27515 21.0437 15.6996 21.0437 23.123C21.0437 28.3443 24.4489 32.1582 29.988 32.1582C37.4568 32.1582 42.6554 25.7791 42.6554 18.3557C42.6554 13.4976 39.568 9.27515 33.6657 9.27515ZM30.7145 28.1173C28.0584 28.1173 26.4466 26.0061 26.4466 22.9868C26.4466 18.9005 28.8757 13.316 33.0527 13.316C36.2536 13.316 37.2298 16.1083 37.2298 18.3557C37.2298 22.7144 34.6191 28.1173 30.7145 28.1173Z" fill="#B6BCD0"/>
<path d="M64.6988 15.4272C64.6988 11.795 61.9519 9.27515 57.6386 9.27515C50.0791 9.27515 45.2437 16.4715 45.2437 23.0776C45.2437 28.4351 48.1722 32.1582 54.2334 32.1582C56.8895 32.1582 59.818 31.5225 61.9746 30.4101L61.4752 26.5963C59.9088 27.4136 57.9338 28.0265 55.4593 28.0265C53.3935 28.0265 51.8271 27.2547 50.9644 25.7791C50.465 24.9164 50.2834 23.4408 50.3742 22.669C58.8191 22.8506 64.6988 21.0572 64.6988 15.4272ZM56.9803 13.1798C58.6375 13.1798 59.7726 14.0424 59.7726 15.4272V15.4726C59.7726 18.0833 56.322 18.8324 50.919 18.7643C51.532 16.1083 53.6886 13.1798 56.9803 13.1798Z" fill="#B6BCD0"/>
<path d="M100.794 13.1798C102.587 13.1798 104.085 13.7246 104.88 14.1786L106.242 10.4102C105.243 9.81998 103.359 9.27515 101.066 9.27515C95.8902 9.27515 92.2126 12.249 92.2126 16.4715C92.2126 18.9913 94.006 20.8302 96.5259 22.1695C98.6825 23.2819 99.4089 24.1446 99.4089 25.5293C99.4089 26.9595 98.1604 28.1854 96.0491 28.2308C94.0741 28.2308 91.9175 27.3682 90.7824 26.7552L89.443 30.5237C90.6008 31.3863 92.9844 32.09 95.5497 32.1355C100.816 32.1355 104.857 29.434 104.857 24.6213C104.857 21.829 102.701 20.0356 100.317 18.7416C98.4782 17.7882 97.4793 16.9482 97.4793 15.7223C97.4793 14.2695 98.8187 13.1798 100.794 13.1798Z" fill="#B6BCD0"/>
<path d="M85.4487 3.85007C85.4487 1.96585 86.8789 0.64917 88.6042 0.64917C90.216 0.64917 91.3965 1.82964 91.3965 3.48684C91.351 5.41646 89.9209 6.64234 88.1502 6.64234H88.082C86.5157 6.61964 85.4487 5.46187 85.4487 3.85007Z" fill="#B6BCD0"/>
<path d="M80.5222 31.6593H85.7435L89.9205 9.77515H84.7219L80.5222 31.6593Z" fill="#B6BCD0"/>
<path d="M74.9591 27.9588C73.4155 27.9588 72.6209 27.0053 73.0068 25.053L75.2316 13.8158H80.1351L80.9523 9.77497H76.0034L77.0931 4.16772L71.6901 5.73412L70.8729 9.77497H67.8082L67.0137 13.8158H70.0783L67.8082 25.3708C67.0137 29.5252 69.1022 32.1358 73.8922 32.1358C74.9819 32.1358 76.185 31.8861 77.3201 31.591L77.5017 27.5275C76.6391 27.7772 75.7991 27.9588 74.9591 27.9588Z" fill="#B6BCD0"/>
</svg>