<?xml version="1.0" encoding="utf-8"?>
<svg xmlns="http://www.w3.org/2000/svg" id="Layer_2" viewBox="0 0 187.56 40">
  <defs>
    <style>.cls-1{fill:#B6BCD0;}</style>
  </defs>
  <g id="M">
    <g id="Microsoft">
      <path class="cls-1" d="m78,8v24h-4.17V13.17h-.06l-7.44,18.83h-2.78l-7.61-18.83h-.06v18.83h-3.83V8h6l6.89,17.78h.11l7.28-17.78h5.67Zm3.44,1.83c0-.67.22-1.22.72-1.67.5-.44,1.06-.67,1.72-.67.72,0,1.33.22,1.78.67s.72,1,.72,1.67-.22,1.22-.72,1.67c-.5.44-1.06.67-1.78.67s-1.28-.22-1.72-.67c-.44-.5-.72-1.06-.72-1.67Zm4.5,4.94v17.22h-4.06V14.78h4.06Zm12.28,14.28c.61,0,1.28-.11,2-.44.72-.28,1.39-.67,2-1.11v3.78c-.67.39-1.39.67-2.22.83s-1.72.28-2.72.28c-2.56,0-4.61-.78-6.17-2.39-1.61-1.61-2.39-3.67-2.39-6.11,0-2.78.83-5.06,2.44-6.83,1.61-1.78,3.89-2.67,6.89-2.67.78,0,1.56.11,2.28.28.78.17,1.39.44,1.83.67v3.89c-.61-.44-1.28-.83-1.89-1.06-.67-.22-1.33-.39-2-.39-1.61,0-2.89.5-3.89,1.56s-1.44,2.44-1.44,4.22.5,3.11,1.44,4.06c.94.94,2.22,1.44,3.83,1.44Zm15.5-14.56c.33,0,.61,0,.89.06s.5.11.67.17v4.11c-.22-.17-.5-.33-.94-.44s-.89-.22-1.5-.22c-1,0-1.83.44-2.5,1.28-.67.83-1.06,2.11-1.06,3.89v8.67h-4.06V14.78h4.06v2.72h.06c.39-.94.94-1.67,1.67-2.22.78-.5,1.67-.78,2.72-.78Zm1.78,9.17c0-2.83.83-5.11,2.39-6.78,1.61-1.67,3.83-2.5,6.67-2.5,2.67,0,4.78.78,6.28,2.39,1.5,1.61,2.28,3.78,2.28,6.5s-.83,5-2.39,6.67c-1.61,1.67-3.78,2.5-6.56,2.5s-4.78-.78-6.33-2.33c-1.56-1.61-2.33-3.78-2.33-6.44Zm4.22-.17c0,1.78.39,3.17,1.22,4.11s2,1.44,3.5,1.44,2.61-.44,3.39-1.44c.78-.94,1.17-2.33,1.17-4.22s-.39-3.22-1.17-4.22c-.78-.94-1.94-1.44-3.33-1.44-1.5,0-2.61.5-3.44,1.5-.94,1.06-1.33,2.44-1.33,4.28Zm19.44-4.17c0,.56.17,1.06.56,1.39s1.17.72,2.44,1.22c1.61.67,2.78,1.39,3.39,2.17.67.83,1,1.78,1,2.94,0,1.61-.61,2.89-1.89,3.89-1.22,1-2.94,1.44-5.06,1.44-.72,0-1.5-.11-2.39-.28s-1.61-.39-2.22-.67v-4c.72.5,1.56.94,2.39,1.22.83.28,1.61.44,2.33.44.89,0,1.61-.11,2-.39.44-.28.67-.67.67-1.28,0-.56-.22-1-.67-1.44-.44-.39-1.33-.83-2.56-1.33-1.5-.61-2.56-1.33-3.17-2.11s-.94-1.78-.94-3c0-1.56.61-2.83,1.83-3.83s2.83-1.5,4.78-1.5c.61,0,1.28.06,2,.22s1.39.33,1.89.5v3.94c-.56-.33-1.17-.67-1.89-.94s-1.44-.39-2.11-.39c-.78,0-1.39.17-1.78.44-.39.39-.61.78-.61,1.33Zm9.11,4.33c0-2.83.83-5.11,2.39-6.78,1.61-1.67,3.83-2.5,6.67-2.5,2.67,0,4.78.78,6.28,2.39,1.5,1.61,2.28,3.78,2.28,6.5s-.83,5-2.39,6.67c-1.61,1.67-3.78,2.5-6.56,2.5s-4.78-.78-6.33-2.33c-1.5-1.61-2.33-3.78-2.33-6.44Zm4.22-.17c0,1.78.39,3.17,1.22,4.11.83.94,2,1.44,3.5,1.44s2.61-.44,3.39-1.44c.78-.94,1.17-2.33,1.17-4.22s-.39-3.22-1.17-4.22c-.78-.94-1.94-1.44-3.33-1.44-1.5,0-2.61.5-3.44,1.5-.89,1.06-1.33,2.44-1.33,4.28Zm26.89-5.39h-6.06v13.89h-4.11v-13.89h-2.89v-3.33h2.89v-2.39c0-1.78.61-3.28,1.78-4.44,1.17-1.17,2.67-1.72,4.5-1.72.5,0,.94.06,1.33.06s.72.11,1,.22v3.5c-.11-.06-.39-.17-.72-.28-.33-.11-.72-.17-1.17-.17-.83,0-1.5.28-1.94.78s-.67,1.33-.67,2.33v2.06h6.06v-3.89l4.06-1.22v5.11h4.11v3.33h-4.11v8.06c0,1.06.22,1.78.56,2.22.39.44,1,.67,1.83.67.22,0,.5-.06.83-.17s.61-.22.83-.39v3.33c-.28.17-.67.28-1.28.39-.61.11-1.17.17-1.78.17-1.72,0-3-.44-3.83-1.33-.83-.89-1.28-2.28-1.28-4.11l.06-8.78h0Z"/>
      <rect class="cls-1" height="19" width="19" y="0"/>
      <rect class="cls-1" height="19" width="19" x="21" y="0"/>
      <rect class="cls-1" height="19" width="19" y="21"/>
      <rect class="cls-1" height="19" width="19" x="21" y="21"/>
    </g>
  </g>
</svg>