<?xml version="1.0" encoding="utf-8"?>
<svg xmlns="http://www.w3.org/2000/svg" id="Layer_2" viewBox="0 0 126.66 40">
  <defs>
    <style>.cls-1{fill:#262D3D;}</style>
  </defs>
  <g id="G">
    <g id="Google">
      <g id="g9417">
        <path class="cls-1" d="m15.76,31.04C7.21,31.04,0,24.09,0,15.52S7.21,0,15.76,0c4.74,0,8.13,1.84,10.66,4.28l-3.01,2.96c-1.82-1.72-4.28-3.04-7.65-3.04-6.24,0-11.13,5.05-11.13,11.29s4.9,11.29,11.13,11.29c4.06,0,6.37-1.63,7.84-3.09,1.21-1.21,2.02-2.96,2.33-5.35h-9.59v-4.23h13.7c.14.76.24,1.67.24,2.65,0,3.18-.88,7.12-3.67,9.91-2.74,2.87-6.22,4.39-10.85,4.39h0Z" id="path9357"/>
        <path class="cls-1" d="m42.36,11.01c-5.54,0-10.03,4.22-10.03,10.01s4.52,10.01,10.03,10.01,10.03-4.26,10.03-10.01-4.49-10.01-10.03-10.01Zm0,3.96c3.03,0,5.63,2.45,5.63,6.06s-2.6,6.05-5.63,6.05-5.62-2.5-5.62-6.05,2.6-6.06,5.62-6.06Z" id="path9355"/>
        <path class="cls-1" d="m64.84,11.01c-5.52,0-10.03,4.22-10.03,10.01s4.53,10.01,10.03,10.01,10.05-4.26,10.05-10.01-4.5-10.01-10.05-10.01Zm0,3.96c3.03,0,5.64,2.45,5.64,6.06s-2.62,6.05-5.64,6.05-5.63-2.5-5.63-6.05,2.6-6.06,5.63-6.06Z" id="path9351"/>
        <path class="cls-1" d="m86.8,11.05c-5,0-9.59,4.41-9.59,10.03s4.59,9.96,9.59,9.96c2.36,0,4.27-1.07,5.25-2.28h.13v1.43c0,3.82-2.05,5.86-5.34,5.86-2.7,0-4.35-1.92-5.05-3.55l-3.82,1.58c1.1,2.65,4.01,5.92,8.87,5.92,5.15,0,9.5-3.03,9.5-10.4V11.63h-4.17v1.63h-.13c-.97-1.16-2.86-2.21-5.25-2.21Zm.36,3.93c3.01,0,5.34,2.57,5.34,6.11s-2.33,6-5.34,6-5.56-2.53-5.56-6,2.53-6.11,5.56-6.11Z" id="path9347"/>
        <path class="cls-1" d="m104.83,2.02v28.41h-4.4V2.02h4.4Z" id="path9343"/>
        <path class="cls-1" d="m117.65,11c-5.15,0-9.43,4.06-9.43,10.01,0,5.61,4.23,10,9.91,10,4.59,0,7.24-2.79,8.33-4.42l-3.42-2.28c-1.12,1.68-2.63,2.75-4.9,2.75s-3.82-1.02-4.84-3.02l13.36-5.55-.44-1.13c-.85-2.24-3.38-6.36-8.57-6.36Zm.12,3.88c1.75,0,3.21.89,3.72,2.13l-8.96,3.72c-.08-3.86,3.01-5.81,5.24-5.85Z" id="path9341"/>
      </g>
    </g>
  </g>
</svg>