<?xml version="1.0" encoding="utf-8"?>
<svg xmlns="http://www.w3.org/2000/svg" fill="none" height="22" viewBox="0 0 158 22" width="158">
<path d="M16.1333 6.18934C16.1333 8.74134 14.696 10.0613 13.1707 10.8533C15.6053 11.6747 17.3067 13.0827 17.3067 15.928C17.3067 19.6533 14.256 21.648 9.62133 21.648H0V0.880005H9.29867C13.4933 0.880005 16.1333 2.93334 16.1333 6.18934ZM12.496 6.77601C12.496 5.07467 11.176 4.10667 8.85867 4.10667H3.608V9.62134H8.59467C10.912 9.62134 12.496 8.71201 12.496 6.77601ZM13.6693 15.5467C13.6693 13.7573 12.2613 12.7307 9.38667 12.7307H3.608V18.4213H9.65067C12.144 18.4213 13.6693 17.424 13.6693 15.5467Z" fill="#262d3d"/>
<path d="M23.3199 0H19.7412V21.648H23.3199V0Z" fill="#262d3d"/>
<path d="M36.1092 21.648V19.712C35.0532 20.9733 33.4105 21.9706 31.0345 21.9706C28.0718 21.9706 25.4612 20.2693 25.4612 17.1306V17.072C25.4612 13.6986 28.1598 12.0266 31.7972 12.0266C33.7038 12.0266 34.9065 12.2906 36.1385 12.672V12.2906C36.1385 10.12 34.7598 8.94664 32.2958 8.94664C30.5358 8.94664 29.2452 9.32797 27.8078 9.91464L26.8398 7.03997C28.5705 6.2773 30.2425 5.71997 32.7945 5.71997C37.4292 5.71997 39.6879 8.15464 39.6879 12.3493V21.6186H36.1092V21.648ZM36.1972 14.9893C35.2878 14.6373 33.9972 14.3733 32.6185 14.3733C30.3598 14.3733 29.0398 15.2826 29.0398 16.896V16.9546C29.0398 18.4506 30.3598 19.272 32.0612 19.272C34.4372 19.272 36.2265 17.952 36.2265 15.9866V14.9893H36.1972Z" fill="#262d3d"/>
<path d="M49.6907 22C45.0267 22 41.5947 18.3627 41.5947 13.8747C41.5947 9.38671 45.0267 5.66138 49.7201 5.66138C52.6827 5.66138 54.5307 6.74671 55.9681 8.36004L53.7387 10.7654C52.6534 9.62138 51.4801 8.80004 49.6614 8.80004C47.0507 8.80004 45.1441 11.0587 45.1441 13.816C45.1441 16.632 47.0801 18.8907 49.8374 18.8907C51.5387 18.8907 52.7707 18.0987 53.8854 16.9254L56.0561 19.0667C54.5601 20.7974 52.7414 22 49.6907 22Z" fill="#262d3d"/>
<path d="M72.5414 21.648H68.4054L63.6827 14.872L61.4827 17.16V21.648H57.9041V0H61.4827V12.936L67.9947 5.984H72.3361L66.1174 12.3787L72.5414 21.648Z" fill="#262d3d"/>
<path d="M83.3946 21.9707C80.8133 21.9707 79.1706 20.6507 78.0853 19.2133V21.648H74.5066V0H78.0853V8.59467C79.2293 6.952 80.8719 5.66133 83.3946 5.66133C87.0906 5.66133 90.6986 8.59467 90.6986 13.816C90.6693 19.0373 87.1199 21.9707 83.3946 21.9707ZM82.5439 8.77067C80.1093 8.77067 77.9679 10.7653 77.9679 13.816C77.9679 16.8667 80.1093 18.8613 82.5439 18.8613C85.0079 18.8613 87.0319 16.9253 87.0319 13.816C87.0319 10.736 84.9786 8.77067 82.5439 8.77067Z" fill="#262d3d"/>
<path d="M100.32 22C95.5386 22 92.0186 18.3627 92.0186 13.8747C92.0186 9.35738 95.5679 5.66138 100.379 5.66138C105.189 5.66138 108.709 9.29871 108.709 13.816C108.709 18.304 105.16 22 100.32 22ZM100.32 8.80004C97.4452 8.80004 95.5972 11.0587 95.5972 13.816C95.5972 16.6027 97.5919 18.8907 100.379 18.8907C103.283 18.8907 105.131 16.632 105.131 13.8747C105.131 11.088 103.136 8.80004 100.32 8.80004Z" fill="#262d3d"/>
<path d="M120.472 21.648V19.712C119.416 20.9733 117.773 21.9706 115.397 21.9706C112.435 21.9706 109.824 20.2693 109.824 17.1306V17.072C109.824 13.6986 112.523 12.0266 116.16 12.0266C118.067 12.0266 119.269 12.2906 120.501 12.672V12.2906C120.501 10.12 119.123 8.94664 116.629 8.94664C114.869 8.94664 113.579 9.32797 112.141 9.91464L111.173 7.03997C112.904 6.2773 114.576 5.71997 117.128 5.71997C121.763 5.71997 124.021 8.15464 124.021 12.3493V21.6186H120.472V21.648ZM120.56 14.9893C119.651 14.6373 118.36 14.3733 116.981 14.3733C114.723 14.3733 113.403 15.2826 113.403 16.896V16.9546C113.403 18.4506 114.752 19.272 116.424 19.272C118.8 19.272 120.589 17.952 120.589 15.9866V14.9893H120.56Z" fill="#262d3d"/>
<path d="M130.387 21.648H126.808V5.98401H130.387V9.50401C131.355 7.15735 133.173 5.57334 135.931 5.69068V9.47468H135.725C132.587 9.47468 130.387 11.528 130.387 15.664V21.648Z" fill="#262d3d"/>
<path d="M148.925 21.648V19.0373C147.781 20.68 146.139 21.9707 143.587 21.9707C139.92 21.9707 136.312 19.0373 136.312 13.816C136.312 8.59467 139.832 5.66133 143.587 5.66133C146.168 5.66133 147.811 6.98133 148.925 8.41867V0H152.504V21.648H148.925ZM144.467 8.77067C142.003 8.77067 139.949 10.6773 139.949 13.816C139.949 16.896 142.032 18.8613 144.467 18.8613C146.872 18.8613 149.013 16.8667 149.013 13.816C148.984 10.7653 146.872 8.77067 144.467 8.77067Z" fill="#262d3d"/>
<path d="M155.32 1.43733H155.496C155.672 1.43733 155.848 1.37867 155.848 1.20267C155.848 1.056 155.76 0.968001 155.525 0.968001C155.437 0.968001 155.379 0.968 155.349 0.997334V1.43733H155.32ZM155.32 2.288H154.968V0.762668C155.115 0.733335 155.291 0.704 155.555 0.704C155.848 0.704 155.965 0.762668 156.083 0.821334C156.171 0.880001 156.229 0.997334 156.229 1.144C156.229 1.32 156.083 1.43734 155.907 1.496V1.55467C156.053 1.61333 156.112 1.73067 156.171 1.936C156.229 2.17067 156.259 2.25867 156.288 2.31733H155.907C155.848 2.25867 155.819 2.14134 155.789 1.936C155.76 1.78934 155.672 1.70133 155.467 1.70133H155.291V2.288H155.32ZM154.381 1.496C154.381 2.17067 154.88 2.69867 155.555 2.69867C156.2 2.69867 156.699 2.17067 156.699 1.496C156.699 0.821335 156.2 0.293333 155.525 0.293333C154.88 0.293333 154.381 0.850668 154.381 1.496ZM157.08 1.496C157.08 2.34667 156.405 3.02133 155.525 3.02133C154.675 3.02133 153.971 2.34667 153.971 1.496C153.971 0.645335 154.675 0 155.525 0C156.405 0 157.08 0.645335 157.08 1.496Z" fill="black"/>
</svg>