<?xml version="1.0" encoding="utf-8"?>
<svg xmlns="http://www.w3.org/2000/svg" height="18" viewBox="0 0 144 18" width="144">
  <g fill="#fff" fill-rule="evenodd" transform="translate(.305099 .310042)">
    <path d="m63.4063705 9.88525049-1.3621417 4.90248711c-.2863655.0266671-.6456834.0682679-1.2042595.0682679-2.6731079 0-2.3758539-.7882807-1.2478133-5.06142329 1.1726831-4.44061221 1.8542984-5.25129328 3.5234936-5.25129328 1.6049536 0 1.6180197 1.0602855 1.2097038 2.40110932h4.0744479c.6609272-2.50351114.2188573-4.72115053-4.5448277-4.72115053-5.3059285 0-6.7464669 1.09548613-8.4559493 7.57133449-1.5918874 6.03104049-1.0692431 7.63106889 4.6656893 7.63106889 2.7188392 0 3.8577682-.1962701 5.5138973-.4906754l1.9185401-7.04972521z"/>
    <path d="m73.1253768 14.7216031c-.531355 0-.7164582-.1578695-.6162847-.5792103l.9244271-3.5467297h5.4507445l.6151959-2.327508h-5.4529222l.6184624-2.36484201c.1633264-.61761097.6119294-1.14348698 1.4895363-1.14348698h4.3651687l.6151959-2.3285747h-6.3435952c-2.630643 0-3.4211425.46080819-4.4435654 4.3382104l-1.884786 7.09239269c-.5781752 2.3797756.1437272 3.4155273 2.1286867 3.4155273h5.4736102c1.0779539 0 1.7715464-.5610766 2.105821-1.4218919l.4496918-1.1338868z"/>
    <path d="m135.477931 14.7216031c-.530267 0-.716459-.1578695-.616285-.5792103l.924427-3.5467297h5.451833l.615196-2.327508h-5.451833l.618462-2.36484201c.163327-.61761097.61193-1.14348698 1.489536-1.14348698h4.36408l.615196-2.3285747h-6.342506c-2.631732 0-3.42332.46080819-4.446832 4.3382104l-1.881519 7.09239269c-.578176 2.3797756.143727 3.4155273 2.127597 3.4155273h5.474699c1.077954 0 1.770458-.5610766 2.104733-1.4218919l.449691-1.1338868z"/>
    <path d="m45.6985284 14.7408034h-1.1193299l2.6349984-9.97777723c.3386299-.00106669.4660245-.0149336 1.304433-.0149336 2.3660543 0 2.3627878.76694696 1.2336583 5.0422229-1.1400178 4.32754353-1.8042116 4.95048793-4.0537598 4.95048793zm3.4973614-12.30955199h-5.4572775l-3.8011485 14.40025579c-.0642417.2464044.082752.4458746.3288304.4458746h4.8595031c6.1051388 0 7.1330059-1.143487 8.8076453-7.48706633 1.4546933-5.51156457.5585761-7.35906406-4.7375528-7.35906406z"/>
    <path d="m125.529179 2.4024509c-3.143488 0-4.604715.06613451-5.462722.02880051l-3.802238 14.40025579c-.06533.2464044.080575.4458746.326653.4458746h3.646533l3.302459-12.51435563c.337541-.00106669.849297-.02880051 1.367586-.02880051 1.770457 0 2.003469.61654428 1.536356 2.38617572l-2.564224 9.71110582c-.06533.2464044.081664.4458746.327742.4458746h3.646533l2.681818-10.15698042c.926605-3.51792916-.650038-4.71795048-5.006496-4.71795048"/>
    <path d="m93.9494856 2.43125141-.6293508 2.41177618h4.0504933c.0402871 0 .041376.05013422.0043553.07786805-.6467723.47574178-1.042022 1.15628721-1.2293029 1.86669983l-2.6567752 10.04391173c-.0653305.2464044.082752.4458746.3277415.4458746h3.9143881l3.2883041-12.43435421h2.005647c1.125863 0 1.810745-.46187487 2.19184-1.42509198l.383272-.9866842z"/>
    <path d="m37.1837817 17.2773818 3.8022373-14.4002558c.0653305-.24640438-.0816632-.44587459-.3277416-.44587459h-3.8545017l-3.8022372 14.40025579c-.0642417.2464044.0816631.4458746.3277415.4458746z"/>
    <path d="m108.49533 14.9893412c-1.74977 0-2.008914-.6250778-.788322-5.25342669 1.016979-3.85073507 1.986048-5.19262558 3.546359-5.19262558 1.748681 0 1.942495.92161637.813365 5.19262558-1.116063 4.23154179-2.21906 5.25342669-3.571402 5.25342669zm3.368878-12.76289342c-4.58947 0-6.579874.80001421-8.382997 7.62893551-1.560311 5.91583841-.309231 7.62786881 4.355369 7.62786881 4.748441 0 6.624517-.956817 8.384086-7.62786881 1.275034-4.82888577 1.01589-7.62893551-4.356458-7.62893551z"/>
    <path d="m2.65332616 9.96525191 2.37367619-8.15587821c.22974573-.83841489 1.17703852-1.60322848 2.13304205-1.60322848h7.2593115c.1219504 0 .1600599.15466942.0664194.21760387-3.7750162 2.53124496-8.32637697 6.28597833-11.62665795 9.64710471-.08601854.0885349-.2395453.0181336-.20579119-.10560189"/>
    <path d="m8.3882585 14.8624056 2.3497217-8.04920968c.0348429-.12266884-.0990847-.21120375-.1992582-.12693559-3.45707425 2.91205173-7.62734022 7.16706067-10.23620634 10.38418447-.06641938.0821348-.03266527.206937.08166317.206937h10.16869817c4.2878609 0 6.634316-1.3013564 7.4847019-4.410745.6935925-2.5333784-.6609273-4.26034236-2.8244569-4.70515026-.0381095-.00853349-.0729525-.08000142 0-.09280165 1.8303439-.30613877 3.6748427-1.02721825 4.3335923-3.64166469.7121028-2.82991694-1.4960693-4.38087782-4.0363384-4.22087498l-3.8860781 13.32930348c-.2101466.7210794-.9973796 1.3269569-1.74432536 1.3269569z"/>
    <path d="m30.4841351 11.3242094c-.1361053-.4426745-.283099-.7658803-.4976009-1.0293516-.0283099-.034134-.034843-.0789348.0152437-.0949351 1.7421477-.52587596 2.8821656-1.60429512 3.3656116-3.43152758.6369727-2.41390954-.9178941-4.33714371-4.8431705-4.33714371h-5.834017l-3.8022373 14.40025579c-.0653305.2464044.0805743.4458746.3277415.4458746h3.645444l3.3035475-12.51435563c.3527849-.00106669.690326-.0149336 1.5298234-.0149336 1.4056954 0 1.9250732.85014844 1.622375 1.99576879-.3996051 1.51149351-1.5940651 2.35950858-3.0150043 2.35950858h-.5367992l1.5178461 7.18412766c.179659.7008124.5400658.9898842 1.3610529.9898842h3.2556385z"/>
    <path d="m80.1026782 12.2479591c-1.5439784 3.6160643.469291 5.2544934 4.5687823 5.2544934 3.7423509 0 5.8187731-.8714822 6.7094461-4.2432754.303787-1.1520205.1088843-2.3957759-.614107-3.1637895-1.4002512-1.49122653-4.0907805-1.76963148-5.0369844-2.63364683-.4812683-.43947447-.476913-1.05388538-.3364523-1.58296145.2558779-.97175059.9222494-1.50082666 2.0012921-1.50082666 1.6909721 0 1.7345258 1.01975145 1.318588 2.22937294h3.6291114c.8536523-2.52591154-.2645887-4.50781341-4.5393835-4.50781341-3.5964461 0-5.5378519 1.38455793-6.234711 4.03207162-.1916362.72747959-.1219503 1.91256731.3222973 2.6549805.98758 1.65762949 3.604068 1.86456649 5.0522283 2.85018399.6293508.4277409.64895 1.0069512.4801794 1.6426958-.3255638 1.2362886-.95927 1.8261658-2.2212383 1.8261658-1.2129703 0-1.9414058-.6912123-1.2467244-2.8576508z"/>
  </g>
</svg>