<?xml version="1.0" encoding="utf-8"?>
<svg xmlns="http://www.w3.org/2000/svg" height="28" viewBox="0 0 83 28" width="83">
  <g fill="#fff" fill-rule="evenodd" transform="translate(0 .25)">
    <path d="m48.2907694 12.9400556c1.5582761 1.0138888 2.669973 2.3655555 2.8790101 4.2488888.3694478 3.3261112-.7458822 6.5172223-4.0848856 8.3513889-1.8304713 1.0052778-3.8207946 1.4594445-5.8787474 1.6319445-1.1304209.0947222-2.270064.0813889-3.4057946.1152778-.1531448.0047222-.3065691.0005555-.4778788.0005555v-6.8511111c.1861212 0 .3515623.0066667.5167239-.0011111.9118821-.0416667 1.8257205-.0655556 2.7348081-.1433333.2853299-.0244445.5860303-.1541667.8311178-.3105556.7875219-.5027778.7316296-1.7094444-.1288317-2.0622222-.7056397-.2897222-1.4702457-.4408334-2.2133333-.6363889-2.2326161-.5875-4.496532-1.0777778-6.5690168-2.1483333-1.4383872-.7425-2.7107744-1.6886112-3.5340674-3.1058334-1.226835-2.1122222-1.2600909-4.30888887-.3817441-6.55805553 1.2899933-3.30333334 3.7950842-5.01388889 7.2576095-5.32833334 1.5680572-.14277777 3.1523232-.11 4.7329562-.11861111v-.00888889h1.0194747v7.03333334h-.1020033v.005c-.1620876 0-.3018182-.00083334-.4415489 0-.9406666.00555555-1.8816127.02111111-2.8225589.02111111-.9440202 0-1.2737845.31361111-1.3548283.69333333-.0891481.41888889-.0231952.91222222.3554748 1.16444445.332.22111111.693064.34777777 1.0722929.46222222 1.6105354.48638889 3.2375589.91833332 4.8486532 1.40222222 1.7882727.5375 3.5650876 1.1133333 5.1471179 2.1430556z"/>
    <path d="m82.4355162 27.1650278c-2.4229293-3.9577778-4.8142795-7.8636111-7.1913771-11.7466667.7766229-.3513889 1.5211077-.6652778 2.2457508-1.02 2.4206936-1.1852778 3.7039798-3.1183333 3.8057037-5.80722221.0760135-2.00638889-.3113199-3.88111111-1.6535724-5.46027778-1.1893872-1.4-2.7728148-2.12611111-4.5236397-2.54611111-1.1287441-.27111111-2.2667105-.37472222-3.4085892-.40916667l-.0122963-.01527777h-3.424798-.7405724l.0131347 5.91555555v.04333333c.8121144 0 1.5834276-.04 2.3483131.01194445.6835623.04666667 1.385569.115 2.0344781.31694444 1.0351246.32166667 1.5605118 1.16055556 1.5269764 2.19861111-.0335353 1.03611112-.5270639 1.77527776-1.6474242 2.00416666-1.378303.2813889-2.811101.3052778-3.893734.3363889-.0522593.0013889-.0994882.0038889-.1419663.0097222-.079367.0002778-.159293.0005556-.2397778.0008334v6.8211111l5.4327273 9.3780555h9.4706633l-.0187239-.0305555c.0064276-.0005556.0122963-.0011111.0187239-.0013889"/>
    <path d="m43.1398788 6.98666667h7.0485724v-6.94972223h-7.0485724z"/>
    <path d="m28.7917778 27.2897222h6.9177845v-6.8208333h-6.9177845z"/>
    <path d="m21.008362 19.1604722c-2.3947038.7472222-4.8265758 1.1333334-7.3319462.675-1.4847778-.2716666-2.8295454-.8458333-3.86746462-1.9738889-2.01016498-2.1836111-2.06857239-6.1047222-.12967004-8.49611108 1.08682496-1.34027778 2.48524916-2.15277778 4.28022896-2.35083333 0-.05027778.0002795-.09944445.0005589-.14861111l.0167677.14861111v-7.00611111h-.5287407c-.1145792-.0025-.260458.00472222-.4468586.01416666-2.1929327.1125-4.25060609.71166667-6.12886535 1.82861112-4.10472727 2.44111111-6.44409764 6.03888888-6.82081144 10.78888884-.37336027 4.705 1.27825589 8.6177778 5.01325589 11.5772223 2.70322895 2.1419444 5.8695253 3.0480555 9.2820269 3.1766666 2.6655017.1005556 5.2488418-.3719444 7.7821583-1.1677777.04667-.0147223.086633-.0311112.1215656-.0491667l.2450876-.0827778v-7.4572222l-.2450876.1025c-.4141616.1408333-.8249697.2905555-1.2422053.4208333"/>
    <path d="m15.5176465 7.06277778h7.0555589v-7.06277778h-7.0555589z"/>
    <path d="m54.8484121 6.26280556h2.9460808v21.02694444h8.1530034v-27.07638889h-11.0990842z"/>
  </g>
</svg>