<?xml version="1.0" encoding="utf-8"?>
<svg xmlns="http://www.w3.org/2000/svg" fill="none" height="40" viewBox="0 0 106 40" width="106">
<path d="M43.5467 30.8749L44.5467 32.2499C44.9217 32.7499 44.7967 33.4999 44.4217 33.8749C42.0467 35.9999 36.7967 39.9999 29.1718 39.9999C17.0468 39.9999 16.1718 30.9999 4.17186 30.9999H1.67187C1.04687 30.9999 0.546873 30.4999 0.421874 29.9999L0.0468748 27.9999C-0.0781247 27.6249 0.0468748 27.2499 0.421874 26.8749L11.5468 15.625C12.2968 14.875 11.7968 13.5 10.6718 13.5H4.54686C3.79686 13.5 3.17186 12.75 3.29686 12L3.67186 10.25C3.79686 9.625 4.29686 9.25 4.92186 9.25H19.7968C20.5468 9.25 21.1718 10 21.0468 10.75L20.6718 12.75C20.6718 13 20.5468 13.25 20.2968 13.375L9.17184 24.7499C8.29685 25.4999 8.67184 26.6249 9.67184 26.8749C17.7968 28.2499 20.6718 35.8749 29.7968 35.8749C34.9218 35.8749 39.2967 32.7499 41.6717 30.7499C42.2967 30.1249 43.1717 30.2499 43.5467 30.8749Z" fill="white"/>
<path d="M33.5468 8.62476C26.0469 8.62476 20.9219 14.9997 20.9219 22.4997C20.9219 27.7497 24.2969 31.4997 29.9218 31.4997C37.4218 31.4997 42.5468 25.1247 42.5468 17.7497C42.5468 12.8747 39.5468 8.62476 33.5468 8.62476ZM30.6718 27.4997C28.0469 27.4997 26.4219 25.3747 26.4219 22.3747C26.4219 18.2497 28.7968 12.7497 33.0468 12.7497C36.2968 12.7497 37.1718 15.4997 37.1718 17.7497C37.1718 22.1247 34.5468 27.4997 30.6718 27.4997Z" fill="white"/>
<path d="M64.6718 14.7497C64.6718 11.1247 61.9218 8.62476 57.6718 8.62476C50.1719 8.62476 45.2969 15.8747 45.2969 22.3747C45.2969 27.7497 48.1719 31.4997 54.2968 31.4997C56.6718 31.4997 59.1718 30.9997 61.1718 30.1247C61.6718 29.8747 61.9218 29.3747 61.9218 28.8747L61.7968 27.6247C61.6718 26.8747 60.9218 26.2497 60.1718 26.6247C58.9218 27.1247 57.4218 27.3747 55.5468 27.3747C53.4218 27.3747 51.9219 26.6247 51.0469 25.1247C50.7969 24.6247 50.6719 24.1247 50.5469 23.4997C50.4219 22.7497 51.0469 21.9997 51.7969 21.9997C59.2968 21.9997 64.6718 20.1247 64.6718 14.7497ZM56.9218 12.4997C58.5468 12.4997 59.6718 13.3747 59.6718 14.7497C59.6718 16.9997 57.0468 17.8747 52.6719 17.9997C51.7969 17.9997 51.0469 16.9997 51.5469 16.2497C52.5468 14.2497 54.4218 12.4997 56.9218 12.4997Z" fill="white"/>
<path d="M100.671 12.4997C101.796 12.4997 102.796 12.7497 103.546 12.9997C104.171 13.2497 104.921 12.8747 105.171 12.2497L105.671 10.8747C105.921 10.2497 105.546 9.49975 104.921 9.24975C103.921 8.87475 102.546 8.62476 100.921 8.62476C95.7964 8.62476 92.0464 11.6247 92.0464 15.8747C92.0464 18.3747 93.7964 20.2497 96.4213 21.6247C98.5463 22.7497 99.2963 23.6247 99.2963 24.9997C99.2963 26.3747 98.0463 27.6247 95.9214 27.7497C94.5464 27.7497 93.0464 27.2497 91.7964 26.8747C91.1714 26.6247 90.4214 26.9997 90.1714 27.6247L89.6714 29.1247C89.4214 29.7497 89.7964 30.3747 90.2964 30.7497C91.5464 31.3747 93.4214 31.7497 95.4214 31.7497C100.671 31.7497 104.671 28.9997 104.671 24.2497C104.671 21.4997 102.546 19.6247 100.171 18.3747C98.2963 17.3747 97.2963 16.6247 97.2963 15.3747C97.4213 13.6247 98.7963 12.4997 100.671 12.4997Z" fill="white"/>
<path d="M85.3257 3.24999C85.3257 1.375 86.7007 0 88.4507 0C90.0757 0 91.2007 1.125 91.2007 2.87499C91.2007 4.74998 89.7007 5.99998 87.9507 5.99998C86.4507 5.99998 85.3257 4.87498 85.3257 3.24999Z" fill="white"/>
<path d="M81.9501 31.0004H84.5751C85.2001 31.0004 85.7001 30.6254 85.8251 30.0004L89.5751 10.6255C89.7001 9.87549 89.0751 9.12549 88.3251 9.12549H85.7001C85.0751 9.12549 84.5751 9.50049 84.4501 10.1255L80.7001 29.5004C80.5751 30.3754 81.2001 31.0004 81.9501 31.0004Z" fill="white"/>
<path d="M74.9208 27.3751C73.4208 27.3751 72.5458 26.3751 72.9208 24.5001L74.9208 14.2501C75.0458 13.6251 75.5458 13.2501 76.1708 13.2501H79.0457C79.6707 13.2501 80.1707 12.8751 80.2957 12.2501L80.5457 10.6251C80.6707 9.87512 80.0457 9.12512 79.2957 9.12512H77.4208C76.6708 9.12512 76.0458 8.37513 76.1708 7.62513L76.6708 5.62514C76.7958 4.75014 76.0458 3.87514 75.0458 4.12514L72.2958 4.87514C71.7958 5.00014 71.5458 5.37514 71.4208 5.87514L71.0458 8.12513C70.9208 8.75013 70.4208 9.12512 69.7958 9.12512H68.7958C68.1708 9.12512 67.6708 9.50012 67.5458 10.1251L67.2958 11.6251C67.1708 12.3751 67.7958 13.1251 68.5458 13.1251C69.2958 13.1251 69.9208 13.8751 69.7958 14.6251L67.7958 24.6251C67.0458 28.7501 69.0458 31.375 73.9208 31.375C74.6708 31.375 75.5458 31.25 76.4208 31C76.9208 30.875 77.4208 30.375 77.4208 29.8751L77.5458 28.3751C77.5458 27.6251 76.9208 27.0001 76.1708 27.1251C75.5458 27.2501 75.1708 27.3751 74.9208 27.3751Z" fill="white"/>
</svg>