<?xml version="1.0" encoding="utf-8"?>
<svg xmlns="http://www.w3.org/2000/svg" height="30" width="133">
  <path d="M15.124 0C6.771 0 0 6.703 0 14.972c0 8.268 6.771 14.971 15.124 14.971 8.353 0 15.125-6.703 15.125-14.971A14.891 14.891 0 0 0 25.82 4.384 15.199 15.199 0 0 0 15.124 0zm9.236 22.538s-.732-3.277-1.927-5.236c-.648-1.07-1.649-1.938-2.984-1.911-.94 0-1.763.528-2.773 1.937a23.163 23.163 0 0 0-1.556 2.998s-.366-.842-.793-1.676a10.129 10.129 0 0 0-.763-1.309c-1.014-1.41-1.834-1.92-2.773-1.937-1.322-.027-2.336.842-2.98 1.907-1.194 1.963-1.926 5.236-1.926 5.236H4.796l5.806-18.864 4.487 14.727.031.026.03-.026 4.488-14.727 5.81 18.855zM84.296 10.29c-3.676 0-6.656 2.95-6.656 6.59 0 3.638 2.98 6.588 6.656 6.588 3.676 0 6.656-2.95 6.656-6.589-.002-3.638-2.981-6.586-6.656-6.589zm0 10.709c-2.298-.003-4.159-1.848-4.157-4.123s1.865-4.117 4.163-4.116c2.297 0 4.16 1.845 4.16 4.12a4.098 4.098 0 0 1-1.22 2.914 4.183 4.183 0 0 1-2.946 1.205zm-10.835-2.68V12.76h3.218v-2.47H73.46V7h-2.495v11.32a5.132 5.132 0 0 0 1.535 3.647 5.238 5.238 0 0 0 3.693 1.501h.529v-2.47h-.53a2.73 2.73 0 0 1-1.928-.777 2.675 2.675 0 0 1-.804-1.902zm33.149-8.029c-3.676 0-6.656 2.95-6.656 6.59 0 3.638 2.98 6.588 6.656 6.588 3.676 0 6.656-2.95 6.656-6.589-.002-3.638-2.98-6.586-6.656-6.589zm0 10.709c-2.298 0-4.161-1.845-4.161-4.12s1.863-4.119 4.161-4.119c2.298 0 4.161 1.844 4.161 4.12 0 1.092-.438 2.14-1.219 2.912a4.183 4.183 0 0 1-2.942 1.207zm19.149-10.709c-2.94-.004-5.536 1.903-6.383 4.69a6.556 6.556 0 0 0 2.709 7.4 6.71 6.71 0 0 0 7.937-.448v1.357h2.385v-6.41c-.003-3.628-2.966-6.572-6.63-6.589zm0 10.709c-2.298 0-4.161-1.845-4.161-4.12s1.863-4.119 4.161-4.119 4.161 1.844 4.161 4.12c-.002 2.266-1.853 4.107-4.143 4.119zm-33.136-5.564v7.854h2.49v-7.854c.003-1.481 1.215-2.681 2.711-2.684h1.186v-2.46h-1.186c-2.869.004-5.194 2.304-5.201 5.144zm22.327 7.854h2.5V7h-2.5zM49.114 10.29a5.237 5.237 0 0 0-3.967 1.811 5.227 5.227 0 0 0-5.748-1.492A5.143 5.143 0 0 0 36 15.435v7.854h2.495v-7.854c-.04-.984.467-1.91 1.322-2.414s1.92-.504 2.774 0 1.362 1.43 1.322 2.414v7.854h2.495v-7.854c-.04-.984.467-1.91 1.322-2.414s1.919-.504 2.773 0 1.362 1.43 1.322 2.414v7.854h2.49v-7.854c-.006-2.84-2.332-5.14-5.2-5.145zm13.547 0c-2.694-.007-5.127 1.594-6.163 4.056s-.47 5.298 1.432 7.186 4.767 2.455 7.256 1.436S69.3 19.546 69.3 16.88c-.005-3.63-2.971-6.574-6.638-6.589zm0 10.709c-2.298-.003-4.159-1.848-4.157-4.123s1.865-4.117 4.162-4.116c2.298 0 4.16 1.845 4.16 4.12a4.098 4.098 0 0 1-1.22 2.914 4.183 4.183 0 0 1-2.945 1.205z" fill="#B6BCD0"/>
</svg>