<?xml version="1.0" encoding="utf-8"?>
<svg xmlns="http://www.w3.org/2000/svg" fill="none" height="41" viewBox="0 0 107 41" width="107">
  <g fill="#fff">
    <path d="m30.6466.650391 1.6811 1.664899v1.21243l-1.9074 1.90739v-2.62735l-.2424-.24248h-1.0837l-.2425.24248v7.18583l.2425.25001h1.0837l.2424-.25001v-1.10744l1.9074-1.90738v3.49233l-1.6811 1.6811h-2.0212l-1.6899-1.6811v-8.15581l1.6899-1.664899z"/>
    <path d="m35.2227.650391v9.595709h2.8773l-.3637 1.9074h-4.4297v-10.91314l-.1138-.589969h2.0286z"/>
    <path d="m43.2009.65042v1.91614h-2.4011v2.5136h1.9236v1.68115h-1.9236v3.48359h2.4011v1.9073h-4.3173v-10.78307l-.1137-.71996h4.4297z"/>
    <path d="m50.088.650391-1.6649 11.503109h-2.1174l-1.0749-1.4387-1.3662-10.064409h1.9162l1.2049 9.465709 1.1962-9.465709h1.9074z"/>
    <path d="m55.1652.65042v1.91614h-2.4011v2.5136h1.9236v1.68115h-1.9236v3.48359h2.4011v1.9073h-4.3173v-10.78307l-.1137-.71996h4.4297z"/>
    <path d="m58.0587.650391v9.595709h2.8698l-.3562 1.9074h-4.4297v-10.91314l-.1138-.589969z"/>
    <path d="m66.0208.650391 1.6812 11.503109h-1.9237l-.2912-2.27116h-1.8274l-.2825 2.27116h-1.9161l1.5524-10.78315-.1137-.719959zm-2.1174 7.275819h1.3425l-.655-5.24594z"/>
    <path d="m73.8141 12.1535h-1.7949l-1.8024-6.24092v6.24092h-1.9074v-10.78315l-.1287-.719959h1.9236l1.7949 5.852149v-5.852149h1.9161z"/>
    <path d="m80.28 2.31529v8.28581l-1.5687 1.5524h-3.9535v-10.81565l-.1137-.687459h3.9535zm-1.9474.49372-.2425-.24248h-1.3736v7.67957h1.4386l.2425-.25001z"/>
    <path d="m8.56296 16.3569 3.55734 3.5248v2.5549l-4.04231 4.0335v-5.5534l-.51747-.5175h-2.27986l-.50872.5175v15.1803l.50872.5175h2.27986l.51747-.5175v-2.3436l4.04231-4.0335v7.3808l-3.55734 3.5485h-4.28474l-3.548545-3.5485v-17.2177l3.548545-3.5248h4.28474z"/>
    <path d="m22.7409 16.3569 3.5485 24.2911h-4.0423l-.6062-4.7935h-3.8798l-.6062 4.7935h-4.0422l3.2823-22.7712-.2425-1.5199zm-4.4623 15.4229h2.8211l-1.3987-11.1394z"/>
    <path d="m38.44 16.3569-3.5248 24.2911h-4.4622l-2.2799-3.0311-2.8773-21.26h4.0335l2.5461 19.9826 2.5223-19.9826z"/>
    <path d="m47.1857 16.3569 3.5485 24.2911h-4.0422l-.6063-4.7935h-3.8797l-.6062 4.7935h-4.0423l3.2823-22.7712-.2512-1.5199zm-4.4698 15.4229h2.8299l-1.3987-11.1394z"/>
    <path d="m56.1989 16.3569v20.2576h6.0709l-.76 4.0335h-9.3444v-23.0461l-.2425-1.245z"/>
    <path d="m67.977 16.3569v24.2911h-4.0336v-22.7712l-.2749-1.5199z"/>
    <path d="m79.1562 16.3569v4.0423h-5.0759v5.3109h4.0747v3.5573h-4.0747v7.3483h5.0759v4.0335h-9.1107v-22.7711l-.2425-1.5199h9.3532z"/>
    <path d="m89.3257 16.3569 3.5572 3.5248v6.0709l-3.3385 2.2474 3.3385 4.341v8.0832h-4.0422v-6.5633l-2.4899-3.7348-1.0674.7037v9.6194h-4.0423v-22.7711l-.2424-1.5199zm-4.041 10.6294 3.5572-2.5461v-3.5248l-.5174-.5175h-3.0398z"/>
    <path d="m102.502 23.9478v-3.0311l-.517-.5175h-2.5225l-.5174.5175v3.0311l7.5909 6.0784v7.0733l-3.516 3.5485h-4.5599l-3.5485-3.5485v-7.0733l4.0335 2.5136v3.5572l.5174.5175h2.5225l.517-.5175v-4.0422l-7.5904-6.1034v-6.0709l3.5485-3.5248h4.5599l3.516 3.5248v6.5884z"/>
  </g>
</svg>