<svg width="64" height="64" viewBox="0 0 64 64" fill="none" xmlns="http://www.w3.org/2000/svg">
<rect width="64" height="64" fill="white"/>
<path d="M32.3113 47.5828C36.5186 47.5828 40.0506 46.1976 42.6305 43.8083L37.7133 39.9991C36.3974 40.9168 34.6313 41.5574 32.3113 41.5574C28.1905 41.5574 24.6931 38.8391 23.4463 35.082L23.2636 35.0975L18.4535 38.82L18.3906 38.9949C20.9531 44.0853 26.2166 47.5828 32.3113 47.5828Z" fill="#34A853"/>
<path d="M47.271 32.3462C47.271 31.065 47.167 30.13 46.942 29.1605H32.3115V34.9433H40.8993C40.7262 36.3805 39.7913 38.5447 37.7135 39.9991L37.6844 40.1927L42.3103 43.7763L42.6308 43.8083C45.5741 41.0899 47.271 37.0903 47.271 32.3462" fill="#4285F4"/>
<path d="M23.4473 35.0819C23.1184 34.1124 22.928 33.0734 22.928 32C22.928 30.9265 23.1184 29.8876 23.43 28.9181L23.4213 28.7116L18.551 24.9292L18.3916 25.005C17.3355 27.1174 16.7295 29.4894 16.7295 32C16.7295 34.5106 17.3355 36.8825 18.3916 38.9949L23.4473 35.0819" fill="#FBBC05"/>
<path d="M32.3113 22.4425C35.2373 22.4425 37.2111 23.7064 38.3366 24.7627L42.7344 20.4687C40.0335 17.9581 36.5186 16.4172 32.3113 16.4172C26.2166 16.4172 20.9531 19.9146 18.3906 25.005L23.429 28.918C24.6931 25.1608 28.1905 22.4425 32.3113 22.4425" fill="#EB4335"/>
</svg>
