<svg width="64" height="64" viewBox="0 0 64 64" fill="none" xmlns="http://www.w3.org/2000/svg">
<rect width="64" height="64" fill="url(#paint0_radial_32_85867)"/>
<path fill-rule="evenodd" clip-rule="evenodd" d="M32.527 14.523C22.6816 14.523 15.0498 21.7348 15.0498 31.4759C15.0498 36.5711 17.138 40.9739 20.5386 44.015C20.8241 44.2705 20.9964 44.6285 21.0081 45.0116L21.1033 48.1204C21.1337 49.1121 22.158 49.7573 23.0654 49.3567L26.5344 47.8254C26.8285 47.6957 27.158 47.6716 27.4679 47.7569C29.0619 48.1952 30.7586 48.4287 32.527 48.4287C42.3724 48.4287 50.0041 41.2169 50.0041 31.4759C50.0041 21.7348 42.3724 14.523 32.527 14.523ZM22.0327 36.4337L27.1666 28.2887C27.9832 26.9929 29.732 26.6703 30.9573 27.5892L35.0406 30.6517C35.4152 30.9327 35.9307 30.9312 36.3037 30.6481L41.8184 26.4628C42.5544 25.9043 43.5152 26.7851 43.0227 27.5668L37.8887 35.7119C37.072 37.0076 35.3233 37.3303 34.098 36.4113L30.0146 33.3488C29.64 33.0678 29.1245 33.0693 28.7515 33.3524L23.2368 37.5377C22.5008 38.0962 21.54 37.2154 22.0327 36.4337Z" fill="white"/>
<defs>
<radialGradient id="paint0_radial_32_85867" cx="0" cy="0" r="1" gradientUnits="userSpaceOnUse" gradientTransform="translate(12.3184 63.6577) scale(69.7341)">
<stop stop-color="#0099FF"/>
<stop offset="0.609754" stop-color="#A033FF"/>
<stop offset="0.934823" stop-color="#FF5280"/>
<stop offset="1" stop-color="#FF7061"/>
</radialGradient>
</defs>
</svg>
