<svg width="64" height="64" viewBox="0 0 64 64" fill="none" xmlns="http://www.w3.org/2000/svg">
<rect width="64" height="64" fill="#5865F2"/>
<path d="M43.4057 21.5535C47.109 27.0321 48.9379 33.2118 48.2542 40.3261C48.2514 40.3562 48.2358 40.3838 48.2112 40.402C45.4067 42.474 42.6896 43.7314 40.0106 44.5654C39.9897 44.5717 39.9674 44.5714 39.9468 44.5644C39.9261 44.5573 39.9082 44.544 39.8954 44.5262C39.2765 43.6597 38.7141 42.7462 38.2215 41.7869C38.1932 41.7304 38.219 41.6623 38.2772 41.6401C39.1703 41.3015 40.0196 40.8956 40.8365 40.4152C40.9009 40.3772 40.905 40.2844 40.8455 40.2399C40.6722 40.1104 40.5004 39.9743 40.3361 39.8382C40.3053 39.813 40.2639 39.8081 40.2291 39.825C34.9256 42.2892 29.1158 42.2892 23.7496 39.825C23.7148 39.8093 23.6734 39.8147 23.6435 39.8394C23.4795 39.9755 23.3074 40.1104 23.1356 40.2399C23.0762 40.2844 23.0811 40.3772 23.1459 40.4152C23.9628 40.8866 24.812 41.3015 25.704 41.6417C25.7617 41.664 25.7892 41.7304 25.7605 41.7869C25.2785 42.7474 24.7161 43.6609 24.0857 44.5274C24.0583 44.5625 24.0132 44.5786 23.9705 44.5654C21.3042 43.7314 18.5871 42.474 15.7827 40.402C15.7593 40.3838 15.7425 40.3549 15.74 40.3248C15.1687 34.1711 16.3331 27.9402 20.5841 21.5522C20.5943 21.5353 20.6099 21.5221 20.6279 21.5143C22.7196 20.5484 24.9604 19.8378 27.3025 19.432C27.3451 19.4254 27.3878 19.4452 27.4099 19.4831C27.6993 19.9987 28.0301 20.6598 28.2539 21.2C30.7226 20.8206 33.2299 20.8206 35.7503 21.2C35.974 20.6713 36.2934 19.9987 36.5815 19.4831C36.5918 19.4643 36.6077 19.4492 36.627 19.44C36.6462 19.4309 36.6679 19.428 36.6889 19.432C39.0322 19.8391 41.273 20.5497 43.3631 21.5143C43.3815 21.5221 43.3967 21.5353 43.4057 21.5535V21.5535ZM29.5089 33.2539C29.5347 31.4347 28.2166 29.9293 26.5618 29.9293C24.9207 29.9293 23.6152 31.4215 23.6152 33.2539C23.6152 35.0859 24.9465 36.578 26.5618 36.578C28.2034 36.578 29.5089 35.0859 29.5089 33.2539V33.2539ZM40.4045 33.2539C40.4303 31.4347 39.1121 29.9293 37.4578 29.9293C35.8162 29.9293 34.5108 31.4215 34.5108 33.2539C34.5108 35.0859 35.8421 36.578 37.4578 36.578C39.1121 36.578 40.4045 35.0859 40.4045 33.2539V33.2539Z" fill="white"/>
</svg>
