<svg width="64" height="64" viewBox="0 0 64 64" fill="none" xmlns="http://www.w3.org/2000/svg">
<rect width="64" height="64" fill="#FF2A2A"/>
<path d="M32.7599 43.953L25.7266 43.8229C23.4493 43.7777 21.1664 43.8682 18.9339 43.3988C15.5375 42.6976 15.2969 39.2593 15.0452 36.3752C14.6982 32.3206 14.8325 28.1924 15.4872 24.1716C15.8565 21.9153 17.3112 20.5694 19.5606 20.4223C27.1534 19.8908 34.7966 19.953 42.3726 20.2018C43.1727 20.2244 43.9784 20.3488 44.7674 20.4902C48.6617 21.1801 48.7568 25.0764 49.0086 28.3564C49.2604 31.6702 49.1541 35.0011 48.6729 38.2923C48.2868 41.018 47.5482 43.3027 44.4317 43.5232C40.5261 43.8116 36.7101 44.0435 32.7934 43.97C32.7934 43.953 32.7711 43.953 32.7599 43.953V43.953ZM28.6249 37.0538C31.5681 35.346 34.4552 33.6665 37.3816 31.9699C34.4329 30.2621 31.5513 28.5826 28.6249 26.8861V37.0538Z" fill="white"/>
</svg>
