<svg width="64" height="64" viewBox="0 0 64 64" fill="none" xmlns="http://www.w3.org/2000/svg">
<rect width="64" height="64" fill="#E60023"/>
<path d="M31.9913 11.2693C20.5302 11.2693 11.2686 20.5476 11.2686 31.992C11.2686 40.7761 16.7265 48.2805 24.4359 51.2987C24.2486 49.6621 24.0946 47.1371 24.5045 45.3476C24.8791 43.7266 26.9266 35.0445 26.9266 35.0445C26.9266 35.0445 26.3128 33.8002 26.3128 31.9753C26.3128 29.0934 27.9836 26.9439 30.0644 26.9439C31.8383 26.9439 32.6915 28.2736 32.6915 29.8602C32.6915 31.6341 31.5657 34.2944 30.9685 36.7684C30.4733 38.8316 32.0089 40.5201 34.0377 40.5201C37.7228 40.5201 40.5538 36.6311 40.5538 31.0369C40.5538 26.0742 36.9893 22.6117 31.8893 22.6117C25.9881 22.6117 22.5257 27.0292 22.5257 31.5997C22.5257 33.3736 23.2082 35.2838 24.0603 36.3242C24.2309 36.5291 24.2476 36.7164 24.1976 36.9214C24.0436 37.5696 23.6857 38.9845 23.6171 39.2748C23.5318 39.6493 23.3102 39.7357 22.9179 39.5474C20.3596 38.3197 18.7563 34.5326 18.7563 31.4978C18.7563 24.9641 23.4974 18.9609 32.4522 18.9609C39.633 18.9609 45.2272 24.0776 45.2272 30.9349C45.2272 38.0804 40.7244 43.8286 34.482 43.8286C32.3835 43.8286 30.4057 42.7362 29.7398 41.4409L28.4445 46.3703C27.9836 48.1775 26.7216 50.4289 25.8685 51.8116C27.813 52.4077 29.8595 52.7313 32.0089 52.7313C43.4534 52.7313 52.7317 43.453 52.7317 32.0086C52.714 20.5476 43.4357 11.2693 31.9913 11.2693Z" fill="white"/>
</svg>
