<svg width="64" height="64" viewBox="0 0 64 64" fill="none" xmlns="http://www.w3.org/2000/svg">
<rect width="64" height="64" fill="#1DA1F2"/>
<path d="M37.1363 19.598V19.5925H38.5684L39.0916 19.6972C39.4405 19.7651 39.7572 19.8542 40.0417 19.9643C40.3263 20.0745 40.6017 20.203 40.8679 20.3499C41.1341 20.4968 41.3756 20.6465 41.5922 20.7988C41.8071 20.9494 41.9998 21.1092 42.1706 21.2781C42.3394 21.4488 42.6029 21.4929 42.9609 21.4103C43.3189 21.3276 43.7045 21.2129 44.1176 21.066C44.5307 20.9191 44.9392 20.7539 45.3431 20.5703C45.747 20.3866 45.9931 20.27 46.0812 20.2205C46.1675 20.1691 46.2134 20.1415 46.2189 20.1379L46.2244 20.1296L46.2519 20.1158L46.2794 20.102L46.307 20.0883L46.3345 20.0745L46.34 20.0662L46.3483 20.0607L46.3566 20.0552L46.3621 20.047L46.3896 20.0387L46.4171 20.0332L46.4117 20.0745L46.4034 20.1158L46.3896 20.1571L46.3758 20.1984L46.3621 20.226L46.3483 20.2535L46.3345 20.2948C46.3254 20.3224 46.3162 20.3591 46.307 20.405C46.2978 20.4509 46.2106 20.6345 46.0454 20.9558C45.8801 21.2772 45.6736 21.6031 45.4257 21.9336C45.1779 22.2641 44.9557 22.5137 44.7593 22.6827C44.561 22.8534 44.4297 22.9728 44.3654 23.0407C44.3012 23.1105 44.2232 23.1747 44.1314 23.2335L43.9937 23.3244L43.9661 23.3382L43.9386 23.3519L43.9331 23.3602L43.9248 23.3657L43.9166 23.3712L43.911 23.3795L43.8835 23.3933L43.856 23.407L43.8505 23.4153L43.8422 23.4208L43.8339 23.4263L43.8284 23.4346L43.8229 23.4428L43.8147 23.4483L43.8064 23.4538L43.8009 23.4621H43.9386L44.7097 23.2969C45.2238 23.1867 45.7149 23.0536 46.1831 22.8975L46.9266 22.6496L47.0092 22.6221L47.0506 22.6083L47.0781 22.5946L47.1056 22.5808L47.1332 22.567L47.1607 22.5532L47.2158 22.545L47.2709 22.5395V22.5946L47.2571 22.6001L47.2433 22.6083L47.2379 22.6166L47.2296 22.6221L47.2213 22.6276L47.2158 22.6359L47.2103 22.6441L47.202 22.6496L47.1938 22.6551L47.1883 22.6634L47.1828 22.6717L47.1745 22.6772L47.1607 22.7047L47.1469 22.7323L47.1387 22.7378C47.135 22.7433 47.0184 22.8993 46.7889 23.206C46.5594 23.5144 46.4355 23.6705 46.4171 23.6742C46.3988 23.6797 46.3731 23.7072 46.34 23.7568C46.3088 23.8082 46.1142 24.0129 45.7562 24.371C45.3982 24.729 45.0475 25.0476 44.7042 25.3267C44.3591 25.6076 44.1846 25.9528 44.181 26.3622C44.1755 26.7698 44.1543 27.2307 44.1176 27.7448C44.0809 28.2589 44.012 28.8143 43.911 29.4111C43.8101 30.0078 43.654 30.6826 43.4429 31.4354C43.2318 32.1882 42.9747 32.9226 42.6718 33.6387C42.3688 34.3548 42.0521 34.9974 41.7217 35.5666C41.3912 36.1358 41.0882 36.6178 40.8128 37.0125C40.5374 37.4073 40.2575 37.7791 39.9729 38.1279C39.6883 38.4768 39.3285 38.8697 38.8934 39.3067C38.4564 39.7419 38.2177 39.9806 38.1773 40.0228C38.1351 40.0632 37.9552 40.2138 37.6375 40.4745C37.3218 40.737 36.9821 40.9996 36.6186 41.2622C36.2569 41.5229 35.9246 41.7405 35.6216 41.9149C35.3187 42.0893 34.9534 42.2885 34.5256 42.5125C34.0996 42.7384 33.6388 42.9477 33.1431 43.1405C32.6474 43.3333 32.1241 43.5123 31.5733 43.6776C31.0225 43.8428 30.4901 43.9713 29.976 44.0631C29.462 44.1549 28.879 44.233 28.2273 44.2972L27.2496 44.3936V44.4074H25.4595V44.3936L25.2254 44.3799C25.0694 44.3707 24.9409 44.3615 24.8399 44.3523C24.7389 44.3431 24.358 44.2926 23.697 44.2008C23.0361 44.109 22.5174 44.0172 22.141 43.9254C21.7647 43.8336 21.2047 43.6592 20.4611 43.4021C19.7175 43.1451 19.0814 42.8853 18.5526 42.6227C18.0257 42.362 17.6952 42.1967 17.5612 42.127C17.429 42.059 17.2803 41.9746 17.115 41.8736L16.8672 41.7221L16.8617 41.7138L16.8534 41.7083L16.8452 41.7028L16.8397 41.6946L16.8121 41.6808L16.7846 41.667L16.7791 41.6588L16.7708 41.6533L16.7625 41.6477L16.757 41.6395L16.7516 41.6312L16.7433 41.6257H16.7295V41.5706L16.757 41.5761L16.7846 41.5844L16.9085 41.5982C16.9911 41.6073 17.216 41.6211 17.5832 41.6395C17.9504 41.6579 18.3406 41.6579 18.7537 41.6395C19.1667 41.6211 19.589 41.5798 20.0205 41.5155C20.4519 41.4513 20.9614 41.3411 21.5489 41.185C22.1364 41.029 22.6762 40.8435 23.1683 40.6287C23.6585 40.4121 24.0073 40.2505 24.2148 40.144C24.4204 40.0393 24.7343 39.8447 25.1566 39.5601L25.79 39.1332L25.7955 39.1249L25.8038 39.1194L25.8121 39.1139L25.8175 39.1057L25.8231 39.0974L25.8313 39.0919L25.8396 39.0864L25.8451 39.0781L25.8726 39.0699L25.9002 39.0644L25.9057 39.0368L25.9139 39.0093L25.9222 39.0038L25.9277 38.9955L25.7074 38.9817C25.5605 38.9726 25.4182 38.9634 25.2805 38.9542C25.1428 38.945 24.9271 38.9037 24.6333 38.8303C24.3396 38.7568 24.0229 38.6466 23.6832 38.4998C23.3436 38.3529 23.0131 38.1784 22.6918 37.9765C22.3705 37.7745 22.1383 37.6065 21.9951 37.4725C21.8537 37.3402 21.6701 37.153 21.4443 36.9106C21.2203 36.6664 21.0257 36.4158 20.8604 36.1587C20.6952 35.9017 20.5373 35.6051 20.3868 35.2691L20.1582 34.7679L20.1444 34.7266L20.1306 34.6853L20.1224 34.6577L20.1169 34.6302L20.1582 34.6357L20.1995 34.6439L20.5024 34.6853C20.7044 34.7128 21.0211 34.722 21.4525 34.7128C21.884 34.7036 22.1823 34.6853 22.3476 34.6577C22.5128 34.6302 22.6138 34.6118 22.6505 34.6026L22.7056 34.5889L22.7744 34.5751L22.8433 34.5613L22.8488 34.5531L22.857 34.5476L22.8653 34.542L22.8708 34.5338L22.8157 34.52L22.7607 34.5062L22.7056 34.4925L22.6505 34.4787L22.5954 34.4649C22.5587 34.4558 22.4945 34.4374 22.4026 34.4098C22.3109 34.3823 22.063 34.2813 21.6591 34.1069C21.2552 33.9325 20.9339 33.7626 20.6952 33.5974C20.4559 33.4316 20.2278 33.2504 20.0122 33.0548C19.7974 32.8565 19.5615 32.6013 19.3044 32.2892C19.0474 31.977 18.8179 31.6144 18.616 31.2013C18.414 30.7881 18.2625 30.3934 18.1615 30.017C18.061 29.6428 17.9946 29.2602 17.9633 28.874L17.9137 28.2956L17.9412 28.3011L17.9688 28.3094L17.9963 28.3232L18.0239 28.3369L18.0514 28.3507L18.0789 28.3645L18.5058 28.5573C18.7904 28.6858 19.1438 28.796 19.5661 28.8878C19.9884 28.9796 20.2408 29.0301 20.3234 29.0393L20.4473 29.053H20.6952L20.6897 29.0448L20.6814 29.0393L20.6732 29.0337L20.6677 29.0255L20.6622 29.0172L20.6539 29.0117L20.6456 29.0062L20.6401 28.9979L20.6126 28.9842L20.585 28.9704L20.5796 28.9621L20.5713 28.9566L20.563 28.9511L20.5575 28.9429L20.53 28.9291L20.5024 28.9153L20.4969 28.9071C20.4914 28.9034 20.4125 28.8446 20.2601 28.7308C20.1095 28.6151 19.9516 28.4655 19.7864 28.2819C19.6211 28.0982 19.4559 27.9055 19.2907 27.7035C19.1251 27.5011 18.9777 27.2845 18.85 27.0563C18.7215 26.8268 18.5857 26.5348 18.4425 26.1805C18.3011 25.8279 18.1937 25.4726 18.1202 25.1146C18.0468 24.7566 18.0055 24.4031 17.9963 24.0542C17.9871 23.7054 17.9963 23.407 18.0239 23.1592C18.0514 22.9113 18.1065 22.6313 18.1891 22.3191C18.2717 22.007 18.3911 21.6765 18.5471 21.3276L18.7812 20.8044L18.795 20.763L18.8087 20.7217L18.817 20.7162L18.8225 20.708L18.828 20.6997L18.8363 20.6942L18.8446 20.6997L18.85 20.708L18.8555 20.7162L18.8638 20.7217L18.8721 20.7272L18.8776 20.7355L18.8831 20.7438L18.8913 20.7493L18.9051 20.7768L18.9189 20.8044L18.9272 20.8099L18.9327 20.8181L19.3044 21.2312C19.5523 21.5067 19.8461 21.8142 20.1857 22.1539C20.5254 22.4936 20.7136 22.6698 20.7503 22.6827C20.787 22.6974 20.8329 22.7396 20.888 22.8094C20.943 22.8773 21.1267 23.0398 21.4388 23.2969C21.7509 23.5539 22.1594 23.8523 22.6643 24.192C23.1692 24.5316 23.7291 24.8667 24.3442 25.1972C24.9593 25.5277 25.6202 25.8261 26.327 26.0923C27.0339 26.3586 27.5296 26.533 27.8142 26.6156C28.0988 26.6982 28.5853 26.8038 29.2738 26.9323C29.9623 27.0609 30.4809 27.1435 30.8298 27.1802C31.1786 27.2169 31.4173 27.238 31.5458 27.2436L31.7386 27.2491L31.7331 27.2077L31.7248 27.1664L31.6697 26.8222C31.633 26.5927 31.6146 26.2713 31.6146 25.8582C31.6146 25.4451 31.6468 25.0641 31.711 24.7152C31.7753 24.3664 31.8717 24.0129 32.0002 23.6549C32.1287 23.2969 32.2545 23.0095 32.3775 22.7928C32.5023 22.578 32.6657 22.3329 32.8677 22.0575C33.0697 21.7821 33.3313 21.4975 33.6526 21.2037C33.9739 20.9099 34.341 20.6483 34.7541 20.4188C35.1672 20.1893 35.5482 20.0148 35.897 19.8955C36.2459 19.7761 36.5396 19.6981 36.7783 19.6614C37.017 19.6247 37.1363 19.6035 37.1363 19.598V19.598Z" fill="white"/>
</svg>
