<svg width="64" height="64" viewBox="0 0 64 64" fill="none" xmlns="http://www.w3.org/2000/svg">
<rect width="64" height="64" fill="#00D95F"/>
<path d="M16.5098 47.5044L18.7346 39.2394C16.9403 36.0198 16.3703 32.2627 17.129 28.6577C17.8878 25.0527 19.9244 21.8415 22.8653 19.6134C25.8061 17.3853 29.4538 16.2897 33.1391 16.5277C36.8244 16.7658 40.3001 18.3214 42.9282 20.9092C45.5564 23.497 47.1609 26.9434 47.4472 30.6159C47.7335 34.2884 46.6824 37.9408 44.4869 40.9027C42.2913 43.8647 39.0986 45.9375 35.4945 46.7409C31.8904 47.5443 28.1167 47.0244 24.8659 45.2765L16.5098 47.5044ZM25.2688 42.1837L25.7856 42.4895C28.1402 43.8816 30.8904 44.4576 33.6075 44.1279C36.3246 43.7982 38.8561 42.5812 40.8074 40.6666C42.7587 38.752 44.0202 36.2473 44.3954 33.5429C44.7706 30.8385 44.2383 28.0862 42.8816 25.715C41.5248 23.3438 39.4198 21.4869 36.8945 20.4336C34.3693 19.3803 31.5656 19.1899 28.9205 19.8919C26.2754 20.5939 23.9374 22.1489 22.2708 24.3147C20.6042 26.4805 19.7028 29.1354 19.7068 31.8656C19.7046 34.1293 20.3323 36.3493 21.5199 38.2784L21.844 38.8113L20.6002 43.4243L25.2688 42.1837Z" fill="white"/>
<path fill-rule="evenodd" clip-rule="evenodd" d="M37.811 33.9878C37.508 33.7441 37.1533 33.5725 36.7738 33.4862C36.3944 33.3999 36.0002 33.4011 35.6212 33.4898C35.0519 33.7257 34.684 34.6168 34.3161 35.0624C34.2386 35.1692 34.1246 35.2441 33.9956 35.2731C33.8665 35.3021 33.7314 35.2831 33.6154 35.2197C31.531 34.4054 29.7839 32.9121 28.6578 30.9823C28.5617 30.8619 28.5163 30.709 28.531 30.5558C28.5457 30.4027 28.6194 30.2611 28.7366 30.1611C29.1469 29.7559 29.4482 29.2541 29.6125 28.702C29.649 28.0931 29.5091 27.4865 29.2096 26.9547C28.978 26.2091 28.5373 25.5451 27.9395 25.0413C27.6312 24.903 27.2894 24.8566 26.9552 24.9078C26.621 24.959 26.3089 25.1055 26.0563 25.3296C25.6179 25.7069 25.2699 26.1775 25.038 26.7067C24.8061 27.2359 24.6961 27.8103 24.7162 28.3875C24.7176 28.7117 24.7587 29.0344 24.8388 29.3486C25.0422 30.1033 25.355 30.8244 25.7673 31.4891C26.0647 31.9982 26.3893 32.4911 26.7395 32.9656C27.8778 34.5242 29.3087 35.8476 30.9526 36.8622C31.7776 37.3778 32.6593 37.797 33.5804 38.1116C34.5371 38.5442 35.5935 38.7102 36.6373 38.5921C37.232 38.5023 37.7955 38.2681 38.2781 37.9101C38.7608 37.552 39.1478 37.0812 39.4051 36.5389C39.5564 36.2114 39.6022 35.8451 39.5365 35.4905C39.3789 34.7654 38.4066 34.3373 37.811 33.9878Z" fill="white"/>
</svg>
