<svg width="145" height="21" viewBox="0 0 145 21" fill="none" xmlns="http://www.w3.org/2000/svg">
<path d="M19.7764 8.94739V16.2029C19.7764 18.2064 18.1522 19.8306 16.1487 19.8306H5.26544C3.26189 19.8306 1.6377 18.2064 1.6377 16.2029V8.94739M19.7764 8.94739C19.7764 6.94384 18.1522 5.31964 16.1487 5.31964H5.26544C3.26189 5.31964 1.6377 6.94384 1.6377 8.94739M19.7764 8.94739C19.7764 8.94739 16.9539 11.4094 10.7071 11.3138C4.46023 11.2183 1.6377 8.94739 1.6377 8.94739M7.07931 5.31964V4.4127C7.07931 2.91004 8.29746 1.69189 9.80012 1.69189H11.614C13.1167 1.69189 14.3348 2.91004 14.3348 4.4127V5.31964" stroke="url(#paint0_linear_2_99081)" stroke-width="1.59626" stroke-linecap="round"/>
<path d="M33.053 3.73206H35.4371V13.0611C35.4328 13.9162 35.2514 14.6526 34.8929 15.2702C34.5344 15.8835 34.0334 16.3565 33.3899 16.689C32.7507 17.0173 32.0057 17.1814 31.1548 17.1814C30.3774 17.1814 29.6777 17.0432 29.0558 16.7668C28.4382 16.486 27.948 16.0714 27.5852 15.5229C27.2224 14.9744 27.041 14.292 27.041 13.4757H29.4316C29.4359 13.8342 29.5136 14.143 29.6648 14.4021C29.8203 14.6613 30.0341 14.8599 30.3062 14.9981C30.5783 15.1364 30.8914 15.2055 31.2455 15.2055C31.6299 15.2055 31.956 15.1256 32.2238 14.9658C32.4916 14.8016 32.6946 14.5598 32.8328 14.2402C32.9753 13.9206 33.0487 13.5275 33.053 13.0611V3.73206ZM42.2816 17.1944C41.3099 17.1944 40.4677 16.9806 39.755 16.553C39.0424 16.1254 38.4896 15.5272 38.0965 14.7584C37.7078 13.9897 37.5135 13.0913 37.5135 12.0634C37.5135 11.0355 37.7078 10.135 38.0965 9.36187C38.4896 8.58877 39.0424 7.98843 39.755 7.56085C40.4677 7.13327 41.3099 6.91948 42.2816 6.91948C43.2534 6.91948 44.0956 7.13327 44.8082 7.56085C45.5209 7.98843 46.0715 8.58877 46.4603 9.36187C46.8533 10.135 47.0498 11.0355 47.0498 12.0634C47.0498 13.0913 46.8533 13.9897 46.4603 14.7584C46.0715 15.5272 45.5209 16.1254 44.8082 16.553C44.0956 16.9806 43.2534 17.1944 42.2816 17.1944ZM42.2946 15.3156C42.8215 15.3156 43.262 15.1709 43.6162 14.8815C43.9704 14.5878 44.2338 14.1948 44.4066 13.7025C44.5837 13.2101 44.6722 12.6616 44.6722 12.0569C44.6722 11.4479 44.5837 10.8973 44.4066 10.4049C44.2338 9.90822 43.9704 9.51303 43.6162 9.21934C43.262 8.92565 42.8215 8.7788 42.2946 8.7788C41.7547 8.7788 41.3055 8.92565 40.9471 9.21934C40.5929 9.51303 40.3273 9.90822 40.1502 10.4049C39.9775 10.8973 39.8911 11.4479 39.8911 12.0569C39.8911 12.6616 39.9775 13.2101 40.1502 13.7025C40.3273 14.1948 40.5929 14.5878 40.9471 14.8815C41.3055 15.1709 41.7547 15.3156 42.2946 15.3156ZM49.144 17V3.73206H51.4892V8.69458H51.5864C51.7073 8.45272 51.8779 8.19574 52.0982 7.92364C52.3184 7.64723 52.6164 7.41184 52.9922 7.21749C53.3679 7.01881 53.8473 6.91948 54.4304 6.91948C55.1992 6.91948 55.8924 7.11599 56.51 7.50902C57.1319 7.89773 57.6243 8.47431 57.9871 9.23878C58.3542 9.99892 58.5378 10.9318 58.5378 12.0375C58.5378 13.1302 58.3585 14.0588 58.0001 14.8232C57.6416 15.5877 57.1535 16.1708 56.5359 16.5724C55.9183 16.9741 55.2186 17.1749 54.4369 17.1749C53.8668 17.1749 53.3939 17.0799 53.0181 16.8899C52.6424 16.6998 52.34 16.4709 52.1111 16.2031C51.8865 15.9311 51.7116 15.6741 51.5864 15.4322H51.4503V17H49.144ZM51.4438 12.0245C51.4438 12.6681 51.5345 13.2317 51.7159 13.7154C51.9016 14.1991 52.1673 14.577 52.5128 14.8491C52.8626 15.1169 53.2859 15.2508 53.7826 15.2508C54.3008 15.2508 54.7349 15.1126 55.0847 14.8362C55.4346 14.5555 55.698 14.1732 55.8751 13.6895C56.0565 13.2014 56.1472 12.6465 56.1472 12.0245C56.1472 11.4069 56.0587 10.8584 55.8816 10.379C55.7045 9.89958 55.4411 9.52383 55.0912 9.25173C54.7414 8.97964 54.3052 8.84359 53.7826 8.84359C53.2816 8.84359 52.8561 8.97532 52.5063 9.23878C52.1565 9.50223 51.8908 9.87151 51.7094 10.3466C51.5324 10.8217 51.4438 11.381 51.4438 12.0245ZM60.6352 17V3.73206H65.7143C66.6731 3.73206 67.47 3.88323 68.1049 4.18556C68.7441 4.48357 69.2213 4.89171 69.5366 5.40999C69.8562 5.92827 70.016 6.51565 70.016 7.17214C70.016 7.71201 69.9124 8.17414 69.7051 8.55853C69.4978 8.93861 69.2192 9.24741 68.8693 9.48496C68.5195 9.7225 68.1286 9.8931 67.6967 9.99676V10.1263C68.1675 10.1522 68.6188 10.2969 69.0507 10.5604C69.487 10.8195 69.8433 11.1866 70.1197 11.6617C70.3961 12.1368 70.5343 12.7112 70.5343 13.385C70.5343 14.0717 70.368 14.6893 70.0355 15.2379C69.7029 15.782 69.2019 16.2118 68.5325 16.5271C67.863 16.8424 67.0208 17 66.0058 17H60.6352ZM63.0387 14.9917H65.6236C66.4961 14.9917 67.1245 14.8254 67.5089 14.4928C67.8976 14.1559 68.0919 13.724 68.0919 13.1971C68.0919 12.8041 67.9947 12.4499 67.8004 12.1347C67.606 11.8151 67.3296 11.5646 66.9711 11.3832C66.6127 11.1974 66.1851 11.1046 65.6884 11.1046H63.0387V14.9917ZM63.0387 9.37482H65.4163C65.8309 9.37482 66.2045 9.29924 66.5371 9.14808C66.8696 8.99259 67.1309 8.77448 67.321 8.49375C67.5153 8.2087 67.6125 7.87182 67.6125 7.48311C67.6125 6.96915 67.4311 6.54588 67.0683 6.21332C66.7098 5.88076 66.1764 5.71448 65.4681 5.71448H63.0387V9.37482ZM76.8622 17.1944C75.8904 17.1944 75.0482 16.9806 74.3356 16.553C73.6229 16.1254 73.0701 15.5272 72.6771 14.7584C72.2884 13.9897 72.094 13.0913 72.094 12.0634C72.094 11.0355 72.2884 10.135 72.6771 9.36187C73.0701 8.58877 73.6229 7.98843 74.3356 7.56085C75.0482 7.13327 75.8904 6.91948 76.8622 6.91948C77.8339 6.91948 78.6761 7.13327 79.3888 7.56085C80.1014 7.98843 80.6521 8.58877 81.0408 9.36187C81.4338 10.135 81.6303 11.0355 81.6303 12.0634C81.6303 13.0913 81.4338 13.9897 81.0408 14.7584C80.6521 15.5272 80.1014 16.1254 79.3888 16.553C78.6761 16.9806 77.8339 17.1944 76.8622 17.1944ZM76.8751 15.3156C77.402 15.3156 77.8426 15.1709 78.1967 14.8815C78.5509 14.5878 78.8143 14.1948 78.9871 13.7025C79.1642 13.2101 79.2527 12.6616 79.2527 12.0569C79.2527 11.4479 79.1642 10.8973 78.9871 10.4049C78.8143 9.90822 78.5509 9.51303 78.1967 9.21934C77.8426 8.92565 77.402 8.7788 76.8751 8.7788C76.3352 8.7788 75.8861 8.92565 75.5276 9.21934C75.1734 9.51303 74.9078 9.90822 74.7307 10.4049C74.558 10.8973 74.4716 11.4479 74.4716 12.0569C74.4716 12.6616 74.558 13.2101 74.7307 13.7025C74.9078 14.1948 75.1734 14.5878 75.5276 14.8815C75.8861 15.1709 76.3352 15.3156 76.8751 15.3156ZM86.4843 17.2008C85.8538 17.2008 85.2858 17.0885 84.7805 16.864C84.2795 16.635 83.8821 16.2982 83.5885 15.8533C83.2991 15.4085 83.1544 14.8599 83.1544 14.2078C83.1544 13.6463 83.2581 13.182 83.4654 12.8149C83.6727 12.4478 83.9556 12.1541 84.314 11.9338C84.6725 11.7136 85.0763 11.5473 85.5255 11.435C85.979 11.3184 86.4476 11.2341 86.9314 11.1823C87.5144 11.1219 87.9873 11.0679 88.3501 11.0204C88.7129 10.9685 88.9764 10.8908 89.1405 10.7871C89.309 10.6792 89.3932 10.5129 89.3932 10.2883V10.2494C89.3932 9.76137 89.2485 9.38346 88.9591 9.11568C88.6697 8.84791 88.253 8.71402 87.7088 8.71402C87.1343 8.71402 86.6787 8.83927 86.3418 9.08977C86.0092 9.34027 85.7847 9.63612 85.668 9.97732L83.4783 9.66636C83.6511 9.0617 83.9361 8.55638 84.3335 8.15039C84.7308 7.74009 85.2167 7.43344 85.7911 7.23045C86.3656 7.02313 87.0005 6.91948 87.6958 6.91948C88.1752 6.91948 88.6525 6.97563 89.1276 7.08792C89.6026 7.20021 90.0367 7.38593 90.4297 7.64507C90.8228 7.89989 91.138 8.24757 91.3756 8.6881C91.6175 9.12864 91.7384 9.67931 91.7384 10.3401V17H89.4839V15.633H89.4061C89.2636 15.9095 89.0628 16.1686 88.8036 16.4105C88.5488 16.648 88.227 16.8402 87.8383 16.987C87.4539 17.1296 87.0026 17.2008 86.4843 17.2008ZM87.0933 15.4776C87.5641 15.4776 87.9722 15.3847 88.3177 15.199C88.6633 15.0089 88.9289 14.7584 89.1146 14.4475C89.3046 14.1365 89.3997 13.7975 89.3997 13.4304V12.2577C89.3262 12.3182 89.201 12.3744 89.0239 12.4262C88.8511 12.478 88.6568 12.5234 88.4408 12.5622C88.2249 12.6011 88.0111 12.6357 87.7995 12.6659C87.5878 12.6961 87.4043 12.722 87.2488 12.7436C86.899 12.7911 86.5858 12.8689 86.3094 12.9769C86.033 13.0848 85.8149 13.236 85.6551 13.4304C85.4953 13.6204 85.4154 13.8666 85.4154 14.1689C85.4154 14.6008 85.573 14.9269 85.8883 15.1472C86.2036 15.3674 86.6053 15.4776 87.0933 15.4776ZM94.0966 17V7.04905H96.3705V8.70754H96.4742C96.6556 8.13311 96.9665 7.69042 97.4071 7.37945C97.8519 7.06416 98.3594 6.90652 98.9295 6.90652C99.0591 6.90652 99.2038 6.913 99.3636 6.92596C99.5277 6.93459 99.6637 6.94971 99.7717 6.97131V9.12864C99.6724 9.09409 99.5147 9.06386 99.2988 9.03794C99.0871 9.00771 98.882 8.99259 98.6833 8.99259C98.2557 8.99259 97.8714 9.08545 97.5302 9.27117C97.1933 9.45257 96.9277 9.70523 96.7333 10.0292C96.5389 10.3531 96.4418 10.7267 96.4418 11.1499V17H94.0966ZM104.613 17.1749C103.831 17.1749 103.131 16.9741 102.514 16.5724C101.896 16.1708 101.408 15.5877 101.05 14.8232C100.691 14.0588 100.512 13.1302 100.512 12.0375C100.512 10.9318 100.693 9.99892 101.056 9.23878C101.423 8.47431 101.918 7.89773 102.54 7.50902C103.162 7.11599 103.855 6.91948 104.619 6.91948C105.202 6.91948 105.682 7.01881 106.057 7.21749C106.433 7.41184 106.731 7.64723 106.951 7.92364C107.172 8.19574 107.342 8.45272 107.463 8.69458H107.56V3.73206H109.912V17H107.606V15.4322H107.463C107.342 15.6741 107.167 15.9311 106.939 16.2031C106.71 16.4709 106.407 16.6998 106.032 16.8899C105.656 17.0799 105.183 17.1749 104.613 17.1749ZM105.267 15.2508C105.764 15.2508 106.187 15.1169 106.537 14.8491C106.887 14.577 107.152 14.1991 107.334 13.7154C107.515 13.2317 107.606 12.6681 107.606 12.0245C107.606 11.381 107.515 10.8217 107.334 10.3466C107.157 9.87151 106.893 9.50223 106.543 9.23878C106.198 8.97532 105.772 8.84359 105.267 8.84359C104.744 8.84359 104.308 8.97964 103.958 9.25173C103.609 9.52383 103.345 9.89958 103.168 10.379C102.991 10.8584 102.902 11.4069 102.902 12.0245C102.902 12.6465 102.991 13.2014 103.168 13.6895C103.349 14.1732 103.615 14.5555 103.965 14.8362C104.319 15.1126 104.753 15.2508 105.267 15.2508ZM114.756 3.73206V17H112.411V3.73206H114.756ZM118.626 20.7316C118.306 20.7316 118.01 20.7057 117.738 20.6539C117.47 20.6064 117.257 20.5502 117.097 20.4854L117.641 18.6585C117.982 18.7578 118.287 18.8053 118.554 18.801C118.822 18.7967 119.058 18.7125 119.261 18.5484C119.468 18.3886 119.643 18.1208 119.785 17.745L119.986 17.2073L116.378 7.04905H118.865L121.159 14.5641H121.262L123.562 7.04905H126.057L122.072 18.205C121.887 18.7319 121.64 19.1832 121.334 19.559C121.027 19.9391 120.651 20.2284 120.206 20.4271C119.766 20.6301 119.239 20.7316 118.626 20.7316ZM134.317 3.73206L137.238 8.59093H137.342L140.277 3.73206H143.017L138.929 10.366L143.082 17H140.296L137.342 12.1735H137.238L134.284 17H131.511L135.703 10.366L131.563 3.73206H134.317Z" fill="#232535"/>
<defs>
<linearGradient id="paint0_linear_2_99081" x1="15.311" y1="1.69189" x2="15.371" y2="19.4528" gradientUnits="userSpaceOnUse">
<stop stop-color="#377BFF"/>
<stop offset="1" stop-color="#5E5BFF"/>
</linearGradient>
</defs>
</svg>
