<svg width="79" height="19" viewBox="0 0 79 19" fill="none" xmlns="http://www.w3.org/2000/svg">
<path d="M76.16 14.4737C76.3749 14.1407 76.4984 13.7754 76.5307 13.3779C76.5629 12.9803 76.579 12.5882 76.579 12.2014C76.2674 12.5989 75.886 12.8783 75.4348 13.0394C74.9835 13.2006 74.4947 13.2812 73.9683 13.2812C73.3559 13.2812 72.8241 13.1898 72.3728 13.0072C71.9323 12.8246 71.5831 12.5452 71.3253 12.1692C71.0674 11.8254 70.8902 11.4225 70.7935 10.9605C70.6968 10.4878 70.6484 9.97746 70.6484 9.42953V4.6593H72.9207V9.15557C72.9207 9.44565 72.9422 9.73036 72.9852 10.0097C73.0389 10.2783 73.1464 10.5039 73.3075 10.6866C73.5654 11.0733 74.0327 11.2667 74.7096 11.2667C75.0319 11.2667 75.3327 11.2023 75.6121 11.0733C75.8914 10.9337 76.1116 10.7188 76.2728 10.4287C76.4125 10.1816 76.4984 9.92374 76.5307 9.65515C76.5629 9.37581 76.579 9.07499 76.579 8.75268V4.6593H78.8674V11.6374C78.8674 12.0241 78.862 12.4217 78.8513 12.8299C78.8513 13.2275 78.8191 13.6196 78.7546 14.0064C78.7009 14.3931 78.5988 14.7692 78.4484 15.1345C78.298 15.4998 78.0885 15.8382 77.8199 16.1498C77.4439 16.5795 76.9497 16.9233 76.3373 17.1812C75.7356 17.439 75.0104 17.5626 74.1617 17.5518C73.5385 17.5626 72.9207 17.4766 72.3084 17.294C71.696 17.1221 71.1319 16.8696 70.6162 16.5365L71.3414 14.6027C71.6208 14.8068 71.9914 14.9948 72.4534 15.1667C72.9261 15.3386 73.4794 15.4246 74.1133 15.4246C74.629 15.4246 75.048 15.3386 75.3703 15.1667C75.7034 15.0055 75.9666 14.7746 76.16 14.4737Z" fill="#6E7186"/>
<path d="M65.6784 11.2667C66.1081 11.2667 66.4465 11.1647 66.6936 10.9605C66.9515 10.7564 67.1073 10.5254 67.161 10.2676H69.5461C69.4709 10.8155 69.3151 11.2775 69.0788 11.6535C68.8424 12.0295 68.5469 12.3411 68.1924 12.5882C67.8486 12.8353 67.4564 13.0126 67.016 13.12C66.5755 13.2275 66.1188 13.2812 65.6461 13.2812C64.937 13.2812 64.3193 13.1845 63.7928 12.9911C63.2771 12.787 62.8474 12.4969 62.5036 12.1209C62.1598 11.7341 61.8965 11.2721 61.7139 10.7349C61.542 10.187 61.4561 9.5746 61.4561 8.89774C61.4561 8.24237 61.5527 7.64072 61.7461 7.09279C61.9395 6.54486 62.2135 6.0775 62.568 5.69073C62.9333 5.30395 63.3792 5.0085 63.9056 4.80437C64.4321 4.58949 65.0337 4.48206 65.7106 4.48206C66.2048 4.48206 66.6668 4.54115 67.0965 4.65933C67.537 4.77751 67.9238 4.96015 68.2569 5.20726C68.6007 5.45437 68.88 5.77131 69.0949 6.15808C69.3205 6.53411 69.4709 6.98535 69.5461 7.5118H67.161C67.1073 7.25395 66.9461 7.02296 66.6775 6.81882C66.4197 6.61469 66.0812 6.51263 65.6622 6.51263C65.3077 6.51263 65.0015 6.57709 64.7436 6.70602C64.4858 6.83494 64.2817 7.01221 64.1313 7.23783C63.9808 7.46345 63.8734 7.7213 63.8089 8.01138C63.7445 8.30146 63.7122 8.60766 63.7122 8.92997C63.7122 9.27377 63.7498 9.59072 63.8251 9.8808C63.9003 10.1601 64.0131 10.4072 64.1635 10.6221C64.3139 10.8262 64.5127 10.9874 64.7598 11.1056C65.0176 11.213 65.3238 11.2667 65.6784 11.2667Z" fill="#6E7186"/>
<path d="M54.5374 5.73907C55.225 4.9118 56.0738 4.49279 57.0837 4.48205C57.6316 4.47131 58.1151 4.56263 58.5341 4.75602C58.9531 4.93866 59.2916 5.19114 59.5494 5.51345C59.861 5.88948 60.0759 6.32998 60.194 6.83493C60.3122 7.32915 60.3713 7.88245 60.3713 8.49485V13.1523H58.0829V8.67212C58.0829 8.37129 58.0507 8.08658 57.9862 7.81799C57.9325 7.53865 57.8358 7.30229 57.6961 7.1089C57.5564 6.90477 57.3684 6.75436 57.1321 6.65766C56.9064 6.56097 56.6486 6.51262 56.3585 6.51262C55.9932 6.52336 55.6817 6.60394 55.4238 6.75436C55.1767 6.90477 54.9887 7.09816 54.8598 7.33452C54.7308 7.56014 54.6395 7.81799 54.5858 8.10807C54.5428 8.38741 54.5213 8.67212 54.5213 8.9622V13.1523H52.249V4.65932H54.4246L54.5374 5.73907Z" fill="#6E7186"/>
<path d="M47.1388 11.4279C47.4611 11.4279 47.7351 11.3796 47.9607 11.2829C48.1971 11.1754 48.3904 11.0035 48.5409 10.7672H50.926C50.8078 11.2077 50.6252 11.5891 50.378 11.9114C50.1417 12.2337 49.8516 12.4969 49.5078 12.701C49.1747 12.9052 48.8041 13.0556 48.3958 13.1523C47.9876 13.2382 47.5578 13.2812 47.1066 13.2812C45.7314 13.2812 44.6892 12.8944 43.9801 12.1209C43.2818 11.3473 42.9326 10.2622 42.9326 8.86551C42.9326 8.23163 43.0239 7.64609 43.2066 7.10891C43.4 6.57172 43.6686 6.10974 44.0124 5.72296C44.3562 5.32544 44.7805 5.01924 45.2855 4.80437C45.8012 4.58949 46.3867 4.48206 47.0421 4.48206C47.8049 4.48206 48.4657 4.61635 49.0243 4.88495C49.583 5.15354 50.0235 5.5242 50.3458 5.99693C50.6789 6.45891 50.8991 7.00147 51.0066 7.62461C51.1247 8.24774 51.1247 8.91386 51.0066 9.62295H45.2049C45.2479 10.1279 45.4252 10.5577 45.7367 10.9122C46.0483 11.256 46.5157 11.4279 47.1388 11.4279ZM48.8954 8.05973C48.8954 7.79113 48.8471 7.55477 48.7504 7.35064C48.6537 7.13577 48.5247 6.96386 48.3636 6.83494C48.2024 6.69527 48.009 6.5932 47.7834 6.52874C47.5686 6.46428 47.3429 6.43205 47.1066 6.43205C46.5371 6.44279 46.0913 6.59858 45.769 6.8994C45.4574 7.18948 45.2748 7.57626 45.221 8.05973H48.8954Z" fill="#6E7186"/>
<path d="M39.5054 12.282C39.183 12.6473 38.7963 12.9052 38.345 13.0556C37.8938 13.206 37.405 13.2812 36.8785 13.2812C36.3521 13.2812 35.8364 13.2006 35.3314 13.0395C34.8372 12.8676 34.4074 12.5936 34.0422 12.2176C33.6339 11.7878 33.3492 11.2936 33.188 10.7349C33.0269 10.1763 32.9463 9.60146 32.9463 9.01055C32.9463 7.61386 33.3331 6.49651 34.1066 5.6585C34.4397 5.29321 34.8694 5.0085 35.3959 4.80437C35.9331 4.60024 36.5078 4.50355 37.1202 4.51429C37.5178 4.4928 37.9475 4.56264 38.4095 4.72379C38.8715 4.88495 39.269 5.15354 39.602 5.52958L39.8438 4.65933H41.8099V12.6205C41.8099 12.9643 41.7884 13.3027 41.7454 13.6357C41.7132 13.9795 41.6541 14.3072 41.5682 14.6188C41.4822 14.9411 41.3533 15.2473 41.1814 15.5374C40.988 15.8919 40.7516 16.1928 40.4723 16.4399C40.2037 16.687 39.9029 16.8911 39.5698 17.0523C39.2368 17.2242 38.8822 17.3477 38.5062 17.4229C38.1302 17.4981 37.7488 17.5357 37.362 17.5357C36.8678 17.5357 36.395 17.4766 35.9438 17.3585C35.4926 17.251 35.0789 17.0684 34.7029 16.8105C34.3376 16.5634 34.0314 16.2465 33.7843 15.8597C33.5479 15.4729 33.3922 15.0109 33.3169 14.4738H35.7343C35.7773 14.7316 35.9492 14.9626 36.25 15.1667C36.5508 15.3709 36.9161 15.4729 37.3459 15.4729C37.8078 15.4729 38.1839 15.3816 38.474 15.199C38.7748 15.0163 39.0004 14.7746 39.1508 14.4738C39.3012 14.1729 39.3979 13.8291 39.4409 13.4424C39.4839 13.0556 39.5054 12.6688 39.5054 12.282ZM37.3942 11.2667C37.7488 11.2667 38.0603 11.2023 38.3289 11.0734C38.6083 10.9444 38.8339 10.7725 39.0058 10.5577C39.1777 10.332 39.3066 10.0742 39.3925 9.7841C39.4785 9.48328 39.5215 9.16634 39.5215 8.83328C39.5215 8.16717 39.3335 7.61924 38.9574 7.18949C38.5921 6.74899 38.0657 6.52337 37.3781 6.51263C37.0235 6.51263 36.7066 6.57709 36.4273 6.70602C36.1587 6.83494 35.9331 7.00684 35.7504 7.22172C35.5785 7.43659 35.4496 7.68907 35.3636 7.97915C35.2777 8.26924 35.2347 8.5808 35.2347 8.91386C35.2347 9.2684 35.2777 9.59072 35.3636 9.8808C35.4603 10.1601 35.6 10.4072 35.7826 10.6221C35.9653 10.8262 36.1909 10.9874 36.4595 11.1056C36.7281 11.213 37.0397 11.2667 37.3942 11.2667Z" fill="#6E7186"/>
<path d="M29.703 12.1048C29.3807 12.5345 28.9885 12.8407 28.5265 13.0233C28.0646 13.206 27.5274 13.2919 26.915 13.2812C26.1307 13.2597 25.4753 13.0395 24.9489 12.6205C24.6695 12.3841 24.4493 12.1048 24.2881 11.7824C24.1377 11.4494 24.0625 11.0572 24.0625 10.606C24.0732 10.144 24.1753 9.73576 24.3687 9.38121C24.5728 9.01592 24.879 8.7151 25.2873 8.47874C25.6311 8.29609 26.0179 8.16717 26.4476 8.09196C26.8881 8.01675 27.3662 7.97915 27.8819 7.97915H29.6224C29.6546 7.45271 29.5311 7.06056 29.2517 6.80271C28.9831 6.53411 28.6017 6.39445 28.1075 6.3837C27.9464 6.3837 27.7798 6.39445 27.6079 6.41593C27.436 6.43742 27.2749 6.4804 27.1245 6.54486C26.9848 6.60932 26.8612 6.70064 26.7538 6.81882C26.6571 6.92626 26.5927 7.06056 26.5604 7.22172H24.2237C24.2774 6.70601 24.417 6.27626 24.6427 5.93246C24.879 5.57792 25.1745 5.29321 25.529 5.07833C25.8836 4.86346 26.2757 4.71305 26.7055 4.6271C27.146 4.5304 27.5972 4.48206 28.0592 4.48206C28.317 4.48206 28.5803 4.49817 28.8488 4.5304C29.1174 4.55189 29.3807 4.60561 29.6385 4.69156C29.8964 4.76677 30.1381 4.8742 30.3637 5.01387C30.6001 5.1428 30.8203 5.3147 31.0245 5.52957C31.3897 5.94858 31.6154 6.43205 31.7013 6.97998C31.798 7.51717 31.841 8.04361 31.8302 8.55931V13.1523H29.7513L29.703 12.1048ZM29.6224 9.39733H27.9625C27.8013 9.39733 27.6187 9.41344 27.4146 9.44567C27.2104 9.47791 27.0332 9.537 26.8827 9.62295C26.7323 9.7089 26.6034 9.82171 26.496 9.96137C26.3993 10.101 26.3509 10.2729 26.3509 10.4771C26.3509 10.649 26.3832 10.7994 26.4476 10.9283C26.5228 11.0572 26.6141 11.1647 26.7216 11.2506C26.8398 11.3366 26.9794 11.4064 27.1406 11.4601C27.3017 11.5031 27.4629 11.5246 27.6241 11.5246C27.9356 11.5353 28.2257 11.4816 28.4943 11.3634C28.7736 11.2453 29.0154 11.0787 29.2195 10.8639C29.3484 10.692 29.4451 10.4986 29.5096 10.2837C29.5848 10.0581 29.6224 9.76261 29.6224 9.39733Z" fill="#6E7186"/>
<path fill-rule="evenodd" clip-rule="evenodd" d="M17.8916 9.56167C17.8006 11.1527 17.2862 12.694 16.3974 14.0242C15.4136 15.4965 14.0153 16.6441 12.3794 17.3217C10.7434 17.9993 8.94321 18.1766 7.20647 17.8312C5.46973 17.4857 3.87443 16.633 2.62232 15.3809C1.3702 14.1288 0.517495 12.5335 0.172036 10.7968C-0.173423 9.06001 0.00387925 7.25984 0.681521 5.62387C1.35916 3.98789 2.50671 2.58961 3.97904 1.60582C5.30922 0.717024 6.85053 0.202619 8.44155 0.111572V4.60284C7.73723 4.68386 7.05963 4.93136 6.46609 5.32795C5.72992 5.81984 5.15615 6.51899 4.81733 7.33697C4.47851 8.15496 4.38986 9.05505 4.56259 9.92342C4.73532 10.7918 5.16167 11.5894 5.78773 12.2155C6.41379 12.8416 7.21143 13.2679 8.0798 13.4406C8.94817 13.6134 9.84826 13.5247 10.6662 13.1859C11.4842 12.8471 12.1834 12.2733 12.6753 11.5371C13.0719 10.9436 13.3194 10.266 13.4004 9.56167H17.8916Z" fill="#6E7186"/>
<path fill-rule="evenodd" clip-rule="evenodd" d="M13.4282 0.0969238H9.76562V4.57348H13.4282V8.23596H17.9048V4.57348H17.9049V0.0969238H17.0858H13.4282Z" fill="#6E7186"/>
</svg>
