<svg width="95" height="20" viewBox="0 0 95 20" fill="none" xmlns="http://www.w3.org/2000/svg">
<path d="M93.5429 9.62255L91.3109 9.75989C91.2728 9.56913 91.1907 9.39745 91.0648 9.24484C90.9389 9.08841 90.773 8.96441 90.5669 8.87285C90.3647 8.77747 90.1225 8.72978 89.8401 8.72978C89.4624 8.72978 89.1439 8.8099 88.8844 8.97014C88.625 9.12656 88.4953 9.3364 88.4953 9.59965C88.4953 9.80949 88.5792 9.9869 88.7471 10.1319C88.9149 10.2769 89.203 10.3932 89.6112 10.481L91.2022 10.8015C92.0568 10.977 92.694 11.2593 93.1136 11.6484C93.5333 12.0376 93.7431 12.5488 93.7431 13.1822C93.7431 13.7583 93.5734 14.2638 93.2338 14.6987C92.8981 15.1337 92.4364 15.4732 91.8489 15.7174C91.2651 15.9578 90.5918 16.078 89.8287 16.078C88.665 16.078 87.7379 15.8357 87.0474 15.3512C86.3606 14.8628 85.9581 14.1989 85.8398 13.3596L88.2377 13.2337C88.3102 13.5885 88.4857 13.8594 88.7642 14.0463C89.0428 14.2295 89.3995 14.321 89.8344 14.321C90.2617 14.321 90.6051 14.239 90.8645 14.0749C91.1278 13.9071 91.2613 13.6915 91.2651 13.4283C91.2613 13.207 91.1679 13.0258 90.9847 12.8846C90.8016 12.7396 90.5193 12.629 90.1377 12.5527L88.6154 12.2493C87.757 12.0777 87.118 11.7801 86.6983 11.3566C86.2824 10.9331 86.0745 10.3932 86.0745 9.737C86.0745 9.17235 86.2271 8.6859 86.5323 8.27767C86.8413 7.86944 87.2744 7.55468 87.8314 7.33339C88.3923 7.11211 89.0485 7.00146 89.8001 7.00146C90.9103 7.00146 91.784 7.2361 92.4212 7.70538C93.0621 8.17466 93.436 8.81371 93.5429 9.62255Z" fill="#6E7186"/>
<path d="M84.494 9.62255L82.2621 9.75989C82.2239 9.56913 82.1419 9.39745 82.016 9.24484C81.8901 9.08841 81.7241 8.96441 81.5181 8.87285C81.3159 8.77747 81.0736 8.72978 80.7913 8.72978C80.4136 8.72978 80.095 8.8099 79.8356 8.97014C79.5762 9.12656 79.4464 9.3364 79.4464 9.59965C79.4464 9.80949 79.5304 9.9869 79.6982 10.1319C79.8661 10.2769 80.1542 10.3932 80.5624 10.481L82.1534 10.8015C83.008 10.977 83.6451 11.2593 84.0648 11.6484C84.4845 12.0376 84.6943 12.5488 84.6943 13.1822C84.6943 13.7583 84.5245 14.2638 84.185 14.6987C83.8492 15.1337 83.3876 15.4732 82.8 15.7174C82.2163 15.9578 81.5429 16.078 80.7799 16.078C79.6162 16.078 78.6891 15.8357 77.9985 15.3512C77.3118 14.8628 76.9093 14.1989 76.791 13.3596L79.1889 13.2337C79.2614 13.5885 79.4369 13.8594 79.7154 14.0463C79.9939 14.2295 80.3507 14.321 80.7856 14.321C81.2129 14.321 81.5563 14.239 81.8157 14.0749C82.079 13.9071 82.2125 13.6915 82.2163 13.4283C82.2125 13.207 82.119 13.0258 81.9359 12.8846C81.7528 12.7396 81.4704 12.629 81.0889 12.5527L79.5666 12.2493C78.7082 12.0777 78.0691 11.7801 77.6494 11.3566C77.2336 10.9331 77.0257 10.3932 77.0257 9.737C77.0257 9.17235 77.1783 8.6859 77.4835 8.27767C77.7925 7.86944 78.2256 7.55468 78.7826 7.33339C79.3434 7.11211 79.9996 7.00146 80.7513 7.00146C81.8615 7.00146 82.7352 7.2361 83.3723 7.70538C84.0133 8.17466 84.3872 8.81371 84.494 9.62255Z" fill="#6E7186"/>
<path d="M71.5542 16.078C70.65 16.078 69.8717 15.8948 69.2193 15.5286C68.5707 15.1585 68.0709 14.6358 67.7199 13.9605C67.3689 13.2814 67.1934 12.4783 67.1934 11.5512C67.1934 10.6469 67.3689 9.85337 67.7199 9.17044C68.0709 8.48751 68.5649 7.95528 69.2021 7.57375C69.8431 7.19223 70.5947 7.00146 71.4569 7.00146C72.0368 7.00146 72.5767 7.09494 73.0765 7.28189C73.5801 7.46502 74.0189 7.74162 74.3927 8.1117C74.7705 8.48178 75.0642 8.94725 75.2741 9.50809C75.4839 10.0651 75.5888 10.7175 75.5888 11.4653V12.1349H68.1662V10.624H73.294C73.294 10.273 73.2176 9.9621 73.065 9.69122C72.9124 9.42034 72.7007 9.20859 72.4298 9.05598C72.1627 8.89955 71.8518 8.82134 71.497 8.82134C71.1269 8.82134 70.7988 8.90719 70.5126 9.07887C70.2303 9.24674 70.009 9.47375 69.8488 9.75989C69.6885 10.0422 69.6065 10.357 69.6027 10.7042V12.1406C69.6027 12.5756 69.6828 12.9514 69.8431 13.268C70.0071 13.5847 70.2379 13.8289 70.5355 14.0006C70.8331 14.1722 71.186 14.2581 71.5943 14.2581C71.8651 14.2581 72.1131 14.2199 72.3382 14.1436C72.5633 14.0673 72.756 13.9529 72.9162 13.8003C73.0765 13.6476 73.1986 13.4607 73.2825 13.2394L75.5373 13.3882C75.4229 13.93 75.1882 14.4031 74.8334 14.8075C74.4824 15.2081 74.0284 15.5209 73.4714 15.746C72.9182 15.9673 72.2791 16.078 71.5542 16.078Z" fill="#6E7186"/>
<path d="M59.9614 10.8244V15.9063H57.5234V7.11592H59.8469V8.66682H59.9499C60.1445 8.15558 60.4707 7.75116 60.9286 7.45357C61.3864 7.15217 61.9415 7.00146 62.5939 7.00146C63.2044 7.00146 63.7366 7.135 64.1906 7.40207C64.6446 7.66913 64.9975 8.05066 65.2493 8.54664C65.5011 9.03881 65.627 9.62636 65.627 10.3093V15.9063H63.1891V10.7442C63.1929 10.2063 63.0556 9.7866 62.777 9.4852C62.4985 9.17998 62.1151 9.02737 61.6267 9.02737C61.2986 9.02737 61.0087 9.09795 60.7569 9.23911C60.5089 9.38028 60.3143 9.5863 60.1731 9.85718C60.0358 10.1243 59.9652 10.4466 59.9614 10.8244Z" fill="#6E7186"/>
<path d="M53.1326 15.9063V7.11593H55.5705V15.9063H53.1326ZM54.3573 5.9828C53.9948 5.9828 53.6839 5.86262 53.4245 5.62226C53.1688 5.37808 53.041 5.08621 53.041 4.74666C53.041 4.41091 53.1688 4.12286 53.4245 3.8825C53.6839 3.63832 53.9948 3.51624 54.3573 3.51624C54.7197 3.51624 55.0288 3.63832 55.2844 3.8825C55.5438 4.12286 55.6735 4.41091 55.6735 4.74666C55.6735 5.08621 55.5438 5.37808 55.2844 5.62226C55.0288 5.86262 54.7197 5.9828 54.3573 5.9828Z" fill="#6E7186"/>
<path d="M51.3973 9.62255L49.1654 9.75989C49.1273 9.56913 49.0452 9.39745 48.9193 9.24484C48.7934 9.08841 48.6275 8.96441 48.4214 8.87285C48.2192 8.77747 47.977 8.72978 47.6946 8.72978C47.3169 8.72978 46.9983 8.8099 46.7389 8.97014C46.4795 9.12656 46.3498 9.3364 46.3498 9.59965C46.3498 9.80949 46.4337 9.9869 46.6016 10.1319C46.7694 10.2769 47.0575 10.3932 47.4657 10.481L49.0567 10.8015C49.9113 10.977 50.5484 11.2593 50.9681 11.6484C51.3878 12.0376 51.5976 12.5488 51.5976 13.1822C51.5976 13.7583 51.4279 14.2638 51.0883 14.6987C50.7526 15.1337 50.2909 15.4732 49.7034 15.7174C49.1196 15.9578 48.4462 16.078 47.6832 16.078C46.5195 16.078 45.5924 15.8357 44.9019 15.3512C44.2151 14.8628 43.8126 14.1989 43.6943 13.3596L46.0922 13.2337C46.1647 13.5885 46.3402 13.8594 46.6187 14.0463C46.8972 14.2295 47.254 14.321 47.6889 14.321C48.1162 14.321 48.4596 14.239 48.719 14.0749C48.9823 13.9071 49.1158 13.6915 49.1196 13.4283C49.1158 13.207 49.0223 13.0258 48.8392 12.8846C48.6561 12.7396 48.3737 12.629 47.9922 12.5527L46.4699 12.2493C45.6115 12.0777 44.9724 11.7801 44.5528 11.3566C44.1369 10.9331 43.929 10.3932 43.929 9.737C43.929 9.17235 44.0816 8.6859 44.3868 8.27767C44.6958 7.86944 45.1289 7.55468 45.6859 7.33339C46.2467 7.11211 46.903 7.00146 47.6546 7.00146C48.7648 7.00146 49.6385 7.2361 50.2757 7.70538C50.9166 8.17466 51.2905 8.81371 51.3973 9.62255Z" fill="#6E7186"/>
<path d="M39.6947 12.1634V7.11584H42.1326V15.9062H39.7919V14.3095H39.7004C39.502 14.8246 39.172 15.2385 38.7103 15.5514C38.2525 15.8642 37.6936 16.0207 37.0335 16.0207C36.446 16.0207 35.929 15.8871 35.4826 15.6201C35.0362 15.353 34.6871 14.9734 34.4353 14.4812C34.1873 13.989 34.0614 13.3996 34.0576 12.7128V7.11584H36.4956V12.2779C36.4994 12.7968 36.6386 13.2069 36.9133 13.5083C37.188 13.8097 37.5562 13.9604 38.0179 13.9604C38.3116 13.9604 38.5863 13.8936 38.8419 13.7601C39.0976 13.6228 39.3036 13.4206 39.46 13.1535C39.6203 12.8864 39.6985 12.5564 39.6947 12.1634Z" fill="#6E7186"/>
<path d="M23.8584 15.9063V4.18579H26.2963V8.59241H26.3707C26.4776 8.35587 26.6321 8.11551 26.8343 7.87133C27.0403 7.62334 27.3074 7.41731 27.6355 7.25326C27.9674 7.08539 28.3795 7.00145 28.8716 7.00145C29.5126 7.00145 30.104 7.16932 30.6457 7.50506C31.1875 7.83699 31.6205 8.3387 31.9448 9.01018C32.2691 9.67785 32.4313 10.5153 32.4313 11.5225C32.4313 12.5031 32.2729 13.331 31.9563 14.0063C31.6434 14.6777 31.2161 15.1871 30.6744 15.5343C30.1364 15.8776 29.5336 16.0493 28.8659 16.0493C28.3928 16.0493 27.9903 15.9711 27.6584 15.8147C27.3303 15.6583 27.0613 15.4618 26.8515 15.2252C26.6416 14.9849 26.4814 14.7426 26.3707 14.4984H26.262V15.9063H23.8584ZM26.2448 11.5111C26.2448 12.0338 26.3173 12.4897 26.4623 12.8789C26.6073 13.268 26.8171 13.5713 27.0918 13.7888C27.3665 14.0024 27.7004 14.1093 28.0933 14.1093C28.4901 14.1093 28.8259 14.0005 29.1006 13.7831C29.3753 13.5618 29.5832 13.2566 29.7244 12.8674C29.8693 12.4744 29.9418 12.0223 29.9418 11.5111C29.9418 11.0037 29.8712 10.5573 29.7301 10.1719C29.5889 9.78659 29.381 9.48518 29.1063 9.26771C28.8316 9.05024 28.4939 8.94151 28.0933 8.94151C27.6965 8.94151 27.3608 9.04643 27.0861 9.25627C26.8152 9.46611 26.6073 9.7637 26.4623 10.149C26.3173 10.5344 26.2448 10.9884 26.2448 11.5111Z" fill="#6E7186"/>
<path fill-rule="evenodd" clip-rule="evenodd" d="M9.93814 7.66423L12.5753 10.3014L10.0643 12.8124L7.42713 10.1752L9.93814 7.66423ZM7.23427 4.96037L5.58085 3.30695C5.48654 3.21264 5.48654 3.05972 5.58085 2.96541L7.94318 0.603083C8.0375 0.50877 8.19041 0.50877 8.28472 0.603083L16.3607 8.67911C17.2567 9.57509 17.2567 11.0278 16.3607 11.9237L12.7682 15.5163L14.4216 17.1697C14.5159 17.264 14.5159 17.4169 14.4216 17.5113L12.0593 19.8736C11.965 19.9679 11.812 19.9679 11.7177 19.8736L3.64171 11.7976C2.74573 10.9016 2.74573 9.44891 3.64171 8.55293L7.23427 4.96037Z" fill="#6E7186"/>
</svg>
