<svg width="100" height="21" viewBox="0 0 100 21" fill="none" xmlns="http://www.w3.org/2000/svg">
<path d="M96.172 6.72937H98.5195L95.4235 15.2348C94.539 17.6844 93.093 18.7561 90.9326 18.637V16.5957C92.1404 16.6127 92.7528 16.1024 93.1611 14.9627L89.6738 6.72937H92.0724L94.2838 12.4451L96.172 6.72937Z" fill="#6E7186"/>
<path d="M85.7203 6.49121C87.5234 6.49121 88.9353 7.75002 88.9353 10.0125V15.2348H86.7409V10.2847C86.7409 9.12791 86.0435 8.53253 85.0568 8.53253C83.9851 8.53253 83.1856 9.16193 83.1856 10.6419V15.2348H80.9912V6.72936H83.1856V7.68198C83.696 6.91648 84.5805 6.49121 85.7203 6.49121Z" fill="#6E7186"/>
<path d="M76.8068 6.72936H79.0013V15.2348H76.8068V14.2312C76.1944 14.9967 75.2759 15.473 74.0341 15.473C71.7716 15.473 69.9004 13.5167 69.9004 10.9821C69.9004 8.44747 71.7716 6.49121 74.0341 6.49121C75.2759 6.49121 76.1944 6.96752 76.8068 7.73301V6.72936ZM74.4423 13.3806C75.8032 13.3806 76.8068 12.411 76.8068 10.9821C76.8068 9.55318 75.8032 8.58356 74.4423 8.58356C73.0985 8.58356 72.0948 9.55318 72.0948 10.9821C72.0948 12.411 73.0985 13.3806 74.4423 13.3806Z" fill="#6E7186"/>
<path d="M64.6445 6.49121C66.924 6.49121 68.7952 8.44747 68.7952 10.9821C68.7952 13.5167 66.924 15.473 64.6445 15.473C63.4027 15.473 62.5011 15.0137 61.8887 14.2312V18.637H59.6943V6.72936H61.8887V7.73301C62.5011 6.95051 63.4027 6.49121 64.6445 6.49121ZM64.2363 13.3806C65.5971 13.3806 66.6008 12.411 66.6008 10.9821C66.6008 9.55318 65.5971 8.58356 64.2363 8.58356C62.8924 8.58356 61.8887 9.55318 61.8887 10.9821C61.8887 12.411 62.8924 13.3806 64.2363 13.3806Z" fill="#6E7186"/>
<path d="M54.616 6.49121C56.5553 6.49121 57.8311 7.8691 57.8311 9.99547V15.2348H55.6367V10.1486C55.6367 9.14492 55.1264 8.53253 54.2078 8.53253C53.2382 8.53253 52.6258 9.17894 52.6258 10.4548V15.2348H50.4313V10.1486C50.4313 9.14492 49.921 8.53253 49.0024 8.53253C48.0668 8.53253 47.4034 9.17894 47.4034 10.4548V15.2348H45.209V6.72936H47.4034V7.63094C47.8797 6.91648 48.6792 6.49121 49.7679 6.49121C50.8226 6.49121 51.6051 6.93349 52.0814 7.716C52.6088 6.95051 53.4593 6.49121 54.616 6.49121Z" fill="#6E7186"/>
<path d="M39.1569 15.473C36.6563 15.473 34.666 13.5167 34.666 10.9821C34.666 8.44747 36.6563 6.49121 39.1569 6.49121C41.6575 6.49121 43.6648 8.44747 43.6648 10.9821C43.6648 13.5167 41.6575 15.473 39.1569 15.473ZM39.1569 13.3296C40.4668 13.3296 41.4704 12.36 41.4704 10.9821C41.4704 9.60422 40.4668 8.63459 39.1569 8.63459C37.8641 8.63459 36.8604 9.60422 36.8604 10.9821C36.8604 12.36 37.8641 13.3296 39.1569 13.3296Z" fill="#6E7186"/>
<path d="M30.236 15.473C27.6503 15.473 25.7451 13.5167 25.7451 10.9821C25.7451 8.44747 27.6503 6.49121 30.236 6.49121C31.9031 6.49121 33.349 7.37578 34.0465 8.68562L32.1582 9.79134C31.818 9.09389 31.0866 8.6516 30.219 8.6516C28.9092 8.6516 27.9395 9.62123 27.9395 10.9821C27.9395 12.326 28.9092 13.2956 30.219 13.2956C31.1036 13.2956 31.835 12.8703 32.1753 12.1729L34.0805 13.2616C33.349 14.5884 31.9031 15.473 30.236 15.473Z" fill="#6E7186"/>
<path fill-rule="evenodd" clip-rule="evenodd" d="M7.01812 2.36145C6.28417 2.36145 5.68918 2.95644 5.68918 3.6904V7.8412H1.46176C0.727802 7.8412 0.132812 8.43619 0.132812 9.17015V18.9685C0.132812 19.7025 0.7278 20.2974 1.46176 20.2974H11.1437C11.8777 20.2974 12.4726 19.7025 12.4726 18.9685V14.8177H16.7001C17.434 14.8177 18.029 14.2227 18.029 13.4887V3.6904C18.029 2.95644 17.434 2.36145 16.7001 2.36145H7.01812ZM12.4726 14.8177V9.17015C12.4726 8.43619 11.8777 7.8412 11.1437 7.8412H5.68918V13.4887C5.68918 14.2227 6.28416 14.8177 7.01812 14.8177H12.4726Z" fill="#6E7186"/>
</svg>
