<svg width="112" height="26" viewBox="0 0 112 26" fill="none" xmlns="http://www.w3.org/2000/svg">
<path d="M104.344 9.79823H106.339L106.417 10.8425C106.676 10.4476 106.998 10.1463 107.383 9.9385C107.778 9.7203 108.214 9.61121 108.692 9.61121C110.635 9.61121 111.601 10.8009 111.591 13.1803V13.6011H111.607V17.5909H109.503V13.6011H109.487C109.487 12.853 109.357 12.3335 109.097 12.0425C108.848 11.7412 108.484 11.5905 108.006 11.5905C107.497 11.5905 107.108 11.7568 106.837 12.0893C106.578 12.4114 106.448 12.8789 106.448 13.492V17.5909H104.344V9.79823Z" fill="#6E7186"/>
<path d="M98.9505 17.7779C98.1609 17.7779 97.4543 17.6065 96.8309 17.2636C96.2075 16.9104 95.7192 16.4272 95.3659 15.8142C95.023 15.1908 94.8516 14.4842 94.8516 13.6946C94.8516 12.9049 95.023 12.2036 95.3659 11.5905C95.7192 10.9671 96.2023 10.484 96.8153 10.1411C97.4283 9.78784 98.1297 9.61121 98.9193 9.61121C99.709 9.61121 100.41 9.78784 101.023 10.1411C101.647 10.484 102.13 10.9671 102.473 11.5905C102.826 12.2036 103.003 12.9049 103.003 13.6946C103.003 14.4842 102.831 15.1908 102.488 15.8142C102.146 16.4272 101.662 16.9104 101.039 17.2636C100.426 17.6065 99.7298 17.7779 98.9505 17.7779ZM97.0179 13.6946C97.0179 14.3284 97.1946 14.8479 97.5478 15.2531C97.9115 15.6479 98.3791 15.8454 98.9505 15.8454C99.5116 15.8454 99.9688 15.6479 100.322 15.2531C100.675 14.8479 100.852 14.3284 100.852 13.6946C100.852 13.0608 100.67 12.5465 100.306 12.1516C99.9532 11.7464 99.4908 11.5438 98.9193 11.5438C98.3687 11.5438 97.9115 11.7464 97.5478 12.1516C97.1946 12.5465 97.0179 13.0608 97.0179 13.6946Z" fill="#6E7186"/>
<path d="M91.2877 9.79822H93.3917V17.5909H91.2877V9.79822ZM92.3475 8.56698C92.015 8.56698 91.7293 8.44749 91.4903 8.20851C91.2513 7.96954 91.1318 7.689 91.1318 7.3669C91.1318 7.03442 91.2513 6.74868 91.4903 6.50971C91.7397 6.27073 92.0254 6.15125 92.3475 6.15125C92.6696 6.15125 92.9501 6.27073 93.1891 6.50971C93.4281 6.74868 93.5476 7.03442 93.5476 7.3669C93.5476 7.689 93.4281 7.96954 93.1891 8.20851C92.9605 8.44749 92.68 8.56698 92.3475 8.56698Z" fill="#6E7186"/>
<path d="M88.1034 17.778C87.241 17.778 86.5812 17.565 86.124 17.139C85.6773 16.713 85.4539 16.0999 85.4539 15.2999V11.575H84.207V9.79826H85.4539V7.36694H87.5579V9.79826H89.4905V11.575H87.5579V14.8323C87.5579 15.1752 87.6254 15.4298 87.7605 15.596C87.906 15.7519 88.1242 15.8298 88.4151 15.8298C88.6229 15.8298 88.8567 15.7363 89.1164 15.5493L89.8645 17.1234C89.6048 17.3208 89.319 17.4767 89.0073 17.5909C88.6956 17.7156 88.3943 17.778 88.1034 17.778Z" fill="#6E7186"/>
<path d="M81.2117 16.7026C80.7753 17.4195 80.0583 17.7779 79.0609 17.7779C78.1257 17.7779 77.3984 17.5701 76.8789 17.1545C76.3698 16.7389 76.1152 16.1519 76.1152 15.3934C76.1152 14.5726 76.3906 13.9491 76.9413 13.5231C77.4919 13.0971 78.2712 12.8841 79.2791 12.8841H81.1337C80.9883 11.9178 80.5155 11.4347 79.7155 11.4347C79.0297 11.4347 78.5102 11.7256 78.1569 12.3075L76.3023 11.6685C76.5516 11.0866 76.9568 10.5983 77.5179 10.2034C78.0894 9.80862 78.8219 9.61121 79.7155 9.61121C80.8792 9.61121 81.7623 9.9385 82.365 10.5931C82.9676 11.2373 83.2585 12.1308 83.2378 13.2738L83.2066 17.5909H81.2428L81.2117 16.7026ZM78.266 15.331C78.266 15.5492 78.3699 15.7259 78.5777 15.8609C78.7855 15.9856 79.0713 16.048 79.4349 16.048C79.757 16.048 80.0479 15.97 80.3077 15.8142C80.5778 15.6583 80.7908 15.4557 80.9467 15.2064C81.1026 14.957 81.1805 14.6972 81.1805 14.4271H80.0272C79.3934 14.4271 78.9414 14.505 78.6712 14.6609C78.4011 14.8063 78.266 15.0297 78.266 15.331Z" fill="#6E7186"/>
<path d="M71.7999 17.7779C70.9894 17.7779 70.2673 17.6065 69.6335 17.2636C68.9997 16.9104 68.501 16.4272 68.1373 15.8142C67.7841 15.1908 67.6074 14.4842 67.6074 13.6946C67.6074 12.9049 67.7841 12.2036 68.1373 11.5905C68.4906 10.9671 68.9841 10.484 69.6179 10.1411C70.2517 9.78784 70.9687 9.61121 71.7687 9.61121C72.5688 9.61121 73.2857 9.80862 73.9195 10.2034C74.5637 10.5983 75.0313 11.1542 75.3222 11.8711L73.3428 12.5724C73.1974 12.2711 72.974 12.0321 72.6727 11.8555C72.3714 11.6789 72.0389 11.5905 71.6752 11.5905C71.1141 11.5905 70.657 11.788 70.3037 12.1828C69.9504 12.5672 69.7738 13.0712 69.7738 13.6946C69.7738 14.3076 69.9504 14.8115 70.3037 15.2064C70.6673 15.6012 71.1349 15.7986 71.7064 15.7986C72.07 15.7986 72.4025 15.7051 72.7038 15.5181C73.0052 15.3206 73.2285 15.0609 73.374 14.7388L75.3689 15.4401C75.0676 16.1778 74.6001 16.7545 73.9663 17.1701C73.3324 17.5753 72.6103 17.7779 71.7999 17.7779Z" fill="#6E7186"/>
<path d="M64.0435 9.79822H66.1476V17.5909H64.0435V9.79822ZM65.1034 8.56698C64.7709 8.56698 64.4851 8.44749 64.2462 8.20851C64.0072 7.96954 63.8877 7.689 63.8877 7.3669C63.8877 7.03442 64.0072 6.74868 64.2462 6.50971C64.4955 6.27073 64.7813 6.15125 65.1034 6.15125C65.4255 6.15125 65.706 6.27073 65.945 6.50971C66.1839 6.74868 66.3034 7.03442 66.3034 7.3669C66.3034 7.689 66.1839 7.96954 65.945 8.20851C65.7164 8.44749 65.4358 8.56698 65.1034 8.56698Z" fill="#6E7186"/>
<path d="M60.0527 6.36938H62.1568V17.5909H60.0527V6.36938Z" fill="#6E7186"/>
<path d="M50.7705 9.79823H52.7654L52.8434 10.8736C53.1031 10.4684 53.4304 10.1567 53.8252 9.9385C54.2305 9.7203 54.6928 9.61121 55.2123 9.61121C55.9189 9.61121 56.5371 9.77745 57.067 10.1099C57.6073 10.4424 58.0177 10.9152 58.2982 11.5282C58.5892 12.1412 58.7346 12.8634 58.7346 13.6946C58.7346 14.5154 58.5892 15.2375 58.2982 15.8609C58.0177 16.474 57.6073 16.9467 57.067 17.2792C56.5371 17.6117 55.9189 17.7779 55.2123 17.7779C54.7032 17.7779 54.2512 17.674 53.8564 17.4662C53.4616 17.248 53.1343 16.9415 52.8745 16.5467V20.708H50.7705V9.79823ZM52.8745 13.6946C52.8745 14.3284 53.0408 14.8479 53.3733 15.2531C53.7161 15.6479 54.1525 15.8454 54.6824 15.8454C55.2227 15.8454 55.6695 15.6427 56.0228 15.2375C56.376 14.8323 56.5527 14.318 56.5527 13.6946C56.5527 13.0712 56.376 12.562 56.0228 12.1672C55.6799 11.762 55.2383 11.5594 54.698 11.5594C54.1577 11.5594 53.7161 11.7568 53.3733 12.1516C53.0408 12.5465 52.8745 13.0608 52.8745 13.6946Z" fill="#6E7186"/>
<path d="M41.4102 9.79823H43.4051L43.483 10.8736C43.7428 10.4684 44.0701 10.1567 44.4649 9.9385C44.8701 9.7203 45.3325 9.61121 45.852 9.61121C46.5585 9.61121 47.1767 9.77745 47.7066 10.1099C48.2469 10.4424 48.6574 10.9152 48.9379 11.5282C49.2288 12.1412 49.3743 12.8634 49.3743 13.6946C49.3743 14.5154 49.2288 15.2375 48.9379 15.8609C48.6574 16.474 48.2469 16.9467 47.7066 17.2792C47.1767 17.6117 46.5585 17.7779 45.852 17.7779C45.3429 17.7779 44.8909 17.674 44.4961 17.4662C44.1012 17.248 43.7739 16.9415 43.5142 16.5467V20.708H41.4102V9.79823ZM43.5142 13.6946C43.5142 14.3284 43.6804 14.8479 44.0129 15.2531C44.3558 15.6479 44.7922 15.8454 45.3221 15.8454C45.8624 15.8454 46.3092 15.6427 46.6624 15.2375C47.0157 14.8323 47.1923 14.318 47.1923 13.6946C47.1923 13.0712 47.0157 12.562 46.6624 12.1672C46.3195 11.762 45.878 11.5594 45.3377 11.5594C44.7974 11.5594 44.3558 11.7568 44.0129 12.1516C43.6804 12.5465 43.5142 13.0608 43.5142 13.6946Z" fill="#6E7186"/>
<path d="M37.6824 16.7026C37.246 17.4195 36.529 17.7779 35.5316 17.7779C34.5965 17.7779 33.8691 17.5701 33.3496 17.1545C32.8405 16.7389 32.5859 16.1519 32.5859 15.3934C32.5859 14.5726 32.8613 13.9491 33.412 13.5231C33.9626 13.0971 34.7419 12.8841 35.7498 12.8841H37.6044C37.459 11.9178 36.9862 11.4347 36.1862 11.4347C35.5004 11.4347 34.9809 11.7256 34.6276 12.3075L32.773 11.6685C33.0223 11.0866 33.4275 10.5983 33.9886 10.2034C34.5601 9.80862 35.2926 9.61121 36.1862 9.61121C37.3499 9.61121 38.233 9.9385 38.8357 10.5931C39.4383 11.2373 39.7292 12.1308 39.7085 13.2738L39.6773 17.5909H37.7135L37.6824 16.7026ZM34.7367 15.331C34.7367 15.5492 34.8406 15.7259 35.0484 15.8609C35.2562 15.9856 35.542 16.048 35.9056 16.048C36.2277 16.048 36.5186 15.97 36.7784 15.8142C37.0485 15.6583 37.2615 15.4557 37.4174 15.2064C37.5733 14.957 37.6512 14.6972 37.6512 14.4271H36.4979C35.8641 14.4271 35.4121 14.505 35.1419 14.6609C34.8718 14.8063 34.7367 15.0297 34.7367 15.331Z" fill="#6E7186"/>
<path fill-rule="evenodd" clip-rule="evenodd" d="M11.7686 20.4446V15.784L11.7686 20.4447H18.9216C23.2897 20.4447 26.8307 16.9036 26.8307 12.5355C26.8307 8.58504 23.6283 5.38257 19.6778 5.38257H19.2997C17.5982 5.38257 16.0285 5.94684 14.7675 6.89846C13.8269 5.96164 12.5298 5.38257 11.0974 5.38257H10.9311C8.26834 5.38257 6.08837 7.44985 5.90863 10.067C3.35956 10.3148 1.36719 12.4636 1.36719 15.0777C1.36719 18.0418 3.77006 20.4446 6.73415 20.4446H11.7686Z" fill="#6E7186"/>
</svg>
