<svg width="64" height="64" viewBox="0 0 64 64" fill="none" xmlns="http://www.w3.org/2000/svg">
<path d="M54 12H10C8.34315 12 7 13.3431 7 15V49C7 50.6569 8.34315 52 10 52H54C55.6569 52 57 50.6569 57 49V15C57 13.3431 55.6569 12 54 12Z" fill="#9E62FF"/>
<path d="M10.04 12H54.04C54.8357 12 55.5985 12.3158 56.1611 12.8784C56.7237 13.441 57.04 14.2044 57.04 15V19H7.04004V15C7.04004 14.2044 7.35634 13.441 7.91895 12.8784C8.48155 12.3158 9.24439 12 10.04 12V12Z" fill="#00C5A1"/>
<path d="M19.6499 16.5596C19.3606 16.5597 19.0828 16.4468 18.8755 16.2451C18.6681 16.0434 18.5478 15.7687 18.54 15.4795C18.5318 15.2043 18.6323 14.9369 18.8193 14.7349C19.0063 14.5329 19.265 14.4124 19.54 14.3994H19.6098C19.8963 14.3994 20.171 14.5133 20.3735 14.7158C20.576 14.9184 20.6899 15.1931 20.6899 15.4795C20.6899 15.7659 20.576 16.0406 20.3735 16.2432C20.171 16.4457 19.8963 16.5596 19.6098 16.5596H19.6499Z" fill="white"/>
<path d="M15.2802 16.5596C14.99 16.5598 14.7109 16.4471 14.5019 16.2456C14.293 16.0441 14.1705 15.7695 14.1601 15.4795C14.152 15.2043 14.2519 14.9369 14.4389 14.7349C14.626 14.5329 14.8851 14.4124 15.1601 14.3994H15.2402C15.5266 14.3994 15.8013 14.5133 16.0039 14.7158C16.2064 14.9184 16.3198 15.1931 16.3198 15.4795C16.3198 15.7659 16.2064 16.0406 16.0039 16.2432C15.8013 16.4457 15.5266 16.5596 15.2402 16.5596H15.2802Z" fill="white"/>
<path d="M10.8999 16.5596C10.6106 16.5597 10.3328 16.4468 10.1255 16.2451C9.91814 16.0434 9.79783 15.7687 9.79001 15.4795C9.78184 15.2043 9.88227 14.9369 10.0693 14.7349C10.2563 14.5329 10.515 14.4124 10.79 14.3994H10.8598C11.1463 14.3994 11.421 14.5133 11.6235 14.7158C11.826 14.9184 11.9399 15.1931 11.9399 15.4795C11.9399 15.7659 11.826 16.0406 11.6235 16.2432C11.421 16.4457 11.1463 16.5596 10.8598 16.5596H10.8999Z" fill="white"/>
<path d="M7 18.9502H57" stroke="#0B0B0B" stroke-linecap="round" stroke-linejoin="round"/>
<path d="M31.73 24.8994H14.1602C13.0556 24.8994 12.1602 25.7948 12.1602 26.8994V44.4692C12.1602 45.5738 13.0556 46.4692 14.1602 46.4692H31.73C32.8346 46.4692 33.73 45.5738 33.73 44.4692V26.8994C33.73 25.7948 32.8346 24.8994 31.73 24.8994Z" fill="#BDEA09"/>
<path d="M38.0801 29.54H51.8501" stroke="white" stroke-miterlimit="10" stroke-linecap="round"/>
<path d="M38.0801 35.6797H51.8501" stroke="white" stroke-miterlimit="10" stroke-linecap="round"/>
<path d="M38.0801 41.7598H51.8501" stroke="white" stroke-miterlimit="10" stroke-linecap="round"/>
<path d="M19.3301 39.3296L15.2402 35.2495L19.3301 31.1592" stroke="#0B0B0B" stroke-linecap="round" stroke-linejoin="round"/>
<path d="M26.5601 39.3296L30.6401 35.2495L26.5601 31.1592" stroke="#0B0B0B" stroke-linecap="round" stroke-linejoin="round"/>
<path d="M24.3901 31.4092L21.6001 39.0796" stroke="#0B0B0B" stroke-linecap="round" stroke-linejoin="round"/>
</svg>
