<svg width="64" height="64" viewBox="0 0 64 64" fill="none" xmlns="http://www.w3.org/2000/svg">
<path d="M55 12H9C7.89543 12 7 12.8954 7 14V44C7 45.1046 7.89543 46 9 46H55C56.1046 46 57 45.1046 57 44V14C57 12.8954 56.1046 12 55 12Z" fill="#00C5A1"/>
<path d="M36.73 46H27.2798V52H36.73V46Z" fill="#00C5A1"/>
<path d="M22.29 52H41.71" stroke="#0B0B0B" stroke-miterlimit="10" stroke-linecap="round"/>
<path d="M27.2798 46H36.73" stroke="#0B0B0B" stroke-miterlimit="10"/>
<path d="M9 12H55C55.5304 12 56.039 12.2109 56.4141 12.5859C56.7891 12.961 57 13.4696 57 14V40H7V14C7 13.4696 7.21086 12.961 7.58594 12.5859C7.96101 12.2109 8.46957 12 9 12Z" fill="#BDEA09"/>
<path d="M30.8302 25.0102L35.7599 35.3803C35.7749 35.417 35.8007 35.4481 35.8336 35.4701C35.8666 35.4922 35.9053 35.5043 35.9449 35.5043C35.9846 35.5043 36.0233 35.4922 36.0563 35.4701C36.0892 35.4481 36.1149 35.417 36.13 35.3803L37.13 31.2001C37.1376 31.1648 37.1547 31.1323 37.1793 31.1059C37.204 31.0795 37.2354 31.0603 37.2701 31.0502L41.2701 29.9203C41.3068 29.9053 41.3379 29.8796 41.36 29.8466C41.3821 29.8137 41.3942 29.7749 41.3942 29.7353C41.3942 29.6956 41.3821 29.6569 41.36 29.624C41.3379 29.591 41.3068 29.5653 41.2701 29.5502L31.0699 24.7802C31.0378 24.7731 31.0044 24.7738 30.9728 24.7826C30.9411 24.7915 30.9125 24.8082 30.8888 24.831C30.8651 24.8537 30.8472 24.8818 30.837 24.913C30.8268 24.9443 30.8245 24.9778 30.8302 25.0102V25.0102Z" fill="#3F7DFF"/>
<path d="M24.8398 18.5195L28.1099 21.7896" stroke="#0B0B0B" stroke-linecap="round" stroke-linejoin="round"/>
<path d="M31.6001 21.1392V16.1191" stroke="#0B0B0B" stroke-linecap="round" stroke-linejoin="round"/>
<path d="M27.46 25.2891H22.2197" stroke="#0B0B0B" stroke-linecap="round" stroke-linejoin="round"/>
<path d="M28.2397 28.3789L24.4897 32.1289" stroke="#0B0B0B" stroke-linecap="round" stroke-linejoin="round"/>
<path d="M35.0098 22.5796L38.2798 19.3096" stroke="#0B0B0B" stroke-linecap="round" stroke-linejoin="round"/>
</svg>
