<svg width="64" height="64" viewBox="0 0 64 64" fill="none" xmlns="http://www.w3.org/2000/svg">
<path d="M39.8496 41.9043C39.8496 37.4643 44.6592 37.4642 44.6592 33.0142C44.6592 28.5642 39.8496 28.574 39.8496 24.124C39.8496 19.674 44.6592 19.6844 44.6592 15.2344" stroke="#0B0B0B" stroke-linecap="round" stroke-linejoin="round"/>
<path d="M57 44.773C56.4841 43.3535 55.4439 42.1857 54.0938 41.5088C52.7436 40.8319 51.1853 40.6975 49.7393 41.1333L37.4092 44.8633L27.6699 40.2334H33.4492C35.2466 40.2308 36.9703 39.5156 38.2412 38.2446C39.5121 36.9737 40.2268 35.2505 40.2295 33.4531H19.4492C18.9987 33.4528 18.5533 33.5447 18.1396 33.7231L7 38.4033V56.9932L16.7695 49.273L36.0293 51.9731C36.5783 52.0523 37.1383 51.994 37.6592 51.8032L57 44.773Z" fill="#2B7BFF"/>
<path d="M41.0895 18.5128C41.0895 18.5128 41.2891 13.083 38.1491 9.94297C35.0091 6.80297 29.5797 7.00254 29.5797 7.00254C29.5797 7.00254 29.3792 12.4329 32.5192 15.5729C35.6592 18.7129 41.0895 18.5128 41.0895 18.5128Z" fill="#00C89E"/>
<path d="M44.6895 28.5217C44.6895 28.5217 48.2401 28.6517 50.2901 26.6017C52.3401 24.5517 52.21 21.0016 52.21 21.0016C52.21 21.0016 48.6694 20.872 46.6094 22.922C44.5494 24.972 44.6895 28.5217 44.6895 28.5217Z" fill="#00C89E"/>
<path d="M36.8594 14.2812L41.0898 18.5112" stroke="#0B0B0B" stroke-linecap="round" stroke-linejoin="round"/>
<path d="M47.0498 26.1641L44.6895 28.5142" stroke="#0B0B0B" stroke-linecap="round" stroke-linejoin="round"/>
</svg>
