<svg width="64" height="64" viewBox="0 0 64 64" fill="none" xmlns="http://www.w3.org/2000/svg">
<path d="M16.195 13.7004C16.858 13.7023 17.5067 13.5072 18.0589 13.1403C18.6111 12.7734 19.042 12.2513 19.2971 11.6393C19.5522 11.0274 19.62 10.3533 19.4918 9.70279C19.3637 9.0523 19.0454 8.45453 18.5773 7.98502C18.1092 7.51551 17.5124 7.19517 16.8622 7.0651C16.2121 6.93503 15.5381 7.00081 14.9254 7.25406C14.3126 7.50732 13.7888 7.93683 13.4203 8.48795C13.0517 9.03907 12.855 9.68726 12.855 10.3503C12.855 11.237 13.2066 12.0875 13.8326 12.7155C14.4587 13.3435 15.3083 13.6977 16.195 13.7004Z" fill="#00C5A1"/>
<path d="M22.005 15.3301H10.395C9.49593 15.3301 8.63367 15.687 7.99792 16.3228C7.36217 16.9585 7.005 17.8211 7.005 18.7202V29.3398C6.98519 29.6258 7.02437 29.913 7.12018 30.1831C7.21598 30.4533 7.36634 30.7006 7.56189 30.9102C7.75744 31.1197 7.99402 31.2871 8.25689 31.4014C8.51977 31.5156 8.80339 31.5747 9.09002 31.5747C9.37666 31.5747 9.66021 31.5156 9.92309 31.4014C10.186 31.2871 10.4226 31.1197 10.6181 30.9102C10.8137 30.7006 10.964 30.4533 11.0598 30.1831C11.1556 29.913 11.1948 29.6258 11.175 29.3398V45.5601C11.1829 46.2135 11.4473 46.8376 11.9113 47.2979C12.3752 47.7581 13.0015 48.0174 13.655 48.02C14.3121 48.0201 14.9431 47.7627 15.4124 47.3027C15.8817 46.8428 16.1519 46.217 16.165 45.5601V45.5601C16.2209 46.1845 16.5085 46.7654 16.9711 47.1885C17.4338 47.6116 18.038 47.8462 18.665 47.8462C19.2919 47.8462 19.8962 47.6116 20.3588 47.1885C20.8215 46.7654 21.1091 46.1845 21.165 45.5601V45.5601V29.3501C21.2017 29.8807 21.4384 30.3778 21.8272 30.7407C22.2161 31.1036 22.7281 31.3052 23.26 31.3052C23.7919 31.3052 24.304 31.1036 24.6928 30.7407C25.0817 30.3778 25.3183 29.8807 25.355 29.3501V18.73C25.3577 17.8361 25.0072 16.9771 24.3798 16.3403C23.7524 15.7036 22.8989 15.3406 22.005 15.3301V15.3301Z" fill="#00C5A1"/>
<path d="M16.1948 33.4297V45.5498" stroke="#0B0B0B" stroke-linecap="round" stroke-linejoin="round"/>
<path d="M11.165 21.3398V29.6997" stroke="#0B0B0B" stroke-linecap="round" stroke-linejoin="round"/>
<path d="M21.1948 21.3398V29.6997" stroke="#0B0B0B" stroke-linecap="round" stroke-linejoin="round"/>
<path d="M47.7053 13.7004C48.3683 13.7023 49.0169 13.5072 49.5691 13.1403C50.1213 12.7734 50.5523 12.2513 50.8074 11.6393C51.0625 11.0274 51.1302 10.3533 51.0021 9.70279C50.874 9.0523 50.5557 8.45453 50.0876 7.98502C49.6195 7.51551 49.0226 7.19517 48.3725 7.0651C47.7224 6.93503 47.0483 7.00081 46.4356 7.25406C45.8228 7.50732 45.2991 7.93683 44.9306 8.48795C44.562 9.03907 44.3653 9.68726 44.3652 10.3503C44.3639 10.7897 44.4494 11.2251 44.6167 11.6315C44.7839 12.0379 45.0297 12.4072 45.34 12.7184C45.6503 13.0296 46.0189 13.2765 46.4248 13.445C46.8306 13.6135 47.2658 13.7004 47.7053 13.7004V13.7004Z" fill="#00C5A1"/>
<path d="M53.5151 15.3301H41.9351C41.036 15.3301 40.1737 15.687 39.538 16.3228C38.9022 16.9585 38.545 17.8211 38.545 18.7202V29.3398C38.5252 29.6258 38.5645 29.913 38.6603 30.1831C38.7561 30.4533 38.9064 30.7006 39.102 30.9102C39.2975 31.1197 39.5341 31.2871 39.797 31.4014C40.0599 31.5156 40.3434 31.5747 40.6301 31.5747C40.9167 31.5747 41.2002 31.5156 41.4631 31.4014C41.726 31.2871 41.9626 31.1197 42.1581 30.9102C42.3537 30.7006 42.504 30.4533 42.5998 30.1831C42.6957 29.913 42.7349 29.6258 42.7151 29.3398V45.5601C42.7151 46.2231 42.9784 46.8588 43.4473 47.3276C43.9161 47.7965 44.552 48.0601 45.2151 48.0601C45.8781 48.0601 46.514 47.7965 46.9828 47.3276C47.4517 46.8588 47.7151 46.2231 47.7151 45.5601V45.5601C47.7922 46.1687 48.0887 46.7282 48.5489 47.1338C49.0092 47.5394 49.6016 47.7632 50.2151 47.7632C50.8285 47.7632 51.4209 47.5394 51.8812 47.1338C52.3414 46.7282 52.6379 46.1687 52.7151 45.5601V45.5601V29.3501C52.7518 29.8807 52.9884 30.3778 53.3773 30.7407C53.7661 31.1036 54.2782 31.3052 54.8101 31.3052C55.3419 31.3052 55.854 31.1036 56.2429 30.7407C56.6317 30.3778 56.8683 29.8807 56.905 29.3501V18.73C56.9063 18.284 56.8197 17.8421 56.6499 17.4297C56.4801 17.0172 56.2306 16.6425 55.9157 16.3267C55.6008 16.0108 55.2266 15.7599 54.8147 15.5889C54.4027 15.4179 53.9611 15.3301 53.5151 15.3301V15.3301Z" fill="#00C5A1"/>
<path d="M47.7051 33.4297V45.5498" stroke="#0B0B0B" stroke-linecap="round" stroke-linejoin="round"/>
<path d="M42.6753 21.3398V29.6997" stroke="#0B0B0B" stroke-linecap="round" stroke-linejoin="round"/>
<path d="M52.7051 21.3398V29.6997" stroke="#0B0B0B" stroke-linecap="round" stroke-linejoin="round"/>
<path d="M30.7251 10.7197C28.0729 12.5963 25.0805 13.9377 21.9151 14.6694C21.4296 14.7587 20.9912 15.0161 20.6767 15.3965C20.3621 15.7768 20.1916 16.256 20.1951 16.7495V27.3696C20.1536 28.5663 20.3902 29.756 20.8865 30.8457C21.3828 31.9354 22.1251 32.8952 23.0551 33.6494C24.9251 35.0294 30.4951 38.6994 30.7351 38.8594C31.0821 39.089 31.4889 39.2114 31.905 39.2114C32.3212 39.2114 32.7281 39.089 33.0751 38.8594V38.8594C33.3051 38.6994 38.8851 35.0294 40.7451 33.6494C41.6751 32.8952 42.4174 31.9354 42.9137 30.8457C43.4099 29.756 43.6466 28.5663 43.6051 27.3696V16.7495C43.6089 16.2574 43.4399 15.7796 43.1273 15.3994C42.8148 15.0193 42.3787 14.7608 41.8951 14.6694C38.7256 13.9407 35.7293 12.5991 33.0751 10.7197C32.7301 10.4802 32.3201 10.3516 31.9001 10.3516C31.4801 10.3516 31.0701 10.4802 30.7251 10.7197V10.7197Z" fill="#9E62FF"/>
<path d="M25.5552 23.8706L30.3652 28.6802L38.2352 20.8105" stroke="#0B0B0B" stroke-linecap="round" stroke-linejoin="round"/>
<path d="M31.8952 54.5405L27.2052 57.0103L28.1052 51.7803L24.3052 48.0806L29.5552 47.3203L31.8952 42.5703L34.2452 47.3203L39.4852 48.0806L35.6952 51.7803L36.5852 57.0103L31.8952 54.5405Z" fill="#3F7DFF"/>
<path d="M47.6953 51.5405L43.0153 54.0103L43.9052 48.7803L40.1152 45.0806L45.3552 44.3203L47.6953 39.5703L50.0452 44.3203L55.2952 45.0806L51.4952 48.7803L52.3953 54.0103L47.6953 51.5405Z" fill="#3F7DFF"/>
<path d="M16.195 51.5405L11.505 54.0103L12.395 48.7803L8.60498 45.0806L13.845 44.3203L16.195 39.5703L18.535 44.3203L23.785 45.0806L19.985 48.7803L20.885 54.0103L16.195 51.5405Z" fill="#3F7DFF"/>
</svg>
