<svg width="64" height="64" viewBox="0 0 64 64" fill="none" xmlns="http://www.w3.org/2000/svg">
<path d="M32 31C38.6274 31 44 25.6274 44 19C44 12.3726 38.6274 7 32 7C25.3726 7 20 12.3726 20 19C20 25.6274 25.3726 31 32 31Z" fill="#BDEA09"/>
<path d="M31.9897 24.1196L27.6697 25.6597L27.7997 21.0698L24.9897 17.4297L29.3998 16.1299L31.9897 12.3398L34.5898 16.1299L38.9897 17.4297L36.1998 21.0698L36.3198 25.6597L31.9897 24.1196Z" stroke="#0B0B0B" stroke-miterlimit="10" stroke-linecap="round"/>
<path d="M13 57C16.3137 57 19 54.3137 19 51C19 47.6863 16.3137 45 13 45C9.68629 45 7 47.6863 7 51C7 54.3137 9.68629 57 13 57Z" fill="#6491FC"/>
<path d="M32 57C35.3137 57 38 54.3137 38 51C38 47.6863 35.3137 45 32 45C28.6863 45 26 47.6863 26 51C26 54.3137 28.6863 57 32 57Z" fill="#00C5A1"/>
<path d="M51 57C54.3137 57 57 54.3137 57 51C57 47.6863 54.3137 45 51 45C47.6863 45 45 47.6863 45 51C45 54.3137 47.6863 57 51 57Z" fill="#B17CEF"/>
<path d="M32 31V45" stroke="#0B0B0B" stroke-miterlimit="10" stroke-linecap="round"/>
<path d="M13 45V42C13 40.9391 13.4214 39.9215 14.1716 39.1714C14.9217 38.4212 15.9391 38 17 38H47C48.0609 38 49.0783 38.4212 49.8284 39.1714C50.5786 39.9215 51 40.9391 51 42V45" stroke="#0B0B0B" stroke-miterlimit="10" stroke-linecap="round"/>
</svg>
