<svg width="64" height="64" viewBox="0 0 64 64" fill="none" xmlns="http://www.w3.org/2000/svg">
<path d="M40.7103 25V15.71C40.7116 14.5666 40.4875 13.4341 40.0509 12.3774C39.6143 11.3208 38.9736 10.3607 38.1656 9.55176C37.3576 8.74283 36.3981 8.10093 35.3419 7.66309C34.2857 7.22524 33.1536 7 32.0103 7V7C29.7002 7 27.4849 7.91734 25.8514 9.55078C24.218 11.1842 23.3003 13.3999 23.3003 15.71V25" stroke="#0B0B0B" stroke-miterlimit="10" stroke-linecap="round"/>
<path d="M16.0103 36.4492H10.5103C10.245 36.4492 9.99076 36.3438 9.80322 36.1562C9.61569 35.9687 9.51025 35.7144 9.51025 35.4492V28.4492" stroke="#0B0B0B" stroke-linecap="round" stroke-linejoin="round"/>
<path d="M16.0103 45.5898H10.5103C10.245 45.5898 9.99076 45.6953 9.80322 45.8828C9.61569 46.0703 9.51025 46.3246 9.51025 46.5898V53.5898" stroke="#0B0B0B" stroke-linecap="round" stroke-linejoin="round"/>
<path d="M16 41H10.75" stroke="#0B0B0B" stroke-linecap="round" stroke-linejoin="round"/>
<path d="M9.5 30C10.8807 30 12 28.8807 12 27.5C12 26.1193 10.8807 25 9.5 25C8.11929 25 7 26.1193 7 27.5C7 28.8807 8.11929 30 9.5 30Z" fill="#B17CEF"/>
<path d="M9.5 43.5C10.8807 43.5 12 42.3807 12 41C12 39.6193 10.8807 38.5 9.5 38.5C8.11929 38.5 7 39.6193 7 41C7 42.3807 8.11929 43.5 9.5 43.5Z" fill="#B17CEF"/>
<path d="M9.5 57C10.8807 57 12 55.8807 12 54.5C12 53.1193 10.8807 52 9.5 52C8.11929 52 7 53.1193 7 54.5C7 55.8807 8.11929 57 9.5 57Z" fill="#B17CEF"/>
<path d="M48.0103 36.4492H53.5103C53.7755 36.4492 54.0299 36.3438 54.2174 36.1562C54.4049 35.9687 54.5103 35.7144 54.5103 35.4492V28.4492" stroke="#0B0B0B" stroke-linecap="round" stroke-linejoin="round"/>
<path d="M48.0103 45.5898H53.5103C53.7755 45.5898 54.0299 45.6953 54.2174 45.8828C54.4049 46.0703 54.5103 46.3246 54.5103 46.5898V53.5898" stroke="#0B0B0B" stroke-linecap="round" stroke-linejoin="round"/>
<path d="M48 41H53.25" stroke="#0B0B0B" stroke-linecap="round" stroke-linejoin="round"/>
<path d="M54.5 30C55.8807 30 57 28.8807 57 27.5C57 26.1193 55.8807 25 54.5 25C53.1193 25 52 26.1193 52 27.5C52 28.8807 53.1193 30 54.5 30Z" fill="#B17CEF"/>
<path d="M54.5 43.5C55.8807 43.5 57 42.3807 57 41C57 39.6193 55.8807 38.5 54.5 38.5C53.1193 38.5 52 39.6193 52 41C52 42.3807 53.1193 43.5 54.5 43.5Z" fill="#B17CEF"/>
<path d="M54.5 57C55.8807 57 57 55.8807 57 54.5C57 53.1193 55.8807 52 54.5 52C53.1193 52 52 53.1193 52 54.5C52 55.8807 53.1193 57 54.5 57Z" fill="#B17CEF"/>
<path d="M44 25H20C17.7909 25 16 26.7909 16 29V53C16 55.2091 17.7909 57 20 57H44C46.2091 57 48 55.2091 48 53V29C48 26.7909 46.2091 25 44 25Z" fill="#6491FC"/>
<path d="M32.0604 31C32.0604 31 27.7704 34.3301 24.1904 34.3301V42.7598C24.1614 43.5639 24.3198 44.3638 24.653 45.0962C24.9862 45.8286 25.4852 46.4735 26.1104 46.98C27.3704 47.91 31.1103 50.3797 31.2703 50.4897L32.0604 51L32.8404 50.4897C33.0004 50.3797 36.7503 47.91 38.0103 46.98C38.6338 46.4725 39.1308 45.8271 39.4622 45.0947C39.7937 44.3624 39.9505 43.563 39.9204 42.7598V34.3301C36.3504 34.3301 32.0604 31 32.0604 31Z" fill="#BDEA09"/>
<path d="M28.6401 40.5391L31.4102 43.3091L35.9502 38.7793" stroke="#0B0B0B" stroke-miterlimit="10" stroke-linecap="round"/>
</svg>
